<?xml version="1.0" encoding="UTF-8"?>
<svg id="Capa_2" xmlns="http://www.w3.org/2000/svg" viewBox="0 0 202.52 306.28">
  <defs>
    <style>
      .cls-1 {
        fill: #2a9d8f;
      }

      .cls-2 {
        fill: #ffb600;
      }
    </style>
  </defs>
  <g id="Capa_1-2" data-name="Capa_1">
    <g>
      <g>
        <path class="cls-2" d="M172.35,29.16C152.91,9.98,127.15-.37,99.81.01c-26.93.38-52.18,11.31-71.09,30.79C9.79,50.29-.41,75.89.01,102.86c.48,30.8,14.71,59.34,39.05,78.31,18.4,14.34,27.74,25.49,27.74,46.69v.22c0,3.87,3.13,7,7,7h54.92c3.87,0,7-3.13,7-7v-.21c0-21.07,9.44-32.33,28.03-46.93,24.64-19.35,38.77-48.39,38.77-79.68,0-27.31-10.71-52.92-30.16-72.1ZM163.29,162.63l-57.94-61.46c-2.65-2.81-7.08-2.95-9.9-.29-2.81,2.65-2.94,7.08-.29,9.9l57.55,61.06c-17.86,14.39-28.85,27.81-30.72,49.26h-41.48c-1.93-22.51-13.72-36.04-32.85-50.95-20.98-16.35-33.25-40.94-33.66-67.48-.36-23.23,8.43-45.28,24.75-62.09,16.3-16.79,38.06-26.22,61.25-26.54,23.57-.32,45.76,8.59,62.51,25.12,16.76,16.53,25.99,38.59,25.99,62.13s-9.08,45.1-25.23,61.37Z"/>
        <path class="cls-2" d="M101.26,42.41c-34.49,0-62.55,28.06-62.55,62.55s28.06,62.55,62.55,62.55c3.87,0,7-3.13,7-7s-3.13-7-7-7c-26.77,0-48.55-21.78-48.55-48.55s21.78-48.55,48.55-48.55,48.55,21.78,48.55,48.55c0,3.87,3.13,7,7,7s7-3.13,7-7c0-34.49-28.06-62.55-62.55-62.55Z"/>
      </g>
      <path class="cls-1" d="M125.88,260.27h-50.69c-3.87,0-7-3.13-7-7s3.13-7,7-7h50.69c3.87,0,7,3.13,7,7s-3.13,7-7,7Z"/>
      <path class="cls-1" d="M125.88,283.26h-50.69c-3.87,0-7-3.13-7-7s3.13-7,7-7h50.69c3.87,0,7,3.13,7,7s-3.13,7-7,7Z"/>
      <path class="cls-1" d="M111.54,306.28h-22.02c-3.87,0-7-3.13-7-7s3.13-7,7-7h22.02c3.87,0,7,3.13,7,7s-3.13,7-7,7Z"/>
    </g>
  </g>
</svg>