<svg width="544" height="222" viewBox="0 0 544 222" fill="none" xmlns="http://www.w3.org/2000/svg">
<path d="M95.12 82.62C90.9291 78.4261 85.9219 75.1372 80.4085 72.9568C74.895 70.7763 68.9927 69.7509 63.0669 69.9439C57.1411 70.1369 51.318 71.5443 45.9581 74.0789C40.5983 76.6135 35.8157 80.2214 31.9067 84.6791C27.9976 89.1368 25.0451 94.3495 23.2322 99.9945C21.4192 105.639 20.7843 111.596 21.3668 117.497C21.9492 123.397 23.7366 129.115 26.6184 134.296C29.5001 139.478 33.4148 144.013 38.12 147.62C45.72 153.6 49.6 158.21 49.6 167C49.6 167.928 49.9688 168.819 50.6251 169.475C51.2815 170.131 52.1717 170.5 53.1 170.5H76.3C77.2219 170.48 78.1003 170.104 78.7523 169.452C79.4043 168.8 79.7796 167.922 79.8 167C79.8 158.33 83.72 153.66 91.43 147.6C96.2696 143.802 100.245 139.018 103.091 133.564C105.938 128.111 107.59 122.113 107.938 115.971C108.286 109.83 107.322 103.684 105.11 97.9438C102.899 92.2036 99.4894 87.0002 95.11 82.68L95.12 82.62ZM90.91 138.62L66.83 113.05C66.1935 112.374 65.3144 111.978 64.3861 111.95C63.4578 111.922 62.5563 112.264 61.88 112.9C61.2037 113.537 60.808 114.416 60.7798 115.344C60.7517 116.272 61.0935 117.174 61.73 117.85L85.64 143.21C78.4 149.12 73.89 154.73 73 163.53H56.42C55.42 154.13 50.25 148.25 42.42 142.12C37.5465 138.34 33.7158 133.381 31.2892 127.711C28.8626 122.04 27.9199 115.846 28.5501 109.71C29.1803 103.575 31.3625 97.7008 34.8911 92.6422C38.4196 87.5835 43.1783 83.5068 48.7185 80.7963C54.2587 78.0858 60.3979 76.8307 66.5574 77.1496C72.7169 77.4684 78.6937 79.3505 83.9244 82.6185C89.1552 85.8865 93.4676 90.4327 96.455 95.8286C99.4425 101.225 101.007 107.292 101 113.46C101.081 122.841 97.4507 131.874 90.9 138.59L90.91 138.62Z" fill="#FFB600"/>
<path d="M64.7 88.07C57.7672 88.3971 51.2265 91.3814 46.4359 96.4034C41.6452 101.425 38.9724 108.099 38.9724 115.04C38.9724 121.981 41.6452 128.655 46.4359 133.677C51.2265 138.699 57.7672 141.683 64.7 142.01C65.6283 142.01 66.5185 141.641 67.1749 140.985C67.8313 140.329 68.2 139.438 68.2 138.51C68.2 137.582 67.8313 136.692 67.1749 136.035C66.5185 135.379 65.6283 135.01 64.7 135.01C60.7444 135.01 56.8776 133.837 53.5886 131.639C50.2996 129.442 47.7362 126.318 46.2224 122.664C44.7087 119.009 44.3126 114.988 45.0843 111.108C45.856 107.229 47.7608 103.665 50.5579 100.868C53.3549 98.0708 56.9186 96.166 60.7982 95.3943C64.6778 94.6226 68.6991 95.0187 72.3537 96.5324C76.0082 98.0462 79.1318 100.61 81.3294 103.899C83.527 107.188 84.7 111.054 84.7 115.01C84.7 115.938 85.0688 116.829 85.7251 117.485C86.3815 118.141 87.2717 118.51 88.2 118.51C89.1283 118.51 90.0185 118.141 90.6749 117.485C91.3313 116.829 91.7 115.938 91.7 115.01C91.6841 107.86 88.8325 101.007 83.7707 95.9569C78.7089 90.9064 71.8505 88.07 64.7 88.07Z" fill="#FFB600"/>
<path d="M75.1 181.18H53.69C52.7617 181.18 51.8715 180.811 51.2151 180.155C50.5588 179.498 50.19 178.608 50.19 177.68C50.19 176.752 50.5588 175.862 51.2151 175.205C51.8715 174.549 52.7617 174.18 53.69 174.18H75.1C76.0283 174.18 76.9185 174.549 77.5749 175.205C78.2313 175.862 78.6 176.752 78.6 177.68C78.6 178.608 78.2313 179.498 77.5749 180.155C76.9185 180.811 76.0283 181.18 75.1 181.18Z" fill="#2A9D8F"/>
<path d="M75.1 190.88H53.69C52.7617 190.88 51.8715 190.511 51.2151 189.855C50.5588 189.198 50.19 188.308 50.19 187.38C50.19 186.452 50.5588 185.561 51.2151 184.905C51.8715 184.249 52.7617 183.88 53.69 183.88H75.1C76.0283 183.88 76.9185 184.249 77.5749 184.905C78.2313 185.561 78.6 186.452 78.6 187.38C78.6 188.308 78.2313 189.198 77.5749 189.855C76.9185 190.511 76.0283 190.88 75.1 190.88Z" fill="#2A9D8F"/>
<path d="M69.05 200.61H59.75C58.8217 200.61 57.9315 200.241 57.2751 199.585C56.6188 198.929 56.25 198.038 56.25 197.11C56.25 196.182 56.6188 195.292 57.2751 194.635C57.9315 193.979 58.8217 193.61 59.75 193.61H69.05C69.9783 193.61 70.8685 193.979 71.5249 194.635C72.1812 195.292 72.55 196.182 72.55 197.11C72.55 198.038 72.1812 198.929 71.5249 199.585C70.8685 200.241 69.9783 200.61 69.05 200.61Z" fill="#2A9D8F"/>
<path d="M119 121.42V98.62C119 98.0888 119.106 97.5628 119.311 97.0729C119.516 96.583 119.817 96.1389 120.196 95.7665C120.575 95.3942 121.024 95.101 121.518 94.9041C122.011 94.7073 122.539 94.6107 123.07 94.62C123.598 94.6119 124.121 94.7098 124.61 94.908C125.099 95.1061 125.543 95.4005 125.916 95.7735C126.29 96.1466 126.584 96.5908 126.782 97.0797C126.98 97.5687 127.078 98.0925 127.07 98.62V121.09C127.07 129.63 131.47 134.17 138.7 134.17C145.93 134.17 150.26 129.9 150.26 121.42V98.62C150.26 98.0888 150.366 97.5628 150.571 97.0729C150.776 96.583 151.077 96.1389 151.456 95.7665C151.835 95.3942 152.284 95.101 152.778 94.9041C153.271 94.7073 153.799 94.6107 154.33 94.62C154.858 94.6119 155.381 94.7098 155.87 94.908C156.359 95.1061 156.803 95.4005 157.176 95.7735C157.55 96.1466 157.844 96.5908 158.042 97.0797C158.24 97.5687 158.338 98.0925 158.33 98.62V121C158.33 134.73 150.58 141.63 138.55 141.63C126.52 141.63 119 134.76 119 121.42Z" fill="#FFB600"/>
<path d="M175.19 98.62C175.19 98.0888 175.296 97.5628 175.501 97.0729C175.706 96.583 176.007 96.1389 176.386 95.7665C176.765 95.3942 177.214 95.101 177.708 94.9041C178.201 94.7073 178.729 94.6107 179.26 94.62C179.788 94.6119 180.311 94.7098 180.8 94.908C181.289 95.1061 181.733 95.4005 182.106 95.7735C182.48 96.1466 182.774 96.5908 182.972 97.0797C183.17 97.5687 183.268 98.0925 183.26 98.62V137.25C183.26 138.311 182.839 139.328 182.088 140.078C181.338 140.829 180.321 141.25 179.26 141.25C178.729 141.259 178.201 141.163 177.708 140.966C177.214 140.769 176.765 140.476 176.386 140.103C176.007 139.731 175.706 139.287 175.501 138.797C175.296 138.307 175.19 137.781 175.19 137.25V98.62Z" fill="#FFB600"/>
<path d="M198.77 118.07V117.94C198.77 104.86 208.56 94.16 222.49 94.16C228.195 93.9685 233.784 95.8076 238.26 99.35C238.753 99.7293 239.152 100.217 239.426 100.776C239.7 101.334 239.842 101.948 239.84 102.57C239.836 103.315 239.624 104.045 239.228 104.676C238.832 105.308 238.267 105.816 237.598 106.144C236.928 106.471 236.18 106.605 235.438 106.53C234.697 106.455 233.991 106.175 233.4 105.72C230.357 103.051 226.448 101.58 222.4 101.58C213.66 101.58 207.22 108.81 207.22 117.81V117.94C207.22 126.94 213.59 134.23 222.4 134.23C226.657 134.301 230.777 132.725 233.9 129.83C234.57 129.236 235.435 128.909 236.33 128.91C237.328 128.918 238.284 129.313 238.995 130.013C239.706 130.713 240.117 131.662 240.14 132.66C240.137 133.207 240.019 133.747 239.793 134.245C239.567 134.743 239.239 135.187 238.83 135.55C234.292 139.718 228.298 141.938 222.14 141.73C208.74 141.73 198.75 131.28 198.75 118.08L198.77 118.07Z" fill="#FFB600"/>
<path d="M254.56 98.62C254.56 98.0888 254.666 97.5628 254.871 97.0729C255.076 96.583 255.377 96.1389 255.756 95.7665C256.135 95.3942 256.584 95.101 257.078 94.9041C257.571 94.7073 258.099 94.6107 258.63 94.62C259.158 94.6119 259.681 94.7098 260.17 94.908C260.659 95.1061 261.103 95.4005 261.476 95.7735C261.85 96.1466 262.144 96.5908 262.342 97.0797C262.54 97.5687 262.638 98.0925 262.63 98.62V118.07L284.44 96.12C284.849 95.6331 285.363 95.2446 285.943 94.9832C286.523 94.7218 287.154 94.5943 287.79 94.61C288.284 94.6046 288.774 94.698 289.231 94.8845C289.689 95.0711 290.104 95.3471 290.454 95.6964C290.803 96.0457 291.079 96.4612 291.265 96.9186C291.452 97.376 291.545 97.8661 291.54 98.36C291.534 98.9359 291.4 99.5032 291.15 100.022C290.899 100.54 290.537 100.997 290.09 101.36L275.77 115.16L291.28 134.41C291.996 135.203 292.394 136.232 292.4 137.3C292.4 137.829 292.294 138.352 292.088 138.838C291.882 139.325 291.58 139.765 291.2 140.133C290.821 140.501 290.371 140.788 289.878 140.978C289.385 141.168 288.858 141.257 288.33 141.24C287.646 141.232 286.974 141.053 286.377 140.72C285.78 140.386 285.275 139.908 284.91 139.33L270.13 120.47L262.64 127.7V137.23C262.64 138.291 262.219 139.308 261.468 140.058C260.718 140.809 259.701 141.23 258.64 141.23C258.109 141.239 257.581 141.143 257.088 140.946C256.594 140.749 256.145 140.456 255.766 140.083C255.387 139.711 255.086 139.267 254.881 138.777C254.676 138.287 254.57 137.761 254.57 137.23V98.62H254.56Z" fill="#FFB600"/>
<path d="M306.66 98.75C306.651 98.2129 306.749 97.6794 306.951 97.1814C307.152 96.6833 307.451 96.2308 307.831 95.851C308.211 95.4711 308.663 95.1717 309.161 94.9705C309.659 94.7693 310.193 94.6706 310.73 94.68H311.58C312.342 94.6743 313.091 94.8725 313.751 95.2541C314.41 95.6357 314.955 96.1867 315.33 96.85L329.26 118.66L343.26 96.78C343.621 96.1251 344.155 95.5825 344.804 95.2119C345.454 94.8414 346.193 94.6573 346.94 94.68H347.79C348.327 94.6706 348.861 94.7693 349.359 94.9705C349.857 95.1717 350.309 95.4711 350.689 95.851C351.069 96.2308 351.368 96.6833 351.57 97.1814C351.771 97.6794 351.869 98.2129 351.86 98.75V137.25C351.86 137.781 351.754 138.307 351.549 138.797C351.344 139.287 351.043 139.731 350.664 140.104C350.285 140.476 349.836 140.769 349.342 140.966C348.849 141.163 348.321 141.259 347.79 141.25C346.735 141.232 345.728 140.805 344.981 140.059C344.235 139.312 343.808 138.305 343.79 137.25V109.65L332.55 126.54C332.215 127.16 331.723 127.681 331.122 128.05C330.522 128.419 329.835 128.622 329.13 128.64C328.434 128.627 327.754 128.424 327.164 128.054C326.574 127.684 326.095 127.161 325.78 126.54L314.6 109.79V137.32C314.601 137.843 314.498 138.361 314.297 138.843C314.096 139.326 313.8 139.764 313.428 140.131C313.055 140.497 312.613 140.786 312.128 140.98C311.642 141.174 311.123 141.269 310.6 141.26C310.08 141.27 309.563 141.174 309.081 140.979C308.599 140.785 308.161 140.495 307.793 140.127C307.425 139.759 307.135 139.321 306.941 138.839C306.746 138.357 306.651 137.84 306.66 137.32V98.75Z" fill="#FFB600"/>
<path d="M366.91 118.07V117.94C366.91 105 376.91 94.16 391.02 94.16C405.13 94.16 415.02 104.87 415.02 117.81V117.94C415.02 130.88 405.02 141.73 390.91 141.73C376.8 141.73 366.91 131.02 366.91 118.08V118.07ZM406.53 118.07V117.94C406.53 109 400.03 101.58 390.89 101.58C381.75 101.58 375.38 108.87 375.38 117.81V117.94C375.38 126.88 381.88 134.23 391.02 134.23C400.16 134.23 406.53 127 406.53 118.07Z" fill="#FFB600"/>
<path d="M428 118.07V117.94C428 104.86 437.79 94.16 451.72 94.16C457.425 93.9685 463.014 95.8076 467.49 99.35C467.983 99.7293 468.382 100.217 468.656 100.776C468.93 101.334 469.072 101.948 469.07 102.57C469.066 103.315 468.855 104.045 468.458 104.676C468.062 105.308 467.497 105.816 466.828 106.144C466.158 106.471 465.41 106.605 464.668 106.53C463.927 106.455 463.221 106.175 462.63 105.72C459.587 103.051 455.678 101.58 451.63 101.58C442.89 101.58 436.45 108.81 436.45 117.81V117.94C436.45 126.94 442.82 134.23 451.63 134.23C455.887 134.301 460.007 132.725 463.13 129.83C463.8 129.236 464.665 128.909 465.56 128.91C466.558 128.918 467.514 129.313 468.225 130.013C468.936 130.713 469.347 131.662 469.37 132.66C469.367 133.207 469.249 133.747 469.023 134.245C468.797 134.743 468.469 135.187 468.06 135.55C463.522 139.718 457.528 141.938 451.37 141.73C437.97 141.73 427.98 131.28 427.98 118.08L428 118.07Z" fill="#FFB600"/>
<path d="M483.79 98.62C483.79 98.0888 483.896 97.5629 484.101 97.073C484.306 96.583 484.607 96.1389 484.986 95.7666C485.365 95.3942 485.814 95.101 486.308 94.9042C486.801 94.7073 487.329 94.6108 487.86 94.62C488.388 94.612 488.911 94.7099 489.4 94.908C489.889 95.1062 490.333 95.4005 490.706 95.7736C491.08 96.1466 491.374 96.5908 491.572 97.0798C491.77 97.5687 491.868 98.0925 491.86 98.62V118.07L513.67 96.12C514.077 95.6359 514.588 95.2489 515.164 94.9876C515.74 94.7264 516.367 94.5973 517 94.61C517.494 94.6047 517.984 94.698 518.441 94.8846C518.899 95.0711 519.314 95.3472 519.664 95.6965C520.013 96.0458 520.289 96.4613 520.475 96.9187C520.662 97.3761 520.755 97.8661 520.75 98.36C520.744 98.9359 520.61 99.5033 520.36 100.022C520.109 100.54 519.747 100.997 519.3 101.36L505 115.18L520.51 134.43C521.226 135.223 521.624 136.252 521.63 137.32C521.63 137.849 521.524 138.372 521.318 138.858C521.112 139.345 520.81 139.785 520.43 140.153C520.051 140.521 519.601 140.808 519.108 140.998C518.615 141.188 518.088 141.277 517.56 141.26C516.876 141.252 516.205 141.074 515.607 140.74C515.01 140.406 514.505 139.928 514.14 139.35L499.36 120.49L491.87 127.72V137.25C491.87 138.311 491.449 139.328 490.698 140.078C489.948 140.829 488.931 141.25 487.87 141.25C487.339 141.259 486.811 141.163 486.318 140.966C485.824 140.769 485.375 140.476 484.996 140.104C484.617 139.731 484.316 139.287 484.111 138.797C483.906 138.307 483.8 137.781 483.8 137.25V98.62H483.79Z" fill="#FFB600"/>
<path d="M279.51 0.5H263.51V16.5H279.51V0.5Z" stroke="#7BCCFF"/>
<path d="M271.51 16.5V55.32" stroke="#7BCCFF"/>
<path d="M16.5 47.32H0.5V63.32H16.5V47.32Z" stroke="#7BCCFF"/>
<path d="M16.5 205.36H0.5V221.36H16.5V205.36Z" stroke="#7BCCFF"/>
<path d="M542.52 205.36H526.52V221.36H542.52V205.36Z" stroke="#7BCCFF"/>
<path d="M542.52 47.32H526.52V63.32H542.52V47.32Z" stroke="#7BCCFF"/>
<path d="M534.52 63.32V205.36H526.52V213.36H16.5V205.36H8.5V63.32H16.5V55.32H526.52V63.32H534.52Z" stroke="#7BCCFF"/>
<path d="M128.58 176.55C128.468 176.551 128.357 176.53 128.253 176.488C128.149 176.446 128.055 176.383 127.976 176.304C127.897 176.225 127.834 176.131 127.792 176.027C127.75 175.923 127.729 175.812 127.73 175.7V163.34C127.725 163.226 127.744 163.113 127.787 163.007C127.831 162.902 127.896 162.807 127.98 162.73C128.058 162.651 128.152 162.589 128.255 162.548C128.358 162.506 128.469 162.487 128.58 162.49H136.84C136.95 162.485 137.061 162.503 137.164 162.543C137.267 162.583 137.361 162.643 137.44 162.72C137.516 162.796 137.576 162.886 137.616 162.986C137.655 163.086 137.674 163.193 137.67 163.3C137.671 163.403 137.652 163.504 137.612 163.599C137.572 163.693 137.514 163.779 137.44 163.85C137.361 163.927 137.267 163.988 137.164 164.027C137.061 164.067 136.95 164.085 136.84 164.08H129.43V168.68H134.77C134.882 168.676 134.993 168.694 135.098 168.733C135.203 168.773 135.299 168.833 135.38 168.91C135.455 168.984 135.515 169.071 135.556 169.169C135.597 169.266 135.618 169.37 135.618 169.475C135.618 169.58 135.597 169.685 135.556 169.782C135.515 169.879 135.455 169.966 135.38 170.04C135.299 170.117 135.203 170.177 135.098 170.217C134.993 170.256 134.882 170.274 134.77 170.27H129.43V175.7C129.431 175.813 129.409 175.925 129.367 176.03C129.324 176.135 129.26 176.23 129.18 176.31C129.102 176.389 129.008 176.451 128.905 176.492C128.802 176.534 128.691 176.553 128.58 176.55Z" fill="black"/>
<path d="M140.75 176.55C140.641 176.556 140.532 176.541 140.429 176.505C140.326 176.469 140.231 176.413 140.15 176.34C140.076 176.26 140.019 176.165 139.983 176.062C139.947 175.959 139.932 175.849 139.94 175.74V167.51C139.934 167.403 139.949 167.295 139.985 167.194C140.021 167.092 140.077 166.999 140.15 166.92C140.23 166.846 140.325 166.788 140.428 166.75C140.531 166.712 140.64 166.695 140.75 166.7C140.862 166.692 140.975 166.707 141.081 166.743C141.187 166.779 141.286 166.836 141.37 166.91C141.442 166.992 141.497 167.087 141.531 167.19C141.565 167.293 141.579 167.402 141.57 167.51V175.74C141.578 175.847 141.564 175.954 141.53 176.055C141.495 176.157 141.441 176.25 141.37 176.33C141.288 176.408 141.19 176.468 141.083 176.506C140.977 176.544 140.863 176.559 140.75 176.55ZM140.69 170.43C140.7 169.725 140.897 169.035 141.26 168.43C141.609 167.853 142.102 167.376 142.691 167.048C143.281 166.72 143.946 166.552 144.62 166.56C145.131 166.528 145.642 166.631 146.1 166.86C146.245 166.924 146.362 167.038 146.43 167.181C146.498 167.324 146.512 167.487 146.47 167.64C146.462 167.714 146.439 167.786 146.403 167.851C146.367 167.916 146.319 167.974 146.26 168.02C146.148 168.099 146.016 168.144 145.88 168.15C145.724 168.169 145.566 168.169 145.41 168.15C144.747 168.021 144.064 168.042 143.41 168.21C142.88 168.33 142.4 168.613 142.04 169.02C141.696 169.404 141.513 169.905 141.53 170.42L140.69 170.43Z" fill="black"/>
<path d="M153.06 176.62C152.139 176.641 151.229 176.42 150.42 175.98C149.671 175.571 149.052 174.962 148.63 174.22C148.189 173.433 147.965 172.542 147.98 171.64C147.964 170.736 148.173 169.842 148.59 169.04C148.986 168.307 149.573 167.695 150.29 167.27C151.051 166.836 151.914 166.615 152.79 166.63C153.629 166.61 154.457 166.825 155.18 167.25C155.846 167.664 156.383 168.256 156.73 168.96C157.102 169.744 157.286 170.603 157.27 171.47C157.273 171.566 157.255 171.662 157.219 171.752C157.183 171.841 157.129 171.922 157.06 171.99C156.989 172.059 156.904 172.113 156.811 172.147C156.718 172.182 156.619 172.196 156.52 172.19H149.12V170.86H156.53L155.79 171.38C155.791 170.79 155.664 170.207 155.42 169.67C155.203 169.191 154.857 168.782 154.42 168.49C153.942 168.188 153.385 168.035 152.82 168.05C152.197 168.033 151.583 168.196 151.05 168.52C150.554 168.83 150.155 169.273 149.9 169.8C149.632 170.376 149.499 171.005 149.51 171.64C149.497 172.277 149.656 172.906 149.97 173.46C150.264 173.992 150.7 174.432 151.23 174.73C151.796 175.051 152.439 175.213 153.09 175.2C153.5 175.196 153.906 175.122 154.29 174.98C154.649 174.871 154.987 174.702 155.29 174.48C155.442 174.353 155.632 174.279 155.83 174.27C156.012 174.263 156.19 174.324 156.33 174.44C156.494 174.579 156.598 174.776 156.62 174.99C156.624 175.091 156.604 175.191 156.56 175.281C156.517 175.372 156.451 175.451 156.37 175.51C155.424 176.208 154.285 176.596 153.11 176.62H153.06Z" fill="black"/>
<path d="M164.18 176.62C163.262 176.64 162.356 176.42 161.55 175.98C160.798 175.572 160.175 174.962 159.75 174.22C159.312 173.432 159.091 172.541 159.11 171.64C159.089 170.736 159.299 169.841 159.72 169.04C160.112 168.307 160.696 167.695 161.41 167.27C162.171 166.836 163.034 166.615 163.91 166.63C164.752 166.61 165.583 166.825 166.31 167.25C166.973 167.665 167.507 168.257 167.85 168.96C168.225 169.743 168.413 170.602 168.4 171.47C168.403 171.566 168.386 171.662 168.349 171.752C168.313 171.841 168.259 171.922 168.19 171.99C168.117 172.059 168.031 172.113 167.936 172.148C167.841 172.182 167.741 172.196 167.64 172.19H160.24V170.86H167.66L166.92 171.38C166.917 170.789 166.787 170.206 166.54 169.67C166.324 169.191 165.978 168.782 165.54 168.49C165.058 168.188 164.498 168.035 163.93 168.05C163.307 168.036 162.694 168.199 162.16 168.52C161.656 168.824 161.253 169.269 161 169.8C160.722 170.373 160.585 171.004 160.6 171.64C160.587 172.277 160.746 172.906 161.06 173.46C161.36 173.988 161.794 174.426 162.32 174.73C162.886 175.051 163.529 175.213 164.18 175.2C164.59 175.198 164.996 175.124 165.38 174.98C165.739 174.871 166.077 174.702 166.38 174.48C166.535 174.358 166.723 174.285 166.92 174.27C167.102 174.263 167.28 174.324 167.42 174.44C167.584 174.579 167.688 174.776 167.71 174.99C167.715 175.091 167.694 175.191 167.65 175.281C167.607 175.372 167.541 175.451 167.46 175.51C167.001 175.859 166.488 176.13 165.94 176.31C165.375 176.512 164.78 176.616 164.18 176.62Z" fill="black"/>
<path d="M170.57 179.59C170.514 179.593 170.458 179.584 170.407 179.563C170.355 179.543 170.308 179.511 170.27 179.47C170.195 179.385 170.155 179.274 170.16 179.16C170.155 178.954 170.223 178.752 170.35 178.59L170.73 178.06C170.856 177.849 170.918 177.606 170.91 177.36C170.918 177.181 170.873 177.003 170.78 176.85C170.69 176.711 170.582 176.583 170.46 176.47C170.341 176.357 170.237 176.229 170.15 176.09C170.058 175.929 170.013 175.745 170.02 175.56C170.014 175.417 170.038 175.274 170.091 175.141C170.145 175.008 170.226 174.889 170.33 174.79C170.442 174.684 170.574 174.602 170.718 174.548C170.862 174.495 171.016 174.472 171.17 174.48C171.361 174.466 171.552 174.5 171.727 174.578C171.902 174.657 172.054 174.778 172.17 174.93C172.423 175.285 172.553 175.714 172.54 176.15C172.535 176.546 172.478 176.939 172.37 177.32C172.259 177.708 172.101 178.08 171.9 178.43C171.726 178.735 171.514 179.018 171.27 179.27C171.18 179.367 171.072 179.445 170.952 179.5C170.832 179.555 170.702 179.586 170.57 179.59Z" fill="black"/>
<path d="M184.77 176.62C183.869 176.639 182.978 176.418 182.19 175.98C181.45 175.57 180.84 174.96 180.43 174.22C180.01 173.421 179.79 172.533 179.79 171.63C179.79 170.728 180.01 169.839 180.43 169.04C180.842 168.299 181.451 167.687 182.19 167.27C182.977 166.838 183.862 166.617 184.76 166.63C185.651 166.616 186.531 166.837 187.31 167.27C188.047 167.692 188.658 168.303 189.08 169.04C189.522 169.835 189.75 170.731 189.74 171.64C189.76 172.543 189.536 173.435 189.09 174.22C188.674 174.956 188.066 175.564 187.33 175.98C186.549 176.419 185.665 176.64 184.77 176.62ZM184.77 175.15C185.38 175.163 185.982 175.007 186.51 174.7C187.014 174.401 187.426 173.968 187.7 173.45C187.996 172.894 188.145 172.27 188.13 171.64C188.144 171.003 187.996 170.374 187.7 169.81C187.426 169.292 187.014 168.859 186.51 168.56C185.979 168.265 185.382 168.11 184.775 168.11C184.168 168.11 183.571 168.265 183.04 168.56C182.535 168.862 182.121 169.293 181.84 169.81C181.54 170.373 181.389 171.003 181.4 171.64C181.389 172.271 181.54 172.895 181.84 173.45C182.123 173.977 182.547 174.415 183.064 174.715C183.582 175.015 184.172 175.166 184.77 175.15Z" fill="black"/>
<path d="M193.29 180.76C193.179 180.766 193.069 180.748 192.966 180.709C192.862 180.669 192.769 180.608 192.69 180.53C192.612 180.451 192.551 180.358 192.511 180.254C192.472 180.151 192.454 180.041 192.46 179.93V171.6C192.459 170.708 192.694 169.832 193.14 169.06C193.559 168.318 194.17 167.703 194.91 167.28C195.67 166.844 196.534 166.619 197.41 166.63C198.31 166.615 199.198 166.843 199.98 167.29C200.721 167.719 201.335 168.337 201.76 169.08C202.177 169.865 202.395 170.741 202.395 171.63C202.395 172.519 202.177 173.395 201.76 174.18C201.367 174.914 200.787 175.531 200.08 175.97C199.359 176.404 198.532 176.63 197.69 176.62C196.975 176.633 196.268 176.472 195.63 176.15C195.031 175.847 194.505 175.417 194.09 174.89V179.89C194.095 180.112 194.012 180.328 193.86 180.49C193.788 180.571 193.7 180.636 193.602 180.683C193.504 180.729 193.398 180.755 193.29 180.76ZM197.41 175.15C198.021 175.157 198.622 174.998 199.15 174.69C199.655 174.385 200.07 173.95 200.35 173.43C200.639 172.874 200.79 172.257 200.79 171.63C200.79 171.003 200.639 170.386 200.35 169.83C200.075 169.306 199.66 168.87 199.15 168.57C198.63 168.26 198.035 168.101 197.43 168.11C196.823 168.098 196.226 168.261 195.71 168.58C195.204 168.885 194.79 169.32 194.51 169.84C194.214 170.393 194.065 171.013 194.08 171.64C194.07 172.263 194.218 172.879 194.51 173.43C194.79 173.955 195.208 174.392 195.719 174.695C196.231 174.999 196.816 175.156 197.41 175.15Z" fill="black"/>
<path d="M209.72 176.62C208.799 176.639 207.89 176.418 207.08 175.98C206.334 175.568 205.714 174.959 205.29 174.22C204.852 173.432 204.631 172.541 204.65 171.64C204.629 170.736 204.838 169.841 205.26 169.04C205.652 168.307 206.236 167.695 206.95 167.27C207.711 166.836 208.574 166.615 209.45 166.63C210.292 166.61 211.123 166.825 211.85 167.25C212.513 167.665 213.047 168.257 213.39 168.96C213.762 169.744 213.946 170.603 213.93 171.47C213.935 171.568 213.918 171.667 213.882 171.758C213.845 171.85 213.79 171.932 213.719 172C213.648 172.069 213.563 172.121 213.47 172.154C213.377 172.186 213.278 172.199 213.18 172.19H205.78V170.86H213.2L212.46 171.38C212.457 170.789 212.327 170.206 212.08 169.67C211.866 169.189 211.519 168.78 211.08 168.49C210.602 168.187 210.045 168.034 209.48 168.05C208.857 168.036 208.244 168.199 207.71 168.52C207.214 168.827 206.817 169.272 206.57 169.8C206.292 170.373 206.155 171.004 206.17 171.64C206.157 172.277 206.316 172.906 206.63 173.46C206.924 173.992 207.36 174.432 207.89 174.73C208.456 175.051 209.099 175.213 209.75 175.2C210.16 175.197 210.566 175.123 210.95 174.98C211.309 174.871 211.647 174.702 211.95 174.48C212.105 174.358 212.293 174.285 212.49 174.27C212.672 174.263 212.85 174.324 212.99 174.44C213.154 174.579 213.258 174.776 213.28 174.99C213.284 175.091 213.264 175.191 213.22 175.281C213.177 175.372 213.111 175.451 213.03 175.51C212.084 176.208 210.945 176.596 209.77 176.62H209.72Z" fill="black"/>
<path d="M217.1 176.57C216.991 176.571 216.882 176.551 216.781 176.51C216.679 176.468 216.587 176.407 216.51 176.33C216.433 176.253 216.372 176.161 216.33 176.059C216.289 175.958 216.269 175.849 216.27 175.74V167.53C216.265 167.419 216.284 167.307 216.325 167.204C216.366 167.1 216.429 167.007 216.51 166.93C216.627 166.812 216.776 166.732 216.939 166.699C217.102 166.667 217.27 166.684 217.423 166.749C217.576 166.814 217.706 166.923 217.796 167.062C217.887 167.201 217.933 167.364 217.93 167.53V175.74C217.933 175.849 217.915 175.957 217.875 176.058C217.836 176.16 217.776 176.252 217.7 176.33C217.623 176.411 217.53 176.474 217.426 176.515C217.323 176.556 217.211 176.575 217.1 176.57ZM224.64 176.57C224.529 176.573 224.418 176.554 224.315 176.512C224.212 176.471 224.118 176.409 224.04 176.33C223.963 176.253 223.902 176.161 223.86 176.059C223.819 175.958 223.799 175.849 223.8 175.74V171.2C223.826 170.598 223.687 170 223.4 169.47C223.153 169.039 222.784 168.691 222.34 168.47C221.863 168.242 221.339 168.129 220.81 168.14C220.305 168.128 219.804 168.238 219.35 168.46C218.951 168.661 218.608 168.956 218.35 169.32C218.089 169.684 217.953 170.122 217.96 170.57H216.88C216.883 169.862 217.084 169.169 217.46 168.57C217.83 167.977 218.351 167.494 218.97 167.17C219.629 166.821 220.364 166.642 221.11 166.65C221.894 166.636 222.668 166.822 223.36 167.19C224.022 167.545 224.567 168.083 224.93 168.74C225.33 169.511 225.526 170.372 225.5 171.24V175.78C225.501 175.889 225.481 175.998 225.44 176.099C225.398 176.201 225.337 176.293 225.26 176.37C225.176 176.444 225.078 176.501 224.971 176.535C224.864 176.57 224.752 176.581 224.64 176.57Z" fill="black"/>
<path d="M232 176.62C231.234 176.626 230.473 176.501 229.75 176.25C229.119 176.059 228.546 175.716 228.08 175.25C228.006 175.17 227.949 175.075 227.915 174.972C227.88 174.868 227.868 174.758 227.88 174.65C227.893 174.54 227.928 174.434 227.983 174.338C228.038 174.241 228.112 174.157 228.2 174.09C228.377 173.947 228.603 173.878 228.83 173.9C229.04 173.919 229.234 174.019 229.37 174.18C229.668 174.486 230.03 174.722 230.43 174.87C230.913 175.065 231.429 175.163 231.95 175.16C232.556 175.203 233.16 175.067 233.69 174.77C233.872 174.674 234.025 174.53 234.131 174.354C234.238 174.178 234.294 173.976 234.294 173.77C234.294 173.564 234.238 173.362 234.131 173.186C234.025 173.01 233.872 172.866 233.69 172.77C233.079 172.41 232.396 172.192 231.69 172.13C230.731 172.006 229.82 171.642 229.04 171.07C228.781 170.858 228.573 170.591 228.432 170.288C228.29 169.985 228.217 169.654 228.22 169.32C228.199 168.768 228.381 168.228 228.73 167.8C229.092 167.385 229.558 167.074 230.08 166.9C231.356 166.459 232.748 166.494 234 167C234.563 167.229 235.058 167.597 235.44 168.07C235.511 168.144 235.566 168.232 235.602 168.328C235.638 168.425 235.655 168.527 235.65 168.63C235.638 168.727 235.605 168.82 235.553 168.903C235.501 168.986 235.432 169.057 235.35 169.11C235.164 169.223 234.943 169.262 234.73 169.22C234.505 169.19 234.297 169.084 234.14 168.92C233.865 168.622 233.522 168.396 233.14 168.26C232.73 168.125 232.301 168.061 231.87 168.07C231.371 168.055 230.876 168.165 230.43 168.39C230.263 168.472 230.122 168.598 230.024 168.755C229.925 168.913 229.871 169.094 229.87 169.28C229.86 169.505 229.927 169.727 230.06 169.91C230.247 170.136 230.493 170.305 230.77 170.4C231.251 170.59 231.75 170.727 232.26 170.81C232.999 170.924 233.716 171.146 234.39 171.47C234.85 171.695 235.241 172.041 235.52 172.47C235.749 172.85 235.866 173.286 235.86 173.73C235.869 174.263 235.708 174.785 235.4 175.22C235.063 175.671 234.605 176.017 234.08 176.22C233.423 176.498 232.714 176.635 232 176.62Z" fill="black"/>
<path d="M242.73 176.62C241.828 176.639 240.938 176.418 240.15 175.98C239.41 175.57 238.8 174.96 238.39 174.22C237.97 173.421 237.75 172.533 237.75 171.63C237.75 170.728 237.97 169.839 238.39 169.04C238.802 168.299 239.411 167.687 240.15 167.27C240.937 166.838 241.822 166.617 242.72 166.63C243.611 166.616 244.491 166.837 245.27 167.27C245.987 167.686 246.584 168.283 247 169C247.442 169.795 247.67 170.691 247.66 171.6C247.675 172.502 247.451 173.393 247.01 174.18C246.594 174.916 245.986 175.524 245.25 175.94C244.485 176.386 243.615 176.62 242.73 176.62ZM242.73 175.15C243.34 175.163 243.942 175.007 244.47 174.7C244.974 174.401 245.386 173.968 245.66 173.45C245.956 172.894 246.104 172.27 246.09 171.64C246.104 171.003 245.956 170.374 245.66 169.81C245.386 169.292 244.974 168.859 244.47 168.56C243.939 168.265 243.342 168.11 242.735 168.11C242.128 168.11 241.531 168.265 241 168.56C240.493 168.859 240.078 169.291 239.8 169.81C239.5 170.373 239.349 171.003 239.36 171.64C239.349 172.271 239.5 172.895 239.8 173.45C240.078 173.969 240.493 174.401 241 174.7C241.522 175.004 242.116 175.16 242.72 175.15H242.73Z" fill="black"/>
<path d="M254.61 176.64C253.828 176.652 253.055 176.47 252.36 176.11C251.696 175.757 251.153 175.214 250.8 174.55C250.392 173.781 250.193 172.92 250.22 172.05V167.51C250.219 167.402 250.24 167.295 250.281 167.195C250.322 167.096 250.383 167.006 250.46 166.93C250.537 166.853 250.629 166.792 250.731 166.75C250.832 166.709 250.941 166.689 251.05 166.69C251.271 166.687 251.484 166.772 251.643 166.925C251.803 167.079 251.895 167.289 251.9 167.51V172.05C251.878 172.651 252.012 173.247 252.29 173.78C252.544 174.208 252.916 174.555 253.36 174.78C253.835 175.005 254.355 175.118 254.88 175.11C255.39 175.121 255.894 175.007 256.35 174.78C256.751 174.579 257.095 174.28 257.35 173.91C257.601 173.549 257.733 173.119 257.73 172.68H258.81C258.794 173.386 258.594 174.075 258.23 174.68C257.865 175.278 257.347 175.768 256.73 176.1C256.079 176.452 255.35 176.638 254.61 176.64ZM258.61 176.55C258.5 176.554 258.39 176.536 258.287 176.495C258.185 176.455 258.092 176.394 258.014 176.316C257.936 176.238 257.875 176.145 257.835 176.043C257.794 175.94 257.776 175.83 257.78 175.72V167.51C257.777 167.4 257.797 167.291 257.838 167.19C257.879 167.088 257.941 166.996 258.02 166.92C258.096 166.842 258.189 166.781 258.29 166.742C258.392 166.702 258.501 166.684 258.61 166.69C258.72 166.685 258.831 166.703 258.934 166.743C259.037 166.783 259.131 166.843 259.21 166.92C259.286 166.998 259.345 167.091 259.384 167.192C259.424 167.293 259.443 167.401 259.44 167.51V175.72C259.446 175.831 259.428 175.941 259.389 176.044C259.349 176.148 259.288 176.241 259.21 176.32C259.131 176.398 259.038 176.459 258.934 176.499C258.831 176.538 258.721 176.556 258.61 176.55Z" fill="black"/>
<path d="M263.47 176.55C263.363 176.557 263.255 176.541 263.154 176.505C263.052 176.469 262.959 176.413 262.88 176.34C262.802 176.262 262.742 176.168 262.704 176.064C262.666 175.961 262.651 175.85 262.66 175.74V167.51C262.653 167.402 262.669 167.293 262.707 167.192C262.745 167.09 262.804 166.997 262.88 166.92C262.959 166.846 263.051 166.788 263.153 166.75C263.254 166.713 263.362 166.695 263.47 166.7C263.582 166.691 263.695 166.705 263.802 166.741C263.908 166.777 264.006 166.835 264.09 166.91C264.164 166.991 264.22 167.085 264.256 167.189C264.292 167.292 264.307 167.401 264.3 167.51V175.74C264.31 175.851 264.294 175.962 264.256 176.066C264.217 176.17 264.156 176.264 264.077 176.341C263.997 176.419 263.902 176.478 263.797 176.514C263.692 176.55 263.58 176.562 263.47 176.55ZM263.42 170.43C263.422 169.725 263.616 169.034 263.98 168.43C264.332 167.862 264.82 167.391 265.4 167.06C265.99 166.721 266.66 166.549 267.34 166.56C267.851 166.528 268.362 166.631 268.82 166.86C268.965 166.924 269.082 167.038 269.15 167.181C269.218 167.324 269.232 167.487 269.19 167.64C269.184 167.715 269.162 167.787 269.126 167.853C269.089 167.918 269.04 167.975 268.98 168.02C268.868 168.099 268.736 168.144 268.6 168.15C268.444 168.168 268.286 168.168 268.13 168.15C267.467 168.021 266.784 168.042 266.13 168.21C265.601 168.332 265.122 168.615 264.76 169.02C264.426 169.409 264.248 169.908 264.26 170.42L263.42 170.43Z" fill="black"/>
<path d="M275.64 176.62C274.751 176.633 273.874 176.409 273.1 175.97C272.365 175.54 271.757 174.922 271.34 174.18C270.914 173.402 270.696 172.527 270.71 171.64C270.689 170.734 270.903 169.839 271.33 169.04C271.725 168.307 272.313 167.695 273.03 167.27C273.791 166.836 274.654 166.615 275.53 166.63C276.22 166.617 276.904 166.761 277.53 167.05C278.151 167.336 278.698 167.761 279.13 168.29C279.205 168.356 279.26 168.441 279.29 168.536C279.32 168.632 279.323 168.733 279.3 168.83C279.25 169.037 279.12 169.216 278.94 169.33C278.868 169.385 278.786 169.423 278.697 169.442C278.609 169.461 278.518 169.461 278.43 169.44C278.232 169.398 278.056 169.288 277.93 169.13C277.586 168.749 277.155 168.457 276.674 168.279C276.193 168.101 275.676 168.041 275.168 168.106C274.659 168.171 274.173 168.358 273.752 168.651C273.331 168.944 272.987 169.335 272.75 169.79C272.471 170.366 272.333 171 272.35 171.64C272.339 172.265 272.484 172.884 272.77 173.44C273.048 173.967 273.468 174.406 273.982 174.708C274.496 175.01 275.084 175.163 275.68 175.15C276.083 175.154 276.484 175.096 276.87 174.98C277.213 174.875 277.53 174.697 277.8 174.46C277.947 174.328 278.133 174.248 278.33 174.23C278.511 174.216 278.69 174.274 278.83 174.39C278.993 174.518 279.1 174.705 279.13 174.91C279.143 175.004 279.133 175.1 279.1 175.189C279.067 175.278 279.012 175.358 278.94 175.42C278.04 176.237 276.855 176.668 275.64 176.62Z" fill="black"/>
<path d="M286.56 176.62C285.642 176.64 284.736 176.42 283.93 175.98C283.179 175.574 282.559 174.964 282.14 174.22C281.694 173.435 281.47 172.543 281.49 171.64C281.469 170.736 281.678 169.841 282.1 169.04C282.492 168.307 283.076 167.695 283.79 167.27C284.551 166.837 285.414 166.616 286.29 166.63C287.132 166.608 287.964 166.823 288.69 167.25C289.356 167.664 289.893 168.256 290.24 168.96C290.612 169.744 290.796 170.603 290.78 171.47C290.783 171.566 290.765 171.662 290.729 171.752C290.693 171.841 290.639 171.923 290.57 171.99C290.497 172.059 290.411 172.113 290.316 172.148C290.221 172.182 290.121 172.196 290.02 172.19H282.62V170.86H290L289.26 171.38C289.257 170.789 289.127 170.206 288.88 169.67C288.664 169.191 288.318 168.782 287.88 168.49C287.398 168.188 286.838 168.035 286.27 168.05C285.647 168.036 285.034 168.199 284.5 168.52C284.004 168.827 283.607 169.272 283.36 169.8C283.082 170.373 282.945 171.004 282.96 171.64C282.947 172.277 283.106 172.906 283.42 173.46C283.72 173.988 284.154 174.426 284.68 174.73C285.246 175.051 285.889 175.213 286.54 175.2C286.95 175.198 287.356 175.124 287.74 174.98C288.099 174.871 288.437 174.702 288.74 174.48C288.895 174.358 289.083 174.285 289.28 174.27C289.465 174.265 289.645 174.325 289.79 174.44C289.951 174.58 290.052 174.777 290.07 174.99C290.076 175.091 290.057 175.192 290.013 175.283C289.969 175.374 289.903 175.452 289.82 175.51C289.361 175.859 288.848 176.13 288.3 176.31C287.741 176.51 287.153 176.615 286.56 176.62Z" fill="black"/>
<path d="M300.64 176.55C300.159 176.554 299.688 176.411 299.29 176.14C298.88 175.85 298.558 175.452 298.36 174.99C298.13 174.46 298.017 173.887 298.03 173.31V163.31C298.025 163.203 298.042 163.097 298.08 162.997C298.118 162.897 298.176 162.806 298.25 162.73C298.412 162.581 298.625 162.498 298.845 162.498C299.065 162.498 299.278 162.581 299.44 162.73C299.516 162.806 299.576 162.896 299.616 162.996C299.655 163.096 299.674 163.203 299.67 163.31V173.31C299.653 173.711 299.747 174.108 299.94 174.46C300.004 174.592 300.103 174.704 300.227 174.783C300.35 174.863 300.493 174.906 300.64 174.91H301.09C301.191 174.906 301.293 174.924 301.386 174.964C301.48 175.004 301.563 175.064 301.63 175.14C301.768 175.309 301.839 175.522 301.83 175.74C301.832 175.855 301.805 175.969 301.753 176.072C301.701 176.175 301.624 176.263 301.53 176.33C301.308 176.486 301.041 176.563 300.77 176.55H300.64Z" fill="black"/>
<path d="M308.15 176.62C307.245 176.64 306.351 176.419 305.56 175.98C304.82 175.57 304.21 174.96 303.8 174.22C303.38 173.421 303.16 172.533 303.16 171.63C303.16 170.728 303.38 169.839 303.8 169.04C304.212 168.299 304.821 167.687 305.56 167.27C306.347 166.838 307.232 166.617 308.13 166.63C309.021 166.616 309.901 166.837 310.68 167.27C311.419 167.689 312.031 168.301 312.45 169.04C312.892 169.835 313.12 170.731 313.11 171.64C313.129 172.542 312.908 173.432 312.47 174.22C312.054 174.964 311.441 175.579 310.7 176C309.92 176.43 309.04 176.644 308.15 176.62ZM308.15 175.15C308.76 175.163 309.362 175.007 309.89 174.7C310.394 174.401 310.806 173.968 311.08 173.45C311.376 172.894 311.525 172.27 311.51 171.64C311.524 171.003 311.376 170.374 311.08 169.81C310.806 169.292 310.394 168.859 309.89 168.56C309.359 168.265 308.762 168.11 308.155 168.11C307.548 168.11 306.951 168.265 306.42 168.56C305.917 168.864 305.503 169.295 305.22 169.81C304.92 170.373 304.769 171.003 304.78 171.64C304.769 172.271 304.92 172.895 305.22 173.45C305.503 173.965 305.917 174.396 306.42 174.7C306.939 175.002 307.53 175.158 308.13 175.15H308.15Z" fill="black"/>
<path d="M318.08 176.55C317.908 176.552 317.74 176.5 317.6 176.4C317.457 176.307 317.349 176.17 317.29 176.01L314.57 167.86C314.477 167.588 314.477 167.292 314.57 167.02C314.628 166.911 314.717 166.823 314.826 166.766C314.934 166.709 315.058 166.686 315.18 166.7C315.365 166.694 315.546 166.754 315.69 166.87C315.856 167.011 315.974 167.2 316.03 167.41L318.39 174.71H317.85L320.04 167.33C320.094 167.156 320.194 167.001 320.33 166.88C320.48 166.753 320.674 166.689 320.87 166.7C321.063 166.693 321.251 166.757 321.4 166.88C321.541 166.994 321.64 167.153 321.68 167.33L323.61 174.39H323.32L325.57 167.39C325.601 167.192 325.702 167.012 325.854 166.882C326.006 166.751 326.2 166.68 326.4 166.68C326.527 166.667 326.655 166.693 326.767 166.754C326.879 166.814 326.971 166.907 327.03 167.02C327.084 167.15 327.113 167.289 327.113 167.43C327.113 167.571 327.084 167.71 327.03 167.84L324.31 176C324.263 176.158 324.165 176.295 324.03 176.39C323.887 176.492 323.715 176.544 323.54 176.54C323.366 176.538 323.196 176.486 323.05 176.39C322.978 176.348 322.915 176.292 322.865 176.225C322.815 176.158 322.78 176.081 322.76 176L320.76 168.89H320.95L318.87 176C318.826 176.162 318.723 176.302 318.58 176.39C318.433 176.492 318.259 176.548 318.08 176.55Z" fill="black"/>
<path d="M333.71 168.49C333.61 168.495 333.509 168.479 333.415 168.445C333.321 168.411 333.234 168.358 333.16 168.29C333.09 168.225 333.035 168.146 332.999 168.058C332.963 167.97 332.946 167.875 332.95 167.78C332.947 167.683 332.964 167.587 333 167.498C333.036 167.408 333.091 167.327 333.16 167.26C333.234 167.192 333.321 167.139 333.415 167.105C333.509 167.071 333.61 167.055 333.71 167.06H338.26C338.465 167.054 338.665 167.126 338.82 167.26C338.889 167.327 338.944 167.408 338.98 167.498C339.016 167.587 339.033 167.683 339.03 167.78C339.034 167.875 339.017 167.97 338.981 168.058C338.945 168.146 338.89 168.225 338.82 168.29C338.665 168.424 338.465 168.496 338.26 168.49H333.71ZM335.45 176.55C335.34 176.554 335.231 176.534 335.129 176.493C335.028 176.452 334.936 176.389 334.86 176.31C334.782 176.233 334.721 176.141 334.68 176.04C334.638 175.938 334.618 175.829 334.62 175.72V166.72C334.606 165.942 334.774 165.172 335.11 164.47C335.446 163.806 335.995 163.274 336.67 162.96C337.542 162.567 338.494 162.382 339.45 162.42C339.939 162.414 340.427 162.474 340.9 162.6C341.268 162.69 341.611 162.865 341.9 163.11C342.015 163.203 342.107 163.32 342.171 163.454C342.235 163.587 342.269 163.732 342.27 163.88C342.27 164.41 341.96 164.67 341.33 164.67C341.113 164.673 340.899 164.618 340.71 164.51C340.52 164.397 340.336 164.274 340.16 164.14C339.97 164.002 339.769 163.878 339.56 163.77C339.33 163.658 339.076 163.603 338.82 163.61C338.382 163.606 337.949 163.698 337.55 163.88C337.137 164.08 336.805 164.415 336.61 164.83C336.351 165.425 336.232 166.072 336.26 166.72V175.72C336.263 175.939 336.181 176.151 336.03 176.31C335.954 176.387 335.864 176.447 335.764 176.488C335.665 176.53 335.558 176.551 335.45 176.55ZM341.28 176.55C341.171 176.553 341.063 176.534 340.962 176.494C340.861 176.455 340.768 176.396 340.69 176.32C340.613 176.241 340.553 176.147 340.513 176.044C340.473 175.941 340.455 175.83 340.46 175.72V167.53C340.454 167.419 340.471 167.309 340.51 167.205C340.55 167.102 340.611 167.008 340.69 166.93C340.855 166.782 341.069 166.701 341.29 166.701C341.511 166.701 341.725 166.782 341.89 166.93C341.965 167.01 342.024 167.104 342.062 167.207C342.099 167.311 342.116 167.42 342.11 167.53V175.72C342.119 175.941 342.04 176.157 341.89 176.32C341.809 176.398 341.714 176.459 341.609 176.498C341.504 176.538 341.392 176.555 341.28 176.55Z" fill="black"/>
<path d="M349.94 176.62C349.054 176.631 348.181 176.407 347.41 175.97C346.669 175.537 346.055 174.916 345.63 174.17C345.183 173.395 344.955 172.514 344.97 171.62C344.958 170.733 345.168 169.856 345.58 169.07C345.973 168.339 346.553 167.725 347.26 167.29C347.928 166.893 348.684 166.668 349.461 166.634C350.238 166.601 351.01 166.761 351.71 167.1C352.314 167.394 352.842 167.826 353.25 168.36V163.36C353.245 163.249 353.264 163.138 353.305 163.034C353.346 162.931 353.409 162.837 353.49 162.76C353.568 162.684 353.66 162.625 353.762 162.585C353.863 162.545 353.971 162.527 354.08 162.53C354.192 162.526 354.304 162.544 354.408 162.583C354.513 162.623 354.609 162.683 354.69 162.76C354.771 162.837 354.834 162.931 354.875 163.034C354.917 163.138 354.935 163.249 354.93 163.36V171.69C354.927 172.581 354.693 173.456 354.25 174.23C353.828 174.973 353.213 175.588 352.47 176.01C351.697 176.438 350.823 176.649 349.94 176.62ZM349.94 175.15C350.548 175.157 351.146 174.998 351.67 174.69C352.171 174.379 352.584 173.945 352.87 173.43C353.166 172.873 353.318 172.251 353.31 171.62C353.319 170.992 353.167 170.373 352.87 169.82C352.587 169.305 352.173 168.874 351.67 168.57C351.147 168.269 350.554 168.111 349.95 168.111C349.346 168.111 348.753 168.269 348.23 168.57C347.718 168.865 347.298 169.298 347.02 169.82C346.715 170.37 346.56 170.991 346.57 171.62C346.561 172.252 346.716 172.876 347.02 173.43C347.301 173.952 347.72 174.388 348.23 174.69C348.749 174.993 349.339 175.152 349.94 175.15Z" fill="black"/>
<path d="M362.74 176.62C361.819 176.641 360.909 176.42 360.1 175.98C359.351 175.571 358.732 174.962 358.31 174.22C357.869 173.433 357.645 172.542 357.66 171.64C357.644 170.736 357.853 169.842 358.27 169.04C358.665 168.307 359.253 167.695 359.97 167.27C360.731 166.836 361.594 166.615 362.47 166.63C363.309 166.61 364.137 166.825 364.86 167.25C365.526 167.664 366.063 168.256 366.41 168.96C366.782 169.744 366.966 170.603 366.95 171.47C366.953 171.566 366.935 171.662 366.899 171.752C366.863 171.841 366.809 171.922 366.74 171.99C366.667 172.059 366.581 172.113 366.486 172.147C366.391 172.182 366.291 172.196 366.19 172.19H358.8V170.86H366.21L365.47 171.38C365.471 170.79 365.344 170.207 365.1 169.67C364.883 169.191 364.537 168.782 364.1 168.49C363.622 168.188 363.065 168.035 362.5 168.05C361.877 168.033 361.263 168.196 360.73 168.52C360.234 168.83 359.835 169.273 359.58 169.8C359.312 170.376 359.179 171.005 359.19 171.64C359.177 172.277 359.336 172.906 359.65 173.46C359.944 173.992 360.38 174.432 360.91 174.73C361.476 175.051 362.119 175.213 362.77 175.2C363.18 175.196 363.586 175.122 363.97 174.98C364.329 174.871 364.667 174.702 364.97 174.48C365.122 174.353 365.312 174.279 365.51 174.27C365.692 174.263 365.87 174.324 366.01 174.44C366.174 174.579 366.278 174.776 366.3 174.99C366.304 175.091 366.284 175.191 366.24 175.281C366.197 175.372 366.131 175.451 366.05 175.51C365.104 176.208 363.965 176.596 362.79 176.62H362.74Z" fill="black"/>
<path d="M371.54 176.55C371.059 176.554 370.588 176.411 370.19 176.14C369.78 175.85 369.458 175.452 369.26 174.99C369.03 174.46 368.917 173.887 368.93 173.31V163.31C368.927 163.203 368.946 163.096 368.986 162.997C369.026 162.897 369.085 162.807 369.161 162.731C369.237 162.655 369.327 162.596 369.427 162.556C369.526 162.516 369.633 162.497 369.74 162.5C369.85 162.495 369.961 162.513 370.064 162.553C370.167 162.592 370.261 162.653 370.34 162.73C370.416 162.806 370.476 162.896 370.516 162.996C370.555 163.096 370.574 163.203 370.57 163.31V173.31C370.554 173.711 370.647 174.108 370.84 174.46C370.904 174.592 371.003 174.704 371.127 174.783C371.25 174.863 371.393 174.906 371.54 174.91H372C372.102 174.906 372.203 174.924 372.296 174.964C372.39 175.004 372.473 175.064 372.54 175.14C372.678 175.309 372.749 175.522 372.74 175.74C372.742 175.855 372.715 175.969 372.663 176.072C372.611 176.175 372.534 176.263 372.44 176.33C372.218 176.486 371.951 176.563 371.68 176.55H371.54Z" fill="black"/>
<path d="M375.61 165C375.465 165.003 375.321 164.976 375.187 164.921C375.053 164.866 374.931 164.784 374.83 164.68C374.727 164.576 374.645 164.453 374.59 164.317C374.535 164.182 374.508 164.036 374.51 163.89C374.505 163.744 374.531 163.598 374.588 163.463C374.645 163.329 374.731 163.208 374.84 163.11C375.051 162.903 375.335 162.788 375.63 162.79C375.915 162.793 376.188 162.908 376.39 163.11C376.499 163.208 376.585 163.329 376.642 163.463C376.699 163.598 376.725 163.744 376.72 163.89C376.723 164.037 376.696 164.182 376.641 164.318C376.586 164.454 376.505 164.577 376.401 164.681C376.297 164.785 376.174 164.866 376.038 164.921C375.902 164.976 375.757 165.003 375.61 165ZM375.61 176.56C375.497 176.564 375.383 176.546 375.277 176.507C375.171 176.468 375.073 176.407 374.99 176.33C374.838 176.168 374.755 175.952 374.76 175.73V167.54C374.755 167.43 374.773 167.319 374.813 167.216C374.853 167.113 374.913 167.019 374.99 166.94C375.073 166.863 375.171 166.803 375.277 166.763C375.383 166.724 375.497 166.706 375.61 166.71C375.719 166.707 375.827 166.726 375.928 166.766C376.029 166.805 376.122 166.864 376.2 166.94C376.279 167.018 376.34 167.112 376.38 167.215C376.419 167.319 376.436 167.429 376.43 167.54V175.73C376.435 175.84 376.417 175.951 376.377 176.054C376.338 176.157 376.277 176.251 376.2 176.33C376.045 176.474 375.841 176.553 375.63 176.55L375.61 176.56Z" fill="black"/>
<path d="M379.41 168.49C379.211 168.496 379.017 168.424 378.87 168.29C378.797 168.227 378.74 168.148 378.702 168.06C378.664 167.972 378.646 167.876 378.65 167.78C378.646 167.682 378.664 167.585 378.702 167.495C378.74 167.405 378.797 167.325 378.87 167.26C379.017 167.126 379.211 167.054 379.41 167.06H383.74C383.939 167.054 384.133 167.126 384.28 167.26C384.353 167.325 384.41 167.405 384.448 167.495C384.486 167.585 384.504 167.682 384.5 167.78C384.504 167.876 384.486 167.972 384.448 168.06C384.41 168.148 384.353 168.227 384.28 168.29C384.133 168.424 383.939 168.496 383.74 168.49H379.41ZM383.6 176.55C383.014 176.558 382.438 176.398 381.94 176.09C381.452 175.787 381.055 175.359 380.79 174.85C380.511 174.295 380.37 173.681 380.38 173.06V164.4C380.375 164.292 380.392 164.184 380.429 164.082C380.467 163.981 380.525 163.888 380.6 163.81C380.716 163.693 380.865 163.613 381.026 163.58C381.188 163.547 381.356 163.564 381.508 163.627C381.661 163.691 381.791 163.798 381.882 163.936C381.973 164.073 382.021 164.235 382.02 164.4V173.06C382.004 173.543 382.164 174.016 382.47 174.39C382.606 174.557 382.779 174.691 382.975 174.781C383.17 174.871 383.384 174.915 383.6 174.91H384.16C384.258 174.909 384.354 174.93 384.442 174.972C384.531 175.013 384.608 175.074 384.67 175.15C384.813 175.312 384.889 175.524 384.88 175.74C384.883 175.851 384.861 175.962 384.816 176.064C384.771 176.166 384.704 176.257 384.62 176.33C384.428 176.485 384.186 176.563 383.94 176.55H383.6Z" fill="black"/>
<path d="M390.94 176.19C390.847 176.231 390.747 176.252 390.645 176.252C390.543 176.252 390.443 176.231 390.35 176.19C390.161 176.106 390.009 175.957 389.92 175.77L385.83 167.77C385.783 167.679 385.759 167.578 385.759 167.475C385.759 167.372 385.783 167.271 385.83 167.18C385.868 167.083 385.927 166.996 386.003 166.925C386.079 166.854 386.17 166.801 386.27 166.77C386.358 166.723 386.455 166.694 386.555 166.686C386.655 166.677 386.755 166.689 386.85 166.72C386.946 166.758 387.034 166.814 387.108 166.886C387.182 166.958 387.24 167.045 387.28 167.14L391.22 175.14C391.333 175.322 391.376 175.539 391.34 175.75C391.32 175.853 391.273 175.949 391.202 176.026C391.131 176.104 391.041 176.161 390.94 176.19ZM388.86 180.85C388.729 180.845 388.6 180.815 388.48 180.76C388.38 180.732 388.288 180.681 388.21 180.611C388.133 180.541 388.073 180.455 388.034 180.358C387.996 180.262 387.98 180.158 387.987 180.054C387.995 179.95 388.027 179.85 388.08 179.76L393.7 167.19C393.733 167.093 393.786 167.004 393.857 166.93C393.928 166.856 394.014 166.799 394.109 166.762C394.204 166.724 394.307 166.709 394.409 166.715C394.511 166.722 394.61 166.751 394.7 166.8C394.803 166.824 394.899 166.872 394.98 166.941C395.06 167.009 395.124 167.095 395.165 167.193C395.206 167.291 395.223 167.396 395.215 167.502C395.208 167.607 395.175 167.71 395.12 167.8L389.48 180.35C389.44 180.487 389.359 180.607 389.248 180.697C389.137 180.786 389.002 180.84 388.86 180.85Z" fill="black"/>
<path d="M404.41 176.55C404.235 176.551 404.064 176.499 403.92 176.4C403.783 176.303 403.678 176.167 403.62 176.01L400.9 167.86C400.802 167.589 400.802 167.291 400.9 167.02C400.956 166.91 401.045 166.821 401.154 166.764C401.264 166.706 401.388 166.684 401.51 166.7C401.694 166.696 401.875 166.756 402.02 166.87C402.186 167.01 402.301 167.199 402.35 167.41L404.71 174.71H404.17L406.37 167.33C406.418 167.154 406.519 166.996 406.66 166.88C406.81 166.753 407.004 166.689 407.2 166.7C407.393 166.693 407.581 166.757 407.73 166.88C407.868 166.997 407.966 167.155 408.01 167.33L409.93 174.39H409.64L411.89 167.39C412.04 166.92 412.31 166.68 412.72 166.68C412.847 166.667 412.975 166.693 413.087 166.754C413.199 166.814 413.291 166.907 413.35 167.02C413.408 167.149 413.438 167.289 413.438 167.43C413.438 167.571 413.408 167.711 413.35 167.84L410.64 176C410.589 176.156 410.491 176.292 410.36 176.39C410.213 176.491 410.039 176.546 409.86 176.546C409.681 176.546 409.507 176.491 409.36 176.39C409.287 176.349 409.223 176.293 409.173 176.226C409.123 176.159 409.088 176.082 409.07 176L407.07 168.89H407.27L405.2 176C405.149 176.161 405.043 176.299 404.9 176.39C404.757 176.492 404.586 176.548 404.41 176.55Z" fill="black"/>
<path d="M416.4 165C416.255 165.003 416.111 164.976 415.977 164.921C415.843 164.866 415.721 164.784 415.62 164.68C415.517 164.576 415.435 164.453 415.38 164.317C415.325 164.182 415.298 164.036 415.3 163.89C415.295 163.744 415.321 163.598 415.378 163.463C415.435 163.329 415.521 163.208 415.63 163.11C415.836 162.905 416.115 162.791 416.405 162.791C416.695 162.791 416.974 162.905 417.18 163.11C417.289 163.208 417.375 163.329 417.432 163.463C417.489 163.598 417.515 163.744 417.51 163.89C417.512 164.036 417.485 164.182 417.43 164.317C417.375 164.453 417.293 164.576 417.19 164.68C417.088 164.785 416.965 164.868 416.829 164.923C416.693 164.978 416.547 165.004 416.4 165ZM416.4 176.56C416.289 176.567 416.177 176.551 416.073 176.512C415.968 176.473 415.873 176.412 415.794 176.334C415.714 176.255 415.652 176.161 415.612 176.057C415.572 175.953 415.554 175.841 415.56 175.73V167.54C415.555 167.43 415.573 167.319 415.613 167.216C415.653 167.113 415.713 167.019 415.79 166.94C415.957 166.792 416.172 166.71 416.395 166.71C416.618 166.71 416.833 166.792 417 166.94C417.077 167.019 417.137 167.113 417.177 167.216C417.217 167.319 417.235 167.43 417.23 167.54V175.73C417.236 175.841 417.218 175.951 417.179 176.054C417.139 176.158 417.078 176.251 417 176.33C416.921 176.408 416.828 176.469 416.724 176.509C416.621 176.548 416.511 176.566 416.4 176.56Z" fill="black"/>
<path d="M421.51 176.55C421.29 176.561 421.075 176.486 420.91 176.34C420.836 176.26 420.779 176.165 420.743 176.062C420.707 175.959 420.692 175.849 420.7 175.74V167.51C420.694 167.403 420.709 167.295 420.745 167.194C420.781 167.092 420.837 166.999 420.91 166.92C421.085 166.785 421.299 166.712 421.52 166.712C421.741 166.712 421.955 166.785 422.13 166.92C422.204 167.001 422.26 167.095 422.296 167.199C422.332 167.302 422.347 167.411 422.34 167.52V175.75C422.35 175.861 422.334 175.972 422.296 176.076C422.257 176.18 422.196 176.274 422.117 176.351C422.037 176.429 421.942 176.488 421.837 176.524C421.732 176.56 421.62 176.572 421.51 176.56V176.55ZM421.45 170.43C421.46 169.725 421.657 169.035 422.02 168.43C422.367 167.862 422.852 167.39 423.43 167.06C424.024 166.722 424.697 166.55 425.38 166.56C425.891 166.528 426.402 166.631 426.86 166.86C427.005 166.924 427.122 167.038 427.19 167.181C427.258 167.324 427.272 167.487 427.23 167.64C427.222 167.714 427.199 167.786 427.163 167.851C427.127 167.916 427.079 167.974 427.02 168.02C426.908 168.099 426.776 168.144 426.64 168.15C426.484 168.169 426.326 168.169 426.17 168.15C425.507 168.021 424.824 168.042 424.17 168.21C423.641 168.332 423.162 168.615 422.8 169.02C422.46 169.405 422.281 169.906 422.3 170.42L421.45 170.43Z" fill="black"/>
<path d="M433.82 176.62C432.899 176.641 431.989 176.42 431.18 175.98C430.431 175.571 429.812 174.962 429.39 174.22C428.949 173.433 428.725 172.542 428.74 171.64C428.724 170.736 428.933 169.842 429.35 169.04C429.746 168.307 430.333 167.695 431.05 167.27C431.811 166.836 432.674 166.615 433.55 166.63C434.389 166.61 435.217 166.825 435.94 167.25C436.609 167.661 437.146 168.254 437.49 168.96C437.862 169.744 438.046 170.603 438.03 171.47C438.033 171.566 438.016 171.662 437.979 171.752C437.943 171.841 437.889 171.922 437.82 171.99C437.749 172.059 437.664 172.113 437.571 172.147C437.478 172.182 437.379 172.196 437.28 172.19H429.88V170.86H437.29L436.56 171.38C436.552 170.79 436.423 170.208 436.18 169.67C435.966 169.189 435.619 168.78 435.18 168.49C434.702 168.188 434.145 168.035 433.58 168.05C432.957 168.035 432.343 168.198 431.81 168.52C431.314 168.83 430.915 169.273 430.66 169.8C430.392 170.376 430.259 171.005 430.27 171.64C430.257 172.277 430.416 172.906 430.73 173.46C431.024 173.992 431.46 174.432 431.99 174.73C432.556 175.051 433.199 175.213 433.85 175.2C434.242 175.197 434.63 175.129 435 175C435.359 174.891 435.697 174.722 436 174.5C436.155 174.378 436.343 174.305 436.54 174.29C436.722 174.283 436.9 174.344 437.04 174.46C437.204 174.599 437.308 174.796 437.33 175.01C437.334 175.111 437.314 175.211 437.27 175.301C437.227 175.392 437.161 175.471 437.08 175.53C436.134 176.228 434.995 176.616 433.82 176.64V176.62Z" fill="black"/>
<path d="M439.78 168.49C439.577 168.498 439.38 168.426 439.23 168.29C439.16 168.225 439.105 168.146 439.069 168.058C439.033 167.97 439.016 167.875 439.02 167.78C439.017 167.683 439.034 167.587 439.07 167.498C439.106 167.408 439.161 167.327 439.23 167.26C439.38 167.124 439.577 167.052 439.78 167.06H444.31C444.515 167.052 444.716 167.124 444.87 167.26C444.943 167.325 445 167.405 445.038 167.495C445.076 167.585 445.094 167.682 445.09 167.78C445.094 167.876 445.076 167.972 445.038 168.06C445 168.148 444.943 168.227 444.87 168.29C444.716 168.426 444.515 168.498 444.31 168.49H439.78ZM441.49 176.55C441.388 176.551 441.287 176.533 441.193 176.495C441.099 176.457 441.013 176.401 440.94 176.33C440.86 176.251 440.797 176.155 440.755 176.05C440.714 175.945 440.695 175.833 440.7 175.72V166.72C440.682 165.949 440.846 165.185 441.18 164.49C441.488 163.872 441.967 163.354 442.56 163C443.198 162.634 443.925 162.45 444.66 162.47C444.768 162.466 444.876 162.483 444.977 162.521C445.078 162.559 445.171 162.616 445.25 162.69C445.326 162.757 445.386 162.84 445.426 162.934C445.466 163.027 445.484 163.129 445.48 163.23C445.482 163.33 445.462 163.428 445.422 163.52C445.383 163.611 445.324 163.693 445.25 163.76C445.171 163.834 445.078 163.891 444.977 163.929C444.876 163.967 444.768 163.984 444.66 163.98C444.223 163.967 443.793 164.082 443.42 164.31C443.075 164.531 442.801 164.847 442.63 165.22C442.434 165.649 442.338 166.118 442.35 166.59V175.7C442.356 175.811 442.34 175.923 442.302 176.027C442.264 176.132 442.206 176.228 442.13 176.31C442.045 176.391 441.945 176.454 441.835 176.496C441.725 176.537 441.607 176.555 441.49 176.55Z" fill="black"/>
<path d="M447.79 176.55C447.681 176.556 447.572 176.541 447.469 176.505C447.366 176.469 447.271 176.413 447.19 176.34C447.116 176.26 447.059 176.165 447.023 176.062C446.987 175.959 446.972 175.849 446.98 175.74V167.51C446.973 167.403 446.989 167.295 447.025 167.194C447.061 167.092 447.117 166.999 447.19 166.92C447.27 166.846 447.365 166.788 447.468 166.75C447.571 166.712 447.68 166.695 447.79 166.7C447.902 166.692 448.015 166.707 448.121 166.743C448.227 166.779 448.326 166.836 448.41 166.91C448.482 166.992 448.537 167.087 448.571 167.19C448.605 167.293 448.619 167.402 448.61 167.51V175.74C448.618 175.847 448.604 175.954 448.57 176.055C448.535 176.157 448.481 176.25 448.41 176.33C448.328 176.408 448.23 176.468 448.123 176.506C448.017 176.544 447.903 176.559 447.79 176.55ZM447.73 170.43C447.74 169.725 447.937 169.035 448.3 168.43C448.648 167.853 449.142 167.376 449.731 167.048C450.321 166.72 450.986 166.552 451.66 166.56C452.171 166.528 452.682 166.631 453.14 166.86C453.285 166.924 453.402 167.038 453.47 167.181C453.538 167.324 453.552 167.487 453.51 167.64C453.502 167.714 453.479 167.786 453.443 167.851C453.407 167.916 453.358 167.974 453.3 168.02C453.188 168.099 453.056 168.144 452.92 168.15C452.764 168.169 452.606 168.169 452.45 168.15C451.787 168.021 451.104 168.042 450.45 168.21C449.92 168.33 449.44 168.613 449.08 169.02C448.736 169.404 448.553 169.905 448.57 170.42L447.73 170.43Z" fill="black"/>
<path d="M459.72 176.62C458.878 176.632 458.05 176.407 457.33 175.97C456.622 175.529 456.04 174.912 455.64 174.18C455.221 173.4 455.008 172.526 455.02 171.64C455.006 170.743 455.234 169.859 455.68 169.08C456.105 168.337 456.719 167.719 457.46 167.29C458.604 166.62 459.968 166.433 461.251 166.769C462.533 167.104 463.63 167.936 464.3 169.08C464.743 169.861 464.977 170.742 464.98 171.64L464.33 171.8C464.344 172.658 464.138 173.505 463.73 174.26C463.337 174.966 462.769 175.558 462.08 175.98C461.37 176.412 460.551 176.634 459.72 176.62ZM459.99 175.15C460.598 175.157 461.196 174.998 461.72 174.69C462.221 174.379 462.634 173.945 462.92 173.43C463.209 172.874 463.36 172.257 463.36 171.63C463.36 171.003 463.209 170.386 462.92 169.83C462.64 169.311 462.225 168.875 461.72 168.57C461.205 168.259 460.612 168.099 460.01 168.11C459.402 168.101 458.803 168.26 458.28 168.57C457.768 168.865 457.348 169.298 457.07 169.82C456.774 170.376 456.619 170.996 456.619 171.625C456.619 172.255 456.774 172.874 457.07 173.43C457.351 173.958 457.773 174.397 458.288 174.701C458.803 175.004 459.392 175.16 459.99 175.15ZM464.13 176.57C464.021 176.571 463.912 176.551 463.811 176.51C463.709 176.468 463.617 176.407 463.54 176.33C463.463 176.253 463.402 176.161 463.36 176.059C463.319 175.958 463.299 175.849 463.3 175.74V172.86L463.65 171.13L464.98 171.64V175.74C464.984 175.85 464.964 175.959 464.923 176.061C464.882 176.162 464.819 176.254 464.74 176.33C464.661 176.41 464.565 176.473 464.46 176.514C464.355 176.556 464.243 176.575 464.13 176.57Z" fill="black"/>
<path d="M468.52 176.57C468.411 176.571 468.302 176.551 468.201 176.51C468.099 176.468 468.007 176.407 467.93 176.33C467.853 176.253 467.792 176.161 467.75 176.059C467.709 175.958 467.689 175.849 467.69 175.74V167.55C467.685 167.439 467.704 167.327 467.745 167.224C467.786 167.12 467.849 167.027 467.93 166.95C468.008 166.874 468.1 166.814 468.202 166.775C468.303 166.735 468.411 166.717 468.52 166.72C468.632 166.716 468.743 166.734 468.848 166.773C468.953 166.813 469.049 166.873 469.13 166.95C469.205 167.03 469.264 167.124 469.302 167.227C469.339 167.331 469.356 167.44 469.35 167.55V175.74C469.356 175.851 469.338 175.961 469.299 176.064C469.259 176.168 469.198 176.261 469.12 176.34C469.041 176.418 468.948 176.479 468.844 176.519C468.741 176.558 468.63 176.576 468.52 176.57ZM474.66 176.57C474.551 176.571 474.442 176.551 474.341 176.51C474.239 176.468 474.147 176.407 474.07 176.33C473.993 176.253 473.932 176.161 473.89 176.059C473.849 175.958 473.829 175.849 473.83 175.74V170.57C473.875 169.911 473.659 169.261 473.23 168.76C473.029 168.551 472.786 168.387 472.517 168.278C472.248 168.17 471.96 168.119 471.67 168.13C471.361 168.12 471.053 168.175 470.767 168.292C470.481 168.409 470.223 168.586 470.01 168.81C469.789 169.043 469.617 169.318 469.504 169.619C469.391 169.919 469.338 170.239 469.35 170.56H468.27C468.268 169.846 468.44 169.143 468.77 168.51C469.07 167.931 469.526 167.446 470.086 167.111C470.645 166.775 471.287 166.602 471.94 166.61C472.588 166.599 473.226 166.761 473.79 167.08C474.33 167.402 474.764 167.875 475.04 168.44C475.354 169.105 475.508 169.835 475.49 170.57V175.74C475.493 175.849 475.475 175.957 475.435 176.058C475.396 176.16 475.336 176.252 475.26 176.33C475.183 176.411 475.09 176.474 474.986 176.515C474.883 176.556 474.771 176.575 474.66 176.57ZM480.76 176.57C480.651 176.573 480.542 176.553 480.441 176.512C480.339 176.472 480.247 176.41 480.17 176.333C480.093 176.255 480.033 176.162 479.994 176.06C479.954 175.958 479.936 175.849 479.94 175.74V170.57C479.982 169.91 479.763 169.26 479.33 168.76C479.129 168.551 478.886 168.387 478.617 168.278C478.348 168.17 478.06 168.119 477.77 168.13C477.463 168.119 477.157 168.176 476.874 168.295C476.591 168.414 476.337 168.593 476.13 168.82C475.691 169.31 475.461 169.953 475.49 170.61H474.08C474.081 169.88 474.263 169.162 474.61 168.52C474.932 167.928 475.418 167.442 476.01 167.12C476.621 166.78 477.31 166.604 478.01 166.61C478.658 166.598 479.297 166.76 479.86 167.08C480.4 167.402 480.834 167.875 481.11 168.44C481.424 169.105 481.578 169.835 481.56 170.57V175.74C481.565 175.848 481.548 175.956 481.51 176.058C481.473 176.159 481.415 176.252 481.34 176.33C481.265 176.408 481.175 176.469 481.075 176.51C480.975 176.551 480.868 176.572 480.76 176.57Z" fill="black"/>
<path d="M489.2 176.62C488.283 176.64 487.376 176.42 486.57 175.98C485.821 175.571 485.202 174.962 484.78 174.22C484.334 173.435 484.11 172.543 484.13 171.64C484.109 170.736 484.319 169.841 484.74 169.04C485.132 168.307 485.716 167.695 486.43 167.27C487.191 166.837 488.054 166.616 488.93 166.63C489.772 166.608 490.604 166.823 491.33 167.25C491.996 167.664 492.533 168.256 492.88 168.96C493.252 169.744 493.436 170.603 493.42 171.47C493.423 171.566 493.406 171.662 493.369 171.752C493.333 171.841 493.279 171.923 493.21 171.99C493.137 172.059 493.051 172.113 492.956 172.148C492.861 172.182 492.761 172.196 492.66 172.19H485.26V170.86H492.68L491.94 171.38C491.937 170.789 491.808 170.206 491.56 169.67C491.344 169.191 490.998 168.782 490.56 168.49C490.078 168.188 489.518 168.035 488.95 168.05C488.327 168.036 487.714 168.199 487.18 168.52C486.669 168.821 486.258 169.266 486 169.8C485.722 170.373 485.585 171.004 485.6 171.64C485.587 172.277 485.746 172.906 486.06 173.46C486.36 173.988 486.794 174.426 487.32 174.73C487.887 175.049 488.529 175.211 489.18 175.2C489.59 175.198 489.996 175.124 490.38 174.98C490.739 174.871 491.077 174.702 491.38 174.48C491.535 174.358 491.723 174.285 491.92 174.27C492.105 174.265 492.285 174.325 492.43 174.44C492.591 174.58 492.692 174.777 492.71 174.99C492.716 175.091 492.697 175.192 492.653 175.283C492.609 175.374 492.543 175.452 492.46 175.51C492.001 175.859 491.488 176.13 490.94 176.31C490.382 176.511 489.793 176.616 489.2 176.62Z" fill="black"/>
<path d="M499.28 176.62C498.514 176.626 497.753 176.501 497.03 176.25C496.401 176.055 495.829 175.712 495.36 175.25C495.286 175.17 495.229 175.075 495.195 174.972C495.16 174.868 495.148 174.758 495.16 174.65C495.197 174.42 495.322 174.213 495.509 174.073C495.695 173.933 495.929 173.871 496.16 173.9C496.369 173.923 496.561 174.022 496.7 174.18C496.979 174.48 497.321 174.715 497.7 174.87C498.183 175.065 498.699 175.163 499.22 175.16C499.826 175.203 500.431 175.067 500.96 174.77C501.142 174.674 501.295 174.53 501.401 174.354C501.508 174.178 501.564 173.976 501.564 173.77C501.564 173.564 501.508 173.362 501.401 173.186C501.295 173.01 501.142 172.866 500.96 172.77C500.349 172.41 499.666 172.192 498.96 172.13C498.004 172.008 497.095 171.643 496.32 171.07C496.058 170.86 495.848 170.593 495.704 170.29C495.56 169.987 495.487 169.655 495.49 169.32C495.469 168.768 495.651 168.228 496 167.8C496.362 167.385 496.828 167.074 497.35 166.9C498.607 166.471 499.975 166.502 501.21 166.99C501.773 167.219 502.268 167.587 502.65 168.06C502.723 168.133 502.78 168.221 502.816 168.317C502.852 168.414 502.867 168.517 502.86 168.62C502.848 168.717 502.815 168.81 502.763 168.893C502.711 168.976 502.642 169.047 502.56 169.1C502.375 169.214 502.153 169.253 501.94 169.21C501.719 169.178 501.514 169.072 501.36 168.91C501.084 168.613 500.741 168.387 500.36 168.25C499.95 168.115 499.521 168.051 499.09 168.06C498.594 168.042 498.101 168.152 497.66 168.38C497.491 168.46 497.349 168.586 497.248 168.744C497.147 168.901 497.092 169.083 497.09 169.27C497.08 169.495 497.147 169.717 497.28 169.9C497.469 170.123 497.714 170.292 497.99 170.39C498.471 170.578 498.97 170.716 499.48 170.8C500.222 170.914 500.943 171.136 501.62 171.46C502.075 171.688 502.462 172.033 502.74 172.46C502.969 172.84 503.086 173.276 503.08 173.72C503.089 174.253 502.928 174.775 502.62 175.21C502.283 175.661 501.825 176.007 501.3 176.21C500.662 176.485 499.975 176.625 499.28 176.62Z" fill="black"/>
</svg>
