<?xml version="1.0" standalone="no"?>
<!DOCTYPE svg PUBLIC "-//W3C//DTD SVG 20010904//EN"
 "http://www.w3.org/TR/2001/REC-SVG-20010904/DTD/svg10.dtd">
<svg version="1.0" xmlns="http://www.w3.org/2000/svg"
 width="1224.000000pt" height="1224.000000pt" viewBox="0 0 1224.000000 1224.000000"
 preserveAspectRatio="xMidYMid meet">
<metadata>
Created by potrace 1.14, written by Peter Selinger 2001-2017
</metadata>
<g transform="translate(0.000000,1224.000000) scale(0.100000,-0.100000)"
fill="#000000" stroke="none">
<path d="M5878 12235 c-2 -2 -42 -6 -90 -10 -47 -3 -95 -7 -105 -9 -10 -2 -49
-7 -87 -10 -38 -4 -73 -9 -77 -11 -3 -3 -26 -7 -50 -10 -50 -5 -93 -12 -129
-21 -14 -4 -34 -8 -45 -9 -11 -2 -76 -17 -145 -35 -69 -17 -132 -33 -140 -35
-8 -2 -15 -4 -15 -5 0 -1 -7 -3 -15 -5 -8 -2 -37 -11 -64 -20 -26 -9 -56 -18
-65 -20 -9 -2 -52 -17 -96 -34 -44 -17 -82 -31 -86 -31 -4 0 -28 -10 -55 -22
-27 -12 -51 -23 -54 -23 -3 0 -27 -11 -54 -23 -27 -12 -52 -22 -57 -22 -5 0
-9 -5 -9 -12 0 -6 -3 -9 -6 -5 -6 6 -145 -62 -249 -121 -133 -76 -200 -117
-203 -124 -2 -5 -8 -8 -14 -8 -6 0 -39 -20 -75 -45 -35 -25 -66 -45 -68 -45
-3 0 -13 -7 -22 -16 -10 -8 -49 -38 -88 -67 -38 -28 -75 -56 -82 -62 -6 -5
-24 -20 -40 -32 -117 -90 -406 -366 -508 -488 -39 -46 -56 -67 -94 -111 -10
-12 -47 -59 -82 -105 -35 -46 -67 -85 -71 -87 -5 -2 -8 -10 -8 -17 0 -7 -3
-15 -7 -17 -9 -4 -88 -122 -188 -283 -32 -51 -84 -147 -112 -207 -14 -32 -30
-58 -35 -58 -4 0 -8 -6 -8 -14 0 -7 -18 -53 -41 -102 -22 -49 -47 -105 -56
-124 -8 -19 -18 -44 -23 -55 -11 -27 -65 -177 -85 -240 -9 -27 -18 -57 -21
-65 -3 -8 -5 -16 -5 -17 -1 -2 -7 -26 -15 -55 -8 -29 -17 -60 -19 -68 -11 -39
-45 -183 -50 -208 -3 -15 -7 -40 -10 -57 -3 -16 -8 -38 -11 -48 -3 -10 -7 -38
-9 -63 -3 -24 -6 -48 -9 -52 -2 -4 -7 -39 -11 -77 -4 -39 -9 -77 -10 -86 -19
-101 -27 -613 -12 -764 4 -38 9 -97 12 -130 3 -33 7 -71 10 -85 2 -14 7 -43
10 -65 3 -23 8 -52 11 -65 3 -14 7 -38 9 -55 6 -45 12 -75 24 -130 6 -27 14
-61 17 -75 3 -14 14 -59 25 -100 11 -41 21 -82 23 -90 3 -8 9 -27 15 -42 6
-16 9 -28 6 -28 -2 0 3 -17 11 -37 9 -20 18 -46 20 -56 4 -21 30 -98 45 -132
5 -11 22 -54 38 -95 16 -41 37 -93 47 -115 10 -22 18 -42 19 -45 6 -36 224
-440 257 -476 10 -11 18 -24 18 -28 0 -6 92 -147 112 -171 5 -5 27 -35 48 -65
46 -63 80 -106 98 -125 6 -8 12 -18 12 -24 0 -6 3 -11 8 -11 4 0 32 -30 62
-67 119 -143 404 -420 532 -515 20 -15 42 -33 50 -40 19 -18 69 -60 102 -83
15 -11 36 -27 46 -35 254 -210 435 -386 562 -546 27 -32 52 -64 58 -71 25 -30
125 -192 141 -228 10 -23 22 -44 26 -49 4 -4 8 -11 9 -14 0 -4 12 -33 27 -65
50 -110 97 -279 123 -447 10 -60 13 -101 19 -255 5 -127 10 -158 30 -202 28
-63 77 -112 142 -143 l48 -24 1145 -1 c1226 -1 1182 -3 1267 47 32 19 90 87
85 101 -1 4 2 7 7 7 16 0 31 92 36 230 3 74 8 151 11 170 2 19 6 51 8 70 7 56
14 89 41 190 13 52 27 104 30 115 13 53 101 251 138 309 7 11 27 45 46 75 39
65 138 198 190 256 57 63 292 295 352 346 63 54 222 186 294 244 28 22 52 43
53 47 2 5 8 8 13 8 6 0 20 10 33 22 13 13 47 43 77 68 50 41 322 313 379 378
89 102 195 237 250 317 18 28 37 52 40 55 8 6 144 222 188 300 37 65 161 314
192 385 50 116 137 354 155 425 2 8 14 49 25 90 12 41 23 82 25 90 2 8 8 33
14 55 5 22 13 56 16 75 3 19 10 51 15 70 9 36 14 63 25 140 4 24 8 47 10 50 2
3 6 35 9 70 3 36 8 75 11 88 18 97 27 657 11 797 -3 33 -8 83 -11 110 -2 28
-7 66 -10 85 -3 19 -8 53 -11 75 -13 89 -17 114 -33 190 -6 28 -13 61 -15 75
-39 195 -163 573 -253 770 -49 108 -141 287 -198 385 -52 90 -209 333 -224
345 -12 10 -71 89 -71 95 0 4 -12 20 -27 35 -39 41 -53 58 -53 65 0 4 -8 14
-18 23 -10 10 -52 55 -93 101 -102 116 -304 316 -386 381 -10 8 -43 36 -73 61
-62 52 -258 199 -265 199 -3 0 -28 16 -56 36 -56 41 -207 134 -216 134 -4 0
-14 6 -22 14 -46 41 -463 233 -635 293 -192 67 -453 138 -581 158 -11 2 -33 6
-50 9 -16 3 -41 8 -55 10 -35 7 -242 34 -260 34 -8 1 -37 4 -65 7 -52 7 -591
15 -597 10z m557 -568 c12 -3 52 -8 90 -12 68 -6 89 -9 158 -21 17 -3 43 -7
57 -9 71 -12 98 -17 135 -27 38 -10 56 -14 100 -22 88 -17 392 -119 515 -173
75 -33 337 -164 375 -188 22 -14 55 -32 73 -42 17 -9 32 -20 32 -25 0 -4 5 -8
12 -8 6 0 26 -11 44 -25 18 -14 37 -25 42 -25 6 0 12 -3 14 -7 2 -5 29 -26 60
-47 32 -21 65 -46 75 -55 10 -9 36 -30 59 -46 23 -17 63 -48 90 -70 49 -41
377 -365 404 -401 18 -22 145 -181 165 -206 63 -77 226 -344 307 -503 50 -98
122 -263 119 -273 -1 -1 5 -15 14 -31 28 -56 119 -343 139 -441 3 -14 12 -56
21 -95 8 -38 17 -83 19 -100 3 -16 6 -39 9 -50 8 -38 19 -116 33 -250 8 -70
12 -598 5 -610 -3 -5 -6 -23 -7 -40 -3 -43 -12 -124 -18 -167 -3 -21 -8 -53
-11 -70 -2 -18 -7 -44 -10 -58 -7 -35 -12 -59 -20 -105 -7 -39 -31 -137 -61
-245 -22 -80 -94 -290 -111 -323 -7 -15 -10 -27 -6 -27 5 0 3 -4 -2 -8 -6 -4
-21 -34 -34 -67 -14 -33 -29 -63 -35 -67 -6 -4 -8 -8 -4 -8 9 0 -73 -164 -84
-168 -4 -2 -6 -7 -3 -11 2 -5 -7 -23 -20 -41 -14 -19 -25 -37 -25 -42 0 -23
-221 -347 -295 -433 -11 -13 -29 -35 -39 -50 -11 -14 -33 -41 -50 -59 -17 -18
-58 -63 -90 -99 -33 -37 -64 -67 -70 -67 -11 0 -67 58 -447 462 -21 22 -88 93
-150 160 -63 66 -134 142 -159 168 -39 41 -228 241 -330 350 -19 21 -91 97
-160 170 -69 72 -142 151 -164 173 -21 23 -78 83 -125 133 -78 83 -284 302
-371 394 -79 84 -309 327 -357 378 -29 31 -53 58 -53 62 0 10 -106 71 -136 77
-41 8 -146 6 -153 -4 -3 -4 -13 -9 -21 -11 -58 -12 -141 -103 -161 -176 -32
-113 -1 -207 103 -317 59 -62 250 -264 349 -370 68 -73 180 -191 324 -344 73
-77 154 -163 181 -192 57 -60 261 -277 319 -339 107 -114 257 -272 315 -334
36 -37 117 -123 180 -191 63 -67 134 -142 157 -167 24 -24 85 -90 137 -146 53
-55 140 -148 195 -206 l101 -105 -29 -25 c-16 -14 -48 -41 -71 -60 -146 -121
-207 -177 -355 -325 -82 -82 -170 -174 -195 -204 -25 -29 -49 -59 -55 -65 -44
-50 -176 -240 -205 -296 -7 -14 -16 -27 -19 -30 -20 -16 -161 -317 -161 -343
0 -5 -6 -23 -14 -40 -14 -31 -44 -127 -50 -157 -1 -8 -8 -33 -14 -55 -9 -35
-17 -72 -27 -140 -2 -11 -6 -33 -9 -50 -6 -28 -18 -134 -19 -162 0 -7 -3 -14
-6 -14 -19 -4 -1644 -3 -1649 1 -9 6 -10 14 -16 81 -2 30 -7 65 -10 79 -3 14
-8 41 -11 60 -2 19 -7 46 -10 60 -3 14 -8 38 -11 54 -2 16 -7 33 -9 36 -3 4
-7 24 -11 44 -3 20 -14 61 -24 91 -10 29 -16 56 -13 59 4 3 2 6 -4 6 -6 0 -14
15 -17 33 -3 17 -19 60 -36 95 -16 34 -29 65 -29 67 0 11 -76 160 -83 163 -5
2 -8 8 -8 13 0 6 -16 35 -35 65 -19 30 -35 58 -35 63 0 5 -4 11 -8 13 -5 2
-23 26 -42 53 -145 214 -409 491 -678 711 -13 10 -33 27 -45 38 -12 10 -38 30
-57 45 -19 14 -37 28 -40 31 -3 3 -50 42 -105 87 -166 133 -330 288 -445 418
-29 33 -65 74 -79 90 -83 95 -271 366 -346 500 -83 147 -226 453 -241 514 -2
9 -19 61 -38 116 -48 140 -123 438 -125 495 0 8 -5 42 -11 75 -17 92 -26 182
-35 345 -3 63 -8 116 -10 118 -2 2 1 17 5 33 5 17 5 31 -1 35 -5 3 -7 9 -5 13
3 4 7 65 10 137 6 137 11 201 21 274 4 25 9 61 11 80 3 19 9 58 15 86 5 28 12
64 15 80 12 68 47 220 57 244 6 16 39 128 42 145 8 39 89 250 130 339 14 31
26 59 26 63 1 12 33 67 42 74 5 3 8 9 7 13 -2 10 89 177 151 277 134 216 311
439 501 630 92 92 111 109 233 215 183 158 456 338 680 447 126 61 273 128
290 132 6 1 17 5 25 8 92 34 248 87 273 91 7 1 37 9 67 18 58 16 176 44 223
52 15 3 53 10 85 15 31 6 79 13 107 17 27 3 61 8 75 10 14 2 61 6 105 9 44 4
81 8 83 10 5 4 506 -3 527 -8z"/>
<path d="M6007 10544 c-1 -1 -38 -5 -82 -8 -44 -2 -80 -5 -80 -6 0 -1 -11 -3
-25 -4 -67 -7 -139 -18 -175 -28 -22 -6 -49 -11 -60 -13 -25 -3 -115 -25 -135
-32 -8 -3 -21 -7 -27 -9 -34 -7 -155 -49 -215 -74 -38 -16 -68 -26 -68 -23 0
3 -9 -2 -21 -13 -12 -10 -24 -18 -28 -17 -8 3 -175 -80 -179 -89 -2 -5 -8 -8
-13 -8 -19 0 -222 -135 -320 -212 -77 -61 -118 -97 -214 -193 -103 -103 -259
-287 -286 -338 -7 -12 -15 -24 -19 -27 -18 -12 -188 -309 -196 -340 0 -3 -13
-31 -27 -63 -15 -32 -27 -60 -27 -63 0 -3 -6 -20 -14 -37 -36 -81 -102 -298
-111 -365 -2 -15 -4 -27 -5 -27 -1 0 -3 -9 -5 -20 -2 -11 -7 -36 -10 -55 -11
-58 -14 -73 -20 -120 -12 -97 -16 -191 -15 -330 1 -169 4 -217 26 -360 4 -30
9 -63 10 -72 1 -10 3 -20 4 -23 1 -3 4 -14 5 -25 1 -11 3 -21 5 -22 2 -4 6
-19 25 -103 14 -59 68 -230 76 -240 5 -5 9 -17 9 -27 0 -10 4 -26 10 -36 5 -9
26 -53 46 -97 57 -128 66 -146 107 -215 48 -80 120 -193 127 -200 3 -3 30 -39
61 -80 106 -141 261 -302 410 -425 53 -45 238 -173 304 -212 64 -37 193 -106
205 -109 3 0 32 -13 65 -29 75 -34 275 -106 275 -98 0 3 6 1 13 -5 6 -6 14
-10 17 -10 3 1 21 -4 40 -10 38 -12 223 -51 280 -58 149 -20 197 -24 315 -25
124 -1 134 1 192 31 161 83 195 299 69 438 -52 58 -117 82 -234 88 -186 9
-238 15 -357 40 -38 8 -81 17 -93 20 -57 12 -244 79 -330 120 -154 71 -358
203 -452 290 -114 105 -253 254 -274 292 -5 9 -12 19 -16 22 -16 12 -113 166
-159 251 -44 84 -128 279 -136 319 -2 8 -13 50 -25 92 -64 233 -81 518 -44
768 6 47 12 79 19 115 4 17 8 39 9 50 2 11 6 27 9 35 2 8 14 47 26 85 31 101
87 244 111 285 5 8 18 34 29 56 77 166 276 416 458 575 81 70 267 199 289 199
8 0 14 4 14 8 0 8 51 36 59 32 2 -1 7 2 10 7 5 7 73 43 91 48 3 1 16 6 30 12
58 25 136 55 150 58 8 2 34 10 58 19 23 8 44 15 47 16 3 0 6 0 8 1 6 2 35 8
66 14 19 3 37 8 41 10 3 2 29 7 56 11 27 3 52 8 55 10 12 7 188 18 284 18 96
0 240 -10 287 -20 13 -2 37 -6 53 -9 75 -13 243 -55 285 -72 8 -4 18 -7 23 -8
4 -2 9 -4 12 -5 3 -1 8 -3 13 -5 102 -28 368 -175 497 -274 94 -72 245 -214
300 -282 76 -93 98 -122 144 -191 28 -42 51 -81 51 -87 0 -6 4 -11 8 -11 4 0
26 -37 47 -82 22 -46 45 -86 50 -90 6 -4 7 -8 2 -8 -4 0 2 -19 14 -41 11 -23
22 -49 25 -58 2 -9 16 -50 30 -91 14 -41 28 -84 31 -95 6 -26 20 -85 26 -110
5 -20 18 -96 23 -125 6 -48 15 -158 19 -240 5 -111 7 -123 23 -142 6 -8 10
-17 7 -20 -3 -3 19 -32 50 -64 30 -32 55 -56 55 -51 0 4 11 0 24 -8 31 -21 60
-27 128 -26 105 0 197 60 244 159 22 47 26 69 26 142 0 85 -9 243 -17 290 -2
14 -9 54 -14 90 -27 167 -87 381 -150 535 -65 160 -246 477 -330 577 -119 143
-160 188 -254 281 -60 59 -112 107 -115 107 -4 0 -26 18 -50 40 -24 22 -45 40
-48 40 -3 0 -25 16 -48 35 -24 19 -48 35 -55 35 -6 0 -11 3 -11 8 0 4 -16 16
-35 26 -19 11 -35 23 -35 28 0 4 -5 8 -10 8 -6 0 -29 12 -53 27 -92 58 -303
157 -432 203 -174 61 -344 102 -525 126 -94 12 -424 26 -433 18z"/>
<path d="M5247 2404 c-3 -4 -57 -7 -119 -8 -120 -2 -171 -17 -228 -68 -176
-157 -92 -445 140 -483 19 -3 36 -8 38 -10 2 -2 17 1 33 5 16 5 31 5 33 2 3
-6 262 -7 276 -2 3 1 9 2 15 0 28 -5 152 -3 163 4 7 4 12 4 12 -1 0 -10 273
-8 290 2 7 5 11 4 8 -1 -4 -5 9 -9 27 -9 18 0 31 3 28 7 -2 5 6 4 19 0 24 -8
79 -7 103 1 7 3 16 3 19 0 9 -10 276 -9 276 0 0 5 5 5 10 2 15 -9 153 -10 168
-1 7 4 12 4 12 -1 0 -10 273 -8 290 2 7 5 11 4 8 -1 -4 -5 9 -9 27 -9 18 0 31
4 28 9 -4 5 0 6 7 1 15 -10 153 -10 169 -1 6 4 11 3 11 -2 0 -6 16 -6 43 0
140 31 230 135 230 268 0 99 -20 151 -82 208 -70 65 -102 75 -242 77 -70 1
-132 5 -138 9 -6 4 -11 4 -11 -1 0 -10 -282 -9 -298 1 -7 4 -12 4 -12 -1 0 -4
-16 -8 -35 -8 -19 0 -35 4 -35 8 0 5 -5 5 -11 1 -16 -10 -130 -11 -136 -1 -2
4 -9 4 -15 1 -16 -10 -210 -11 -230 -2 -10 5 -18 5 -18 1 0 -10 -142 -9 -158
1 -7 4 -12 4 -12 -1 0 -4 -49 -8 -110 -8 -60 0 -110 4 -110 8 0 5 -5 5 -11 1
-16 -10 -130 -11 -136 -1 -2 4 -9 4 -15 1 -15 -10 -141 -10 -156 0 -7 4 -12 4
-12 -1 0 -10 -121 -10 -136 0 -6 3 -14 4 -17 1z"/>
<path d="M5218 1485 c-3 -3 -45 -6 -94 -7 -97 -1 -149 -15 -206 -54 -36 -25
-88 -90 -92 -116 -1 -7 -5 -19 -9 -25 -11 -18 -15 -133 -5 -139 5 -3 6 -10 2
-15 -7 -12 39 -91 75 -128 16 -16 42 -36 59 -45 45 -23 112 -45 112 -36 0 4
15 5 33 1 17 -4 46 -4 63 -1 17 4 39 5 50 3 10 -2 49 -3 87 -3 74 1 80 1 150
-1 27 -1 51 1 53 4 3 3 18 1 34 -3 20 -6 30 -5 34 3 2 7 5 7 5 2 1 -11 74 -11
90 0 5 3 12 1 16 -5 4 -6 11 -8 16 -4 6 3 36 5 67 4 31 -1 63 -1 70 -1 13 1
34 1 57 1 8 -1 30 -1 48 -1 17 0 46 -1 62 -2 17 -1 40 1 52 5 12 4 25 3 28 -1
3 -5 20 -6 38 -2 18 5 41 6 52 4 11 -2 50 -3 88 -3 37 0 74 0 82 0 8 0 22 0
30 0 8 -1 30 -1 48 -1 17 0 46 -1 62 -2 17 -1 40 1 52 5 12 4 25 3 28 -1 3 -5
20 -6 38 -2 18 5 41 6 52 4 11 -2 25 -4 30 -4 6 0 28 0 50 0 22 1 54 0 70 -2
17 -1 40 1 52 5 12 4 25 3 28 -1 3 -5 20 -6 38 -2 18 5 41 6 52 4 23 -5 26 -5
85 -4 99 2 98 2 159 21 53 17 120 79 151 140 23 45 31 144 17 198 -15 57 -88
152 -117 152 -6 0 -10 4 -10 9 0 16 -91 39 -151 37 -32 0 -59 3 -59 7 0 5 -5
5 -11 2 -5 -4 -88 -6 -182 -6 -217 2 -269 1 -279 -5 -4 -3 -8 -1 -8 5 0 6 -7
8 -15 5 -19 -8 -285 -11 -285 -3 0 3 -24 2 -52 -2 -29 -3 -57 -4 -62 -1 -8 5
-37 4 -169 -1 -20 -1 -37 1 -37 4 0 3 -24 2 -52 -2 -29 -3 -59 -3 -67 1 -7 4
-30 4 -51 0 -21 -4 -43 -4 -49 0 -6 3 -36 3 -66 0 -30 -3 -55 -2 -55 3 0 4 -5
5 -11 2 -13 -8 -344 -9 -357 -1 -5 3 -11 3 -14 1z"/>
<path d="M5660 563 c0 -4 -20 -9 -44 -10 -121 -5 -237 -136 -238 -266 -2 -113
55 -206 157 -261 39 -21 47 -21 560 -21 519 0 520 0 562 22 63 34 128 104 138
150 2 10 8 32 13 48 14 45 5 119 -20 171 -44 94 -129 153 -230 160 -33 2 -63
6 -68 9 -5 3 -11 1 -14 -4 -3 -5 -21 -6 -39 -2 -18 5 -41 6 -52 4 -11 -2 -33
-3 -50 -3 -16 1 -37 1 -45 1 -82 -3 -131 -1 -140 4 -5 3 -10 3 -10 -2 0 -4
-19 -7 -42 -6 -24 2 -81 3 -128 3 -47 -1 -93 0 -102 0 -36 0 -55 0 -120 -1
-37 0 -72 2 -78 6 -5 3 -10 3 -10 -2z"/>
</g>
</svg>
