<svg xmlns="http://www.w3.org/2000/svg" xmlns:xlink="http://www.w3.org/1999/xlink" viewBox="0 0 619.28 53.94"><defs><style>.cls-1{fill:#d9d9d9;}.cls-2{fill:#ff0606;}.cls-10,.cls-2,.cls-3,.cls-4,.cls-5{stroke:#000;}.cls-3{fill:#ebfb3b;}.cls-4{fill:#149c22;}.cls-10,.cls-5{fill:none;}.cls-6{mask:url(#mask);}.cls-7{fill:#1c1b1f;}.cls-8{mask:url(#mask-2);}.cls-9{mask:url(#mask-3);}.cls-10{stroke-miterlimit:10;}</style><mask id="mask" x="9.71" y="29.12" width="9.58" height="9.79" maskUnits="userSpaceOnUse"><g id="mask0_143_4" data-name="mask0 143 4"><rect class="cls-1" x="9.71" y="29.12" width="9.58" height="9.79"/></g></mask><mask id="mask-2" x="28.23" y="29.12" width="9.58" height="9.79" maskUnits="userSpaceOnUse"><g id="mask1_143_4" data-name="mask1 143 4"><rect class="cls-1" x="28.23" y="29.12" width="9.58" height="9.79"/></g></mask><mask id="mask-3" x="46.8" y="29.12" width="9.58" height="9.79" maskUnits="userSpaceOnUse"><g id="mask2_143_4" data-name="mask2 143 4"><rect class="cls-1" x="46.8" y="29.12" width="9.58" height="9.79"/></g></mask></defs><g id="Capa_2" data-name="Capa 2"><g id="Capa_1-2" data-name="Capa 1"><path class="cls-2" d="M15.06,6.19a3.09,3.09,0,1,1-6.18,0,3.09,3.09,0,1,1,6.18,0Z"/><path class="cls-3" d="M27.83,6.19a3.09,3.09,0,1,1-6.18,0,3.09,3.09,0,1,1,6.18,0Z"/><path class="cls-4" d="M40.6,6.19a3.09,3.09,0,1,1-6.18,0,3.09,3.09,0,1,1,6.18,0Z"/><line class="cls-5" y1="53.43" x2="619.28" y2="53.43"/><rect class="cls-5" x="67.54" y="26.69" width="538.47" height="14.5" rx="7.25"/><path d="M78,37.45a.36.36,0,0,1-.36-.3,7.22,7.22,0,0,1-.16-.93,7.55,7.55,0,0,1-.07-.95V35c0-.15,0-.25,0-.32,0-.5-.13-.75-.37-.75a1.12,1.12,0,0,0-.88.46,5.15,5.15,0,0,0-.55.9A7,7,0,0,1,75.53,37a.36.36,0,0,1-.34.25.41.41,0,0,1-.28-.11.39.39,0,0,1-.13-.27,1,1,0,0,1,0-.18,3.6,3.6,0,0,0,0-.58v-.59l0-2.93c0-.33,0-.55,0-.66a1.61,1.61,0,0,0,0-.39,2.22,2.22,0,0,1,0-.37.38.38,0,0,1,.11-.28.41.41,0,0,1,.28-.11.35.35,0,0,1,.37.35,4.73,4.73,0,0,1,.07.7q0,.42,0,.87c0,.29,0,.58,0,.87V34a2.42,2.42,0,0,1,.68-.65,1.49,1.49,0,0,1,.78-.22.93.93,0,0,1,.89.43,2.35,2.35,0,0,1,.19,1l0,.76.08.83c0,.31.08.58.13.82a.3.3,0,0,1,0,.12.34.34,0,0,1-.12.27A.39.39,0,0,1,78,37.45Z"/><path d="M82,33.81H81.6l-.53.06.07,2.36v.37c0,.59-.13.88-.41.88a.37.37,0,0,1-.27-.11.32.32,0,0,1-.12-.26c0-.1,0-.25,0-.45s0-.35,0-.45l-.08-2.33-.87-.07a.35.35,0,0,1-.34-.39.39.39,0,0,1,.1-.29.34.34,0,0,1,.27-.12l.82.07c0-.14,0-.32,0-.54s0-.4,0-.5a.34.34,0,0,1,.12-.27.33.33,0,0,1,.27-.11c.24,0,.37.19.41.58,0,.1,0,.22,0,.36v.47L81.6,33a2,2,0,0,1,.53,0,.36.36,0,0,1,.23.38.39.39,0,0,1-.11.29A.37.37,0,0,1,82,33.81Z"/><path d="M85.75,33.81h-.39l-.53.06.07,2.36v.37c0,.59-.12.88-.41.88a.4.4,0,0,1-.27-.11.31.31,0,0,1-.11-.26c0-.1,0-.25,0-.45s0-.35,0-.45l-.08-2.33-.86-.07a.36.36,0,0,1-.35-.39.4.4,0,0,1,.11-.29.34.34,0,0,1,.26-.12l.82.07c0-.14,0-.32,0-.54s0-.4,0-.5a.38.38,0,0,1,.39-.38c.23,0,.37.19.41.58,0,.1,0,.22,0,.36v.47l.55-.06a2,2,0,0,1,.53,0,.35.35,0,0,1,.24.38.44.44,0,0,1-.11.29A.37.37,0,0,1,85.75,33.81Z"/><path d="M88.56,37.34a3.1,3.1,0,0,1-.86-.13v1.91a.41.41,0,0,1-.1.29.39.39,0,0,1-.28.11.37.37,0,0,1-.27-.11.42.42,0,0,1-.11-.29V35.94c0-.59,0-1.12-.06-1.59l0-.81a1,1,0,0,1,.1-.48.36.36,0,0,1,.34-.24.32.32,0,0,1,.25.12.35.35,0,0,1,.1.26.72.72,0,0,1,0,.13,2.15,2.15,0,0,0,0,.23,2.72,2.72,0,0,1,.64-.35,1.69,1.69,0,0,1,.6-.12,1.23,1.23,0,0,1,1.17.73,3.38,3.38,0,0,1,.29,1.51,2.18,2.18,0,0,1-.45,1.42A1.55,1.55,0,0,1,88.56,37.34Zm.27-3.45a1.28,1.28,0,0,0-.65.16,3,3,0,0,0-.52.42c0,.61,0,1.24,0,1.9a2.15,2.15,0,0,0,.85.17.84.84,0,0,0,.74-.37,1.42,1.42,0,0,0,.23-.84,2.51,2.51,0,0,0-.18-1.08A.55.55,0,0,0,88.83,33.89Z"/><path d="M93.8,34.13a.32.32,0,0,1-.3-.14,2,2,0,0,1-.1-.43c-.19,0-.49.14-.9.28s-.63.38-.63.63l.23.06a3.71,3.71,0,0,1,1.33.45,1.35,1.35,0,0,1,.64,1.21,1.07,1.07,0,0,1-.55,1,2.22,2.22,0,0,1-1.15.27,2.93,2.93,0,0,1-1-.17q-.6-.23-.6-.63a.37.37,0,0,1,.12-.27.41.41,0,0,1,.28-.12.53.53,0,0,1,.32.19.87.87,0,0,0,.42.15,2.69,2.69,0,0,0,.44,0,2,2,0,0,0,.57-.08c.24-.08.37-.2.37-.37,0-.36-.25-.61-.74-.73l-.41-.09a2.07,2.07,0,0,1-.74-.28.75.75,0,0,1-.31-.67,1.22,1.22,0,0,1,.77-1.19,6.08,6.08,0,0,1,.74-.25,5.21,5.21,0,0,0,.74-.26,1,1,0,0,1,.35-.07.37.37,0,0,1,.27.11.44.44,0,0,1,.11.29,1.31,1.31,0,0,0,0,.34,2.11,2.11,0,0,1,0,.34.4.4,0,0,1-.11.29A.34.34,0,0,1,93.8,34.13Z"/><path d="M96.13,36.3a.38.38,0,0,1-.4.41.39.39,0,0,1-.28-.11.4.4,0,0,1-.11-.3,1.22,1.22,0,0,0,0-.22,1,1,0,0,1,0-.22.38.38,0,0,1,.12-.28.44.44,0,0,1,.29-.11C96,35.47,96.13,35.75,96.13,36.3Zm-.06-2.91a.44.44,0,0,1-.11.3.44.44,0,0,1-.58,0,.44.44,0,0,1-.11-.3,1.15,1.15,0,0,0,0-.14c0-.07,0-.12,0-.15a.35.35,0,0,1,.12-.28.4.4,0,0,1,.29-.12C95.93,32.7,96.07,32.93,96.07,33.39Z"/><path d="M97.6,37.56a.37.37,0,0,1-.26-.1.34.34,0,0,1-.11-.25.35.35,0,0,1,0-.13,21.66,21.66,0,0,1,1.15-2.47,22.67,22.67,0,0,0,1.15-2.47c.34-.95.59-1.42.77-1.42a.41.41,0,0,1,.25.11.34.34,0,0,1,.11.24.6.6,0,0,1,0,.22l-.44,1.09a14.67,14.67,0,0,1-.74,1.7l-.85,1.65-.71,1.6A.34.34,0,0,1,97.6,37.56Z"/><path d="M101.68,37.56a.33.33,0,0,1-.25-.1.31.31,0,0,1-.11-.25.69.69,0,0,1,0-.13,23.59,23.59,0,0,1,1.15-2.47,22.67,22.67,0,0,0,1.15-2.47c.34-.95.6-1.42.77-1.42a.38.38,0,0,1,.25.11.3.3,0,0,1,.11.24.6.6,0,0,1,0,.22l-.44,1.09a14.67,14.67,0,0,1-.74,1.7l-.85,1.65-.7,1.6A.36.36,0,0,1,101.68,37.56Z"/><path d="M109.82,37.39a2.19,2.19,0,0,1-1.43-.45,1.75,1.75,0,0,1-.59-1.4,3,3,0,0,1,.49-1.74,1.64,1.64,0,0,1,1.42-.76,2.17,2.17,0,0,1,1.06.22.89.89,0,0,1,.06,1.57,5.3,5.3,0,0,1-.82.45l-1.49.72a1.36,1.36,0,0,0,.54.5,1.67,1.67,0,0,0,.76.16,2.27,2.27,0,0,0,.63-.1,1,1,0,0,0,.59-.34c.09-.15.19-.22.29-.22a.38.38,0,0,1,.35.35c0,.3-.23.55-.7.76A2.67,2.67,0,0,1,109.82,37.39Zm-.11-3.63a1,1,0,0,0-.79.37,2.64,2.64,0,0,0-.47,1.14l1.2-.59a4.56,4.56,0,0,0,1-.61A1.3,1.3,0,0,0,109.71,33.76Z"/><path d="M116,33.78l-.57.55-.69.7,1.27,1.7a.4.4,0,0,1,.1.25.38.38,0,0,1-.12.28.37.37,0,0,1-.26.12.34.34,0,0,1-.27-.15c-.24-.28-.66-.83-1.27-1.64l-.76.8-.67.66a.36.36,0,0,1-.26.14.37.37,0,0,1-.27-.12.39.39,0,0,1,0-.53,3.17,3.17,0,0,1,.33-.35l.36-.33.83-.89-.51-.76a3.74,3.74,0,0,0-.54-.65.4.4,0,0,1-.15-.3.43.43,0,0,1,.11-.28.35.35,0,0,1,.26-.12c.15,0,.38.2.69.61l.68,1,.76-.72a4.28,4.28,0,0,0,.64-.71.37.37,0,0,1,.3-.19.37.37,0,0,1,.27.12.34.34,0,0,1,.12.26A1.07,1.07,0,0,1,116,33.78Z"/><path d="M120.13,37.47s-.14-.06-.27-.18a2,2,0,0,1-.26-.29,4.65,4.65,0,0,1-.66.31,1.47,1.47,0,0,1-.47.11,1.6,1.6,0,0,1-1.33-.53,2.41,2.41,0,0,1-.4-1.51,2.3,2.3,0,0,1,.65-1.65,2.05,2.05,0,0,1,1.55-.69,1.94,1.94,0,0,1,.76.18c.35.15.53.33.53.54a.24.24,0,0,1-.08.19c0,.1,0,.27-.06.5s0,.53,0,.89a4,4,0,0,0,.06.78,6.57,6.57,0,0,0,.25.7l.09.21,0,.07a.31.31,0,0,1-.11.26A.34.34,0,0,1,120.13,37.47Zm-.81-2.77c0-.12,0-.24,0-.37a3.49,3.49,0,0,1,.07-.43,1.8,1.8,0,0,0-.25-.12l-.17,0a1.35,1.35,0,0,0-1,.5,1.75,1.75,0,0,0-.44,1.16,1.71,1.71,0,0,0,.23,1,.76.76,0,0,0,.68.33,1.36,1.36,0,0,0,.63-.14,2.14,2.14,0,0,0,.39-.3A15.47,15.47,0,0,1,119.32,34.7Z"/><path d="M126.12,37.53a.34.34,0,0,1-.37-.34c0-.3-.1-.71-.15-1.24l-.13-1.23a2.37,2.37,0,0,0-.13-.54c-.09-.24-.18-.36-.29-.36a1.39,1.39,0,0,0-.54.25,2.21,2.21,0,0,0-.49.37c0,.25,0,.5,0,.75l.12,1.06a9,9,0,0,1,.07,1,.36.36,0,0,1-.11.29.34.34,0,0,1-.27.12.38.38,0,0,1-.28-.12.39.39,0,0,1-.1-.29,13.68,13.68,0,0,0-.1-1.42c-.06-.63-.09-1.1-.09-1.42a1.44,1.44,0,0,0-.12-.66,1.91,1.91,0,0,0-.55.41l-.46.53a2.38,2.38,0,0,1-.2.25c0,.16,0,.39,0,.7s0,.54,0,.69a3.26,3.26,0,0,0,0,.34,1.61,1.61,0,0,1,0,.31.34.34,0,0,1-.12.27.38.38,0,0,1-.28.12c-.29,0-.44-.35-.44-1,0-.16,0-.4,0-.71s0-.56,0-.71,0-.36,0-.64a6.13,6.13,0,0,1,0-.64c0-.6.13-.9.4-.9a.36.36,0,0,1,.28.14.42.42,0,0,1,.12.29s0,.13,0,.24a1.15,1.15,0,0,0,0,.24v.42a2.44,2.44,0,0,1,.6-.77,1.14,1.14,0,0,1,.67-.35.84.84,0,0,1,.84.62,1.31,1.31,0,0,1,.51-.43,1.51,1.51,0,0,1,.68-.15.9.9,0,0,1,.89.72c0,.09.08.47.16,1.12.07.45.16,1.22.28,2.28a.31.31,0,0,1-.11.27A.36.36,0,0,1,126.12,37.53Z"/><path d="M129,37.34a3.1,3.1,0,0,1-.86-.13v1.91a.41.41,0,0,1-.1.29.39.39,0,0,1-.28.11.37.37,0,0,1-.27-.11.42.42,0,0,1-.11-.29V35.94q0-.88-.06-1.59l0-.81a1,1,0,0,1,.1-.48.37.37,0,0,1,.34-.24.32.32,0,0,1,.25.12.35.35,0,0,1,.1.26.72.72,0,0,1,0,.13,2.15,2.15,0,0,0,0,.23,2.72,2.72,0,0,1,.64-.35,1.69,1.69,0,0,1,.6-.12,1.23,1.23,0,0,1,1.17.73,3.38,3.38,0,0,1,.29,1.51,2.18,2.18,0,0,1-.45,1.42A1.55,1.55,0,0,1,129,37.34Zm.27-3.45a1.28,1.28,0,0,0-.65.16,3,3,0,0,0-.52.42c0,.61.05,1.24.05,1.9a2.15,2.15,0,0,0,.85.17.84.84,0,0,0,.74-.37,1.42,1.42,0,0,0,.23-.84,2.51,2.51,0,0,0-.18-1.08A.55.55,0,0,0,129.3,33.89Z"/><path d="M132.63,34.07l0,2c0,.21,0,.52,0,.93s-.15.39-.38.39-.38-.13-.38-.4,0-.81,0-1.45.05-1.13.05-1.45,0-.9,0-1.44,0-1,0-1.44.12-.4.38-.4.38.13.38.4,0,.9,0,1.44S132.63,33.65,132.63,34.07Z"/><path d="M135.65,37.39a2.16,2.16,0,0,1-1.42-.45,1.73,1.73,0,0,1-.6-1.4,3,3,0,0,1,.49-1.74,1.66,1.66,0,0,1,1.43-.76,2.22,2.22,0,0,1,1.06.22.89.89,0,0,1,.06,1.57,5.58,5.58,0,0,1-.83.45l-1.49.72a1.51,1.51,0,0,0,.54.5,1.7,1.7,0,0,0,.76.16,2.39,2.39,0,0,0,.64-.1,1,1,0,0,0,.59-.34c.09-.15.18-.22.28-.22a.34.34,0,0,1,.24.11.3.3,0,0,1,.11.24c0,.3-.23.55-.69.76A2.71,2.71,0,0,1,135.65,37.39Zm-.1-3.63a1,1,0,0,0-.79.37,2.53,2.53,0,0,0-.47,1.14l1.19-.59a4.69,4.69,0,0,0,1-.61A1.33,1.33,0,0,0,135.55,33.76Z"/><path d="M138.71,37.57a.46.46,0,0,1-.35-.14.51.51,0,0,1,0-.7.47.47,0,0,1,.35-.15.43.43,0,0,1,.33.15.48.48,0,0,1,0,.7A.42.42,0,0,1,138.71,37.57Z"/><path d="M142,37.45a1.89,1.89,0,0,1-1.34-.49,1.79,1.79,0,0,1-.56-1.37,3.23,3.23,0,0,1,.53-1.67,1.63,1.63,0,0,1,1.31-1,2.45,2.45,0,0,1,.86.18c.4.16.59.35.59.57a.45.45,0,0,1-.09.28.34.34,0,0,1-.24.11.27.27,0,0,1-.2-.07,1.07,1.07,0,0,1-.16-.14,1.27,1.27,0,0,0-.76-.18q-.39,0-.78.72a2.51,2.51,0,0,0-.36,1.15,1.05,1.05,0,0,0,.35.83,1.25,1.25,0,0,0,.85.28,1.17,1.17,0,0,0,.49-.12l.46-.25a.4.4,0,0,1,.16-.06.32.32,0,0,1,.25.12.36.36,0,0,1,.11.26c0,.2-.2.38-.6.56A2.2,2.2,0,0,1,142,37.45Z"/><path d="M145.75,37.44a1.5,1.5,0,0,1-1.12-.5,2.09,2.09,0,0,1-.55-1.47,2.6,2.6,0,0,1,.44-1.59,1.73,1.73,0,0,1,1.52-.81,1.27,1.27,0,0,1,1.18.73,2.87,2.87,0,0,1,.31,1.42,2.67,2.67,0,0,1-.45,1.51A1.57,1.57,0,0,1,145.75,37.44Zm.24-3.56a1,1,0,0,0-.89.56,2,2,0,0,0-.26,1,1.29,1.29,0,0,0,.31.9.83.83,0,0,0,.6.26.94.94,0,0,0,.7-.3,1.27,1.27,0,0,0,.35-.9C146.84,34.4,146.57,33.88,146,33.88Z"/><path d="M153.44,37.53a.34.34,0,0,1-.37-.34c0-.3-.1-.71-.14-1.24l-.13-1.23a2.38,2.38,0,0,0-.14-.54c-.09-.24-.18-.36-.29-.36a1.31,1.31,0,0,0-.53.25,2,2,0,0,0-.49.37,6.26,6.26,0,0,0,0,.75l.11,1.06a9.35,9.35,0,0,1,.08,1,.4.4,0,0,1-.11.29.35.35,0,0,1-.28.12.34.34,0,0,1-.27-.12.4.4,0,0,1-.11-.29c0-.32,0-.79-.09-1.42a13.68,13.68,0,0,1-.1-1.42,1.61,1.61,0,0,0-.11-.66,1.82,1.82,0,0,0-.56.41l-.46.53a2.38,2.38,0,0,1-.2.25c0,.16,0,.39,0,.7s0,.54,0,.69a2.75,2.75,0,0,0,0,.34,1.61,1.61,0,0,1,0,.31.34.34,0,0,1-.12.27.38.38,0,0,1-.28.12c-.29,0-.44-.35-.44-1,0-.16,0-.4.05-.71s0-.56,0-.71a6.13,6.13,0,0,0,0-.64c0-.28,0-.49,0-.64q0-.9.39-.9a.35.35,0,0,1,.28.14.39.39,0,0,1,.13.29s0,.13,0,.24,0,.18,0,.24v.42a2.27,2.27,0,0,1,.59-.77,1.17,1.17,0,0,1,.67-.35.86.86,0,0,1,.85.62,1.31,1.31,0,0,1,.51-.43,1.44,1.44,0,0,1,.67-.15.9.9,0,0,1,.89.72,9.3,9.3,0,0,1,.16,1.12c.07.45.17,1.22.28,2.28a.33.33,0,0,1-.1.27A.39.39,0,0,1,153.44,37.53Z"/><g class="cls-6"><path class="cls-7" d="M13.7,36.47,11.3,34l2.4-2.45.56.59-1.42,1.45h4.85v.82H12.84l1.42,1.45Z"/></g><g class="cls-8"><path class="cls-7" d="M33.82,36.46l-.56-.59,1.42-1.45H29.83v-.81h4.85l-1.42-1.45.56-.59L36.21,34Z"/></g><g class="cls-9"><path class="cls-7" d="M51.59,37.28a3.07,3.07,0,0,1-2.27-1,3.37,3.37,0,0,1,0-4.63,3.07,3.07,0,0,1,2.27-.95A3.08,3.08,0,0,1,54,31.87V30.75h.8v2.86H52v-.82h1.67a2.26,2.26,0,0,0-.87-.89,2.37,2.37,0,0,0-2.9.38,2.5,2.5,0,0,0,0,3.47A2.39,2.39,0,0,0,53,36a2.31,2.31,0,0,0,.87-1.19h.84a3.24,3.24,0,0,1-1.14,1.77A3.07,3.07,0,0,1,51.59,37.28Z"/></g><path class="cls-10" d="M618.78,25.59V53.44H.5V25.59a9.5,9.5,0,0,1,9.5-9.5H50.35V8.3A7.81,7.81,0,0,1,58.16.5h44.53a7.8,7.8,0,0,1,7.81,7.8v7.79H609.28A9.5,9.5,0,0,1,618.78,25.59Z"/></g></g></svg>