<?xml version="1.0" standalone="no"?>
<!DOCTYPE svg PUBLIC "-//W3C//DTD SVG 20010904//EN"
 "http://www.w3.org/TR/2001/REC-SVG-20010904/DTD/svg10.dtd">
<svg version="1.0" xmlns="http://www.w3.org/2000/svg"
 width="474.000000pt" height="297.000000pt" viewBox="0 0 474.000000 297.000000"
 preserveAspectRatio="xMidYMid meet">

<g transform="translate(0.000000,297.000000) scale(0.100000,-0.100000)"
fill="#000000" stroke="none">
<path d="M2230 2864 c-309 -38 -604 -177 -817 -383 -623 -605 -556 -1611 143
-2128 160 -118 384 -213 584 -249 138 -24 355 -22 493 6 554 109 978 526 1102
1083 26 115 31 383 10 509 -47 284 -175 536 -377 744 -198 204 -434 334 -713
395 -88 19 -344 33 -425 23z m320 -208 c472 -72 854 -418 977 -886 35 -133 43
-357 18 -497 -96 -534 -533 -936 -1069 -982 -601 -52 -1144 356 -1266 949 -28
133 -30 326 -6 453 121 632 716 1058 1346 963z"/>
</g>
</svg>
