<svg width="200" height="200" xmlns="http://www.w3.org/2000/svg">
  <!-- Word 1 -->
  <path d="
    M 0,100
    C 6,85 12,115 18,100
    C 24,90 30,110 36,100
    C 42,82 48,118 54,100
  "
  fill="none" stroke="black" stroke-width="2"/>

  <!-- Word 2 -->
  <path d="
    M 70,100
    C 76,88 82,112 88,100
    C 94,80 100,120 106,100
    C 112,93 118,107 124,100
    C 130,86 136,114 142,100
  "
  fill="none" stroke="black" stroke-width="2"/>

  <!-- Word 3 -->
  <path d="
    M 160,100
    C 166,83 172,117 178,100
    C 184,89 190,111 196,100
  "
  fill="none" stroke="black" stroke-width="2"/>
</svg>
