<?xml version="1.0" standalone="no"?>
<!DOCTYPE svg PUBLIC "-//W3C//DTD SVG 20010904//EN"
 "http://www.w3.org/TR/2001/REC-SVG-20010904/DTD/svg10.dtd">
<svg version="1.0" xmlns="http://www.w3.org/2000/svg"
 width="258.000000pt" height="36.000000pt" viewBox="0 0 258.000000 36.000000"
 preserveAspectRatio="xMidYMid meet">

<g transform="translate(0.000000,36.000000) scale(0.100000,-0.100000)"
fill="#000000" stroke="none">
<path d="M160 210 c0 -33 4 -60 10 -60 6 0 10 14 10 31 0 27 3 30 27 27 22 -2
29 -10 34 -33 4 -20 7 -8 6 35 0 36 -2 53 -4 38 -4 -23 -9 -28 -34 -28 -24 0
-29 4 -29 25 0 14 -4 25 -10 25 -6 0 -10 -27 -10 -60z"/>
<path d="M878 259 c-27 -15 -25 -85 3 -99 23 -13 69 -5 69 11 0 6 -6 6 -19 -1
-25 -13 -27 -13 -45 6 -38 37 -7 97 39 76 14 -7 25 -8 25 -3 0 20 -45 26 -72
10z"/>
<path d="M1860 210 c0 -33 4 -60 10 -60 6 0 10 11 10 25 0 20 5 25 25 25 29 0
47 27 34 52 -6 12 -21 18 -44 18 l-35 0 0 -60z m65 25 c0 -13 -8 -21 -22 -23
-19 -3 -23 1 -23 23 0 22 4 26 23 23 14 -2 22 -10 22 -23z"/>
<path d="M2160 251 c0 -14 -5 -18 -20 -14 -14 4 -22 -1 -29 -18 -13 -38 1 -64
38 -66 l31 -1 0 59 c0 33 -4 59 -10 59 -5 0 -10 -9 -10 -19z m-5 -57 c0 -19
-5 -29 -15 -29 -16 0 -25 28 -16 51 10 25 31 10 31 -22z"/>
<path d="M1068 248 c-6 -18 2 -98 11 -98 7 0 6 99 -2 106 -2 3 -7 -1 -9 -8z"/>
<path d="M2368 250 c-2 -6 -2 -31 0 -55 3 -34 8 -45 21 -44 10 0 11 2 4 6 -15
5 -18 70 -4 75 5 2 3 8 -4 15 -8 8 -15 8 -17 3z"/>
<path d="M282 228 c-29 -29 -4 -84 35 -76 28 5 26 82 -2 86 -11 1 -26 -3 -33
-10z m43 -33 c0 -33 -28 -47 -39 -19 -10 25 3 56 22 52 11 -2 17 -13 17 -33z"/>
<path d="M360 194 c0 -53 18 -59 22 -7 4 52 28 56 28 4 0 -23 5 -41 11 -41 6
0 9 17 7 43 -3 40 -5 42 -35 44 -33 1 -33 1 -33 -43z"/>
<path d="M447 232 c6 -4 13 -25 16 -47 4 -40 4 -40 5 8 2 39 -1 47 -15 47 -12
0 -14 -3 -6 -8z"/>
<path d="M499 219 c-8 -16 -8 -28 0 -45 10 -23 44 -33 55 -16 3 5 -4 8 -16 8
-12 -1 -23 5 -25 12 -3 8 6 12 26 12 34 0 36 2 21 31 -14 25 -46 24 -61 -2z
m49 -7 c2 -7 -6 -12 -17 -12 -21 0 -27 11 -14 24 9 9 26 2 31 -12z"/>
<path d="M689 221 l33 -18 -31 -13 c-40 -16 -34 -24 7 -9 41 14 41 34 1 48
-46 16 -49 13 -10 -8z"/>
<path d="M986 232 c-3 -6 3 -8 14 -5 11 3 20 1 20 -5 0 -6 -10 -12 -22 -14
-17 -2 -23 -10 -23 -28 0 -22 5 -25 35 -26 l36 -1 -6 41 c-4 32 -10 42 -27 44
-11 2 -24 -1 -27 -6z m34 -52 c-12 -22 -25 -26 -35 -10 -9 15 4 30 26 30 17 0
18 -3 9 -20z"/>
<path d="M1111 218 c-16 -43 23 -88 50 -61 6 6 1 9 -12 9 -12 -1 -24 5 -26 12
-3 8 6 12 26 12 32 0 41 16 19 38 -19 19 -48 14 -57 -10z m47 -6 c2 -7 -6 -12
-17 -12 -21 0 -27 11 -14 24 9 9 26 2 31 -12z"/>
<path d="M1202 228 c-28 -28 -1 -88 34 -74 10 4 14 2 11 -6 -2 -7 -14 -13 -26
-12 -13 0 -18 -3 -12 -9 5 -5 17 -7 27 -5 15 3 20 14 22 58 3 52 1 56 -21 58
-13 1 -29 -4 -35 -10z m43 -34 c0 -19 -6 -30 -17 -32 -14 -3 -18 3 -18 26 0
16 3 32 7 36 14 13 28 -1 28 -30z"/>
<path d="M1292 228 c-7 -7 -12 -21 -12 -33 0 -46 53 -62 71 -21 21 45 -26 87
-59 54z m43 -34 c0 -19 -5 -29 -15 -29 -16 0 -25 28 -16 51 10 25 31 10 31
-22z"/>
<path d="M1381 190 l2 -45 6 40 c8 52 30 52 50 1 14 -36 13 -40 -4 -52 -17
-12 -17 -14 -2 -14 17 0 43 50 52 99 4 20 2 18 -11 -9 l-16 -35 -13 33 c-11
25 -19 31 -39 30 -24 -2 -26 -6 -25 -48z"/>
<path d="M1689 221 l33 -18 -31 -13 c-40 -16 -34 -24 7 -9 41 14 41 34 1 48
-46 16 -49 13 -10 -8z"/>
<path d="M1972 190 c1 -40 2 -41 5 -10 2 19 11 40 20 47 13 10 13 12 -6 10
-18 -1 -21 -7 -19 -47z"/>
<path d="M2021 218 c-17 -46 21 -86 54 -58 18 15 19 52 3 68 -19 19 -48 14
-57 -10z m51 -5 c7 -30 -4 -54 -21 -51 -29 6 -27 68 3 68 8 0 16 -8 18 -17z"/>
<path d="M2204 198 c1 -40 3 -43 29 -44 26 -1 27 1 26 45 l-2 46 -6 -40 c-9
-57 -38 -61 -44 -6 l-4 41 1 -42z"/>
<path d="M2288 215 c-8 -19 -9 -31 -1 -43 13 -21 55 -22 61 -2 4 13 3 13 -11
2 -21 -18 -37 -7 -37 23 0 30 16 41 37 23 14 -11 16 -11 11 2 -9 27 -47 24
-60 -5z"/>
</g>
</svg>
