<svg xmlns="http://www.w3.org/2000/svg" width="1.2em" height="1.2em" viewBox="0 0 256 256"><path fill="currentColor" d="m218.44 101l-17.31-30a26 26 0 0 0-45.58 1l-19.08-33a26 26 0 0 0-46.14 2.19A26 26 0 0 0 49.88 73l3.29 5.7a26 26 0 0 0-23.69 39L69.5 187a85.44 85.44 0 0 0 52.21 40.08a86.7 86.7 0 0 0 22.4 3a86 86 0 0 0 74.33-129Zm-3 62.16A74 74 0 0 1 79.89 181l-40-69.32a14 14 0 0 1 24.25-14L83.36 131a6 6 0 0 0 10.39-6L60.27 67a14 14 0 1 1 24.25-14l31.17 54a6 6 0 0 0 5.2 3a5.9 5.9 0 0 0 3-.81a6 6 0 0 0 2.2-8.2L101.83 59a14 14 0 0 1 24.25-14l34.2 59.23a46 46 0 0 0-6.4 59.13a6 6 0 0 0 9.94-6.73a34 34 0 0 1 7.76-46.26a6 6 0 0 0 1.6-7.8L166.49 91a14 14 0 1 1 24.25-14l17.31 30a73.53 73.53 0 0 1 7.39 56.14ZM186.18 32.22a6 6 0 0 1 7.34-4.22a57.6 57.6 0 0 1 35.32 27l.33.57a6 6 0 1 1-10.39 6l-.33-.57a45.7 45.7 0 0 0-28-21.43a6 6 0 0 1-4.27-7.35M79.32 235.71a6 6 0 0 1-8.42 1A117.8 117.8 0 0 1 41.79 203a6 6 0 0 1 10.4-6a105.5 105.5 0 0 0 26.14 30.29a6 6 0 0 1 .99 8.42"/></svg>