<svg xmlns="http://www.w3.org/2000/svg" width="1.2em" height="1.2em" viewBox="0 0 256 256"><path fill="currentColor" d="M128 70a30 30 0 1 0-30-30a30 30 0 0 0 30 30m0-48a18 18 0 1 1-18 18a18 18 0 0 1 18-18m88.88 113.42l-45.21-51.26A30 30 0 0 0 149.17 74h-42.34a30 30 0 0 0-22.5 10.15l-45.21 51.27A18 18 0 0 0 64.46 161l21.11-16.93l-18.13 68.85a18 18 0 0 0 32.75 14.94L128 180l27.81 47.91a18 18 0 0 0 32.75-14.94l-18.13-68.87l21.11 16.9a18 18 0 0 0 25.34-25.56Zm-8.63 16.82a6 6 0 0 1-8.49 0a4 4 0 0 0-.49-.44l-35.51-28.48a6 6 0 0 0-9.56 6.2l22.87 86.93a8 8 0 0 0 .37 1a6 6 0 0 1-10.88 5.07a4 4 0 0 0-.25-.48L133.19 165a6 6 0 0 0-10.38 0l-33.12 57.05a4 4 0 0 0-.25.48a6 6 0 0 1-10.88-5.07a8 8 0 0 0 .37-1l22.87-86.93a6 6 0 0 0-2.53-6.53a6.07 6.07 0 0 0-3.27-1a6 6 0 0 0-3.76 1.32L56.73 151.8a4 4 0 0 0-.49.44a6 6 0 0 1-8.49-8.49l.26-.27l45.32-51.39a18 18 0 0 1 13.5-6.09h42.34a18 18 0 0 1 13.5 6.09L208 143.48l.26.27a6 6 0 0 1-.01 8.49"/></svg>