<svg xmlns="http://www.w3.org/2000/svg" width="1.2em" height="1.2em" viewBox="0 0 256 256"><path fill="currentColor" d="M214 88a6 6 0 0 0-1.8-4.3l-56-55.9l-.4-.3h-.1l-.4-.3h-.1l-.4-.2l-.5-.2a.1.1 0 0 0-.1-.1H56A14 14 0 0 0 42 40v176a14 14 0 0 0 14 14h144a14 14 0 0 0 14-14V88Zm-56-41.5L193.5 82H158ZM200 218H56a2 2 0 0 1-2-2V40a2 2 0 0 1 2-2h90v50a6 6 0 0 0 6 6h50v122a2 2 0 0 1-2 2Zm-48.1-50.6A34 34 0 0 0 100 124a34 34 0 0 0 43.4 51.9l12.2 12.1a5.9 5.9 0 1 0 8.4-8.4Zm-43.5-3.8A22.2 22.2 0 1 1 124 170a22.2 22.2 0 0 1-15.6-6.4Z"/></svg>