<svg width="1.2em" height="1.2em" viewBox="0 0 256 256" xmlns="http://www.w3.org/2000/svg">
<path d="M125.027 230.729C150.877 232.566 176.523 225.019 197.255 209.475H197.219C211.9 198.38 223.523 183.741 231 166.929C211.578 170.464 191.588 169.238 172.744 163.356C153.9 157.474 136.764 147.111 122.805 133.157C108.846 119.203 98.4801 102.073 92.5961 83.2354C86.7121 64.398 85.4855 44.4152 89.0215 25C72.2262 32.4947 57.6071 44.1258 46.532 58.8052C30.9829 79.5301 23.4339 105.166 25.271 131.007C27.1081 156.848 38.208 181.16 56.5328 199.478C74.8576 217.797 99.1775 228.893 125.027 230.729Z" fill="white"/>
</svg>
