<svg xmlns="http://www.w3.org/2000/svg" width="1.2em" height="1.2em" viewBox="0 0 256 256"><path fill="currentColor" d="M208 34H48a14 14 0 0 0-14 14v160a14 14 0 0 0 14 14h160a14 14 0 0 0 14-14V48a14 14 0 0 0-14-14m2 174a2 2 0 0 1-2 2H48a2 2 0 0 1-2-2V48a2 2 0 0 1 2-2h160a2 2 0 0 1 2 2ZM117.08 86l-5 30a36 36 0 0 1 11.92-2a34 34 0 0 1 0 68a33.6 33.6 0 0 1-24.29-9.8a6 6 0 1 1 8.58-8.4A21.65 21.65 0 0 0 124 170a22 22 0 0 0 0-44a21.65 21.65 0 0 0-15.71 6.2a6 6 0 0 1-10.21-5.2l8-48a6 6 0 0 1 5.92-5h40a6 6 0 0 1 0 12Z"/></svg>