<svg xmlns="http://www.w3.org/2000/svg" width="1.2em" height="1.2em" viewBox="0 0 256 256"><path fill="currentColor" d="m115.76 155.76l96-96a6 6 0 0 1 8.48 8.48l-96 96a6 6 0 0 1-8.48-8.48M128 86a65.9 65.9 0 0 1 21.08 3.44a6 6 0 0 0 3.83-11.38a78 78 0 0 0-102.43 82.6a6 6 0 0 0 6 5.34a5 5 0 0 0 .67 0a6 6 0 0 0 5.3-6.62A69 69 0 0 1 62 152a66.08 66.08 0 0 1 66-66m98 15.9a6 6 0 1 0-10.68 5.48a98.35 98.35 0 0 1 5.16 77.25a2 2 0 0 1-1.91 1.37H37.46a2.07 2.07 0 0 1-1.91-1.41A98.23 98.23 0 0 1 128 54h.9a97 97 0 0 1 43.71 10.72A6 6 0 1 0 178.1 54A108.9 108.9 0 0 0 129 42h-1A110.06 110.06 0 0 0 24.23 188.58A14.08 14.08 0 0 0 37.46 198h181.07a14.06 14.06 0 0 0 13.22-9.37A110.34 110.34 0 0 0 226 101.9"/></svg>