<svg width="400" height="400" xmlns="http://www.w3.org/2000/svg">
  <!-- Fondo del mapa -->
  <rect x="0" y="0" width="400" height="400" style="fill:#e6e6e6;"/>
  <!-- Carreteras principales -->
  <rect x="60" y="0" width="30" height="400" style="fill:#cfcfcf;"/>
  <rect x="0" y="190" width="400" height="30" style="fill:#cfcfcf;"/>
  <!-- Carreteras secundarias -->
  <rect x="0" y="100" width="200" height="20" style="fill:#d9d9d9;"/>
  <rect x="200" y="250" width="180" height="20" style="fill:#d9d9d9;"/>
  <rect x="180" y="0" width="20" height="200" style="fill:#d9d9d9;"/>
  <!-- Edificios comerciales -->
  <rect x="70" y="50" width="100" height="60" style="fill:#a3a3a3;"/>
  <rect x="230" y="260" width="120" height="70" style="fill:#a3a3a3;"/>
  <!-- Edificios residenciales -->
  <rect x="280" y="50" width="60" height="60" style="fill:#bfbfbf;"/>
  <rect x="90" y="280" width="60" height="100" style="fill:#bfbfbf;"/>
  <!-- Áreas verdes -->
  <rect x="150" y="300" width="100" height="70" style="fill:#8fbc8f;"/>
  <rect x="220" y="120" width="70" height="50" style="fill:#8fbc8f;"/>
  <!-- Marcadores de ubicación -->
  <path d="M180,110 Q180,90 200,90 Q220,90 220,110 Q220,130 200,150 Q180,130 180,110" style="fill:red;"/>
  <circle cx="200" cy="110" r="5" style="fill:white;"/>
  <path d="M280,290 Q280,270 300,270 Q320,270 320,290 Q320,310 300,330 Q280,310 280,290" style="fill:blue;"/>
  <circle cx="300" cy="290" r="5" style="fill:white;"/>
  <path d="M120,340 Q120,320 140,320 Q160,320 160,340 Q160,360 140,380 Q120,360 120,340" style="fill:green;"/>
  <circle cx="140" cy="340" r="5" style="fill:white;"/>
</svg>
