<svg width="808" height="54" viewBox="0 0 808 54" fill="none" xmlns="http://www.w3.org/2000/svg">
<path d="M15.06 6.18998C15.06 7.00949 14.7345 7.79545 14.155 8.37494C13.5755 8.95442 12.7895 9.27998 11.97 9.27998C11.1505 9.27998 10.3645 8.95442 9.78504 8.37494C9.20556 7.79545 8.88 7.00949 8.88 6.18998C8.88 5.37046 9.20556 4.5845 9.78504 4.00502C10.3645 3.42553 11.1505 3.09998 11.97 3.09998C12.7895 3.09998 13.5755 3.42553 14.155 4.00502C14.7345 4.5845 15.06 5.37046 15.06 6.18998Z" fill="#FF0606" stroke="black"/>
<path d="M27.83 6.18998C27.83 7.00949 27.5045 7.79545 26.925 8.37494C26.3455 8.95442 25.5595 9.27998 24.74 9.27998C23.9205 9.27998 23.1346 8.95442 22.5551 8.37494C21.9756 7.79545 21.65 7.00949 21.65 6.18998C21.65 5.37046 21.9756 4.5845 22.5551 4.00502C23.1346 3.42553 23.9205 3.09998 24.74 3.09998C25.5595 3.09998 26.3455 3.42553 26.925 4.00502C27.5045 4.5845 27.83 5.37046 27.83 6.18998Z" fill="#EBFB3B" stroke="black"/>
<path d="M40.6 6.18998C40.6 7.00949 40.2744 7.79545 39.6949 8.37494C39.1155 8.95442 38.3295 9.27998 37.51 9.27998C36.6905 9.27998 35.9045 8.95442 35.325 8.37494C34.7455 7.79545 34.42 7.00949 34.42 6.18998C34.42 5.37046 34.7455 4.5845 35.325 4.00502C35.9045 3.42553 36.6905 3.09998 37.51 3.09998C38.3295 3.09998 39.1155 3.42553 39.6949 4.00502C40.2744 4.5845 40.6 5.37046 40.6 6.18998Z" fill="#149C22" stroke="black"/>
<path d="M0 53.4301H807.77" stroke="black"/>
<path d="M787.25 26.6901H74.79C70.7859 26.6901 67.54 29.936 67.54 33.9401C67.54 37.9441 70.7859 41.1901 74.79 41.1901H787.25C791.254 41.1901 794.5 37.9441 794.5 33.9401C794.5 29.936 791.254 26.6901 787.25 26.6901Z" stroke="black"/>
<path d="M13.7 36.4701L11.3 34L13.7 31.55L14.26 32.14L12.84 33.59H17.69V34.41H12.84L14.26 35.8601L13.7 36.4701Z" fill="#1C1B1F"/>
<path d="M33.82 36.4599L33.26 35.8699L34.68 34.4199H29.83V33.6099H34.68L33.26 32.1599L33.82 31.5699L36.21 33.9999L33.82 36.4599Z" fill="#1C1B1F"/>
<path d="M51.59 37.28C51.1629 37.2804 50.7404 37.1916 50.3495 37.0194C49.9586 36.8473 49.608 36.5954 49.32 36.28C48.7285 35.6543 48.399 34.826 48.399 33.965C48.399 33.104 48.7285 32.2757 49.32 31.65C49.6124 31.3436 49.965 31.1011 50.3556 30.9376C50.7463 30.7741 51.1665 30.6932 51.59 30.7C52.0539 30.7009 52.5115 30.8066 52.9288 31.0092C53.3462 31.2118 53.7123 31.5061 54 31.87V30.75H54.8V33.61H52V32.79H53.67C53.469 32.4177 53.1676 32.1094 52.8 31.9C52.3437 31.6298 51.8101 31.5204 51.2844 31.5893C50.7586 31.6582 50.2712 31.9014 49.9 32.28C49.4509 32.7459 49.1999 33.3678 49.1999 34.015C49.1999 34.6621 49.4509 35.2841 49.9 35.75C50.3019 36.1547 50.8352 36.4023 51.4037 36.4482C51.9723 36.494 52.5384 36.3351 53 36C53.4122 35.709 53.7177 35.291 53.87 34.81H54.71C54.5376 35.5104 54.1364 36.1333 53.57 36.58C53.0128 37.0388 52.3117 37.2867 51.59 37.28Z" fill="#1C1B1F"/>
<path d="M807.27 25.59V53.44H0.5V25.59C0.5 23.0704 1.50089 20.6541 3.28249 18.8725C5.06408 17.0909 7.48044 16.09 10 16.09H50.35V8.30001C50.3526 6.2304 51.1767 4.24646 52.641 2.78397C54.1054 1.32147 56.0904 0.500005 58.16 0.500006H102.69C103.715 0.498692 104.731 0.699475 105.678 1.09087C106.625 1.48227 107.487 2.05661 108.212 2.78103C108.937 3.50546 109.513 4.36577 109.905 5.31276C110.298 6.25976 110.5 7.27485 110.5 8.30001V16.09H797.77C800.29 16.09 802.706 17.0909 804.487 18.8725C806.269 20.6541 807.27 23.0704 807.27 25.59Z" stroke="black" stroke-miterlimit="10"/>
<path d="M78.13 37.05C78.044 37.0512 77.9605 37.0216 77.8945 36.9666C77.8284 36.9116 77.7843 36.8347 77.77 36.75C77.6961 36.4506 77.6426 36.1466 77.61 35.84C77.5668 35.5318 77.5434 35.2212 77.54 34.91C77.54 34.84 77.54 34.74 77.54 34.6C77.54 34.46 77.54 34.36 77.54 34.29C77.54 33.8 77.41 33.56 77.17 33.56C76.9975 33.5641 76.8281 33.6066 76.6741 33.6845C76.5202 33.7623 76.3855 33.8735 76.28 34.01C76.0701 34.2859 75.886 34.5805 75.73 34.89C75.7662 35.4794 75.7259 36.071 75.61 36.65C75.5851 36.7203 75.5391 36.7811 75.4782 36.8241C75.4173 36.8671 75.3445 36.8901 75.27 36.89C75.1661 36.8901 75.066 36.8508 74.99 36.78C74.9523 36.748 74.922 36.7082 74.9013 36.6633C74.8805 36.6183 74.8699 36.5695 74.87 36.52C74.8634 36.4602 74.8634 36.3998 74.87 36.34C74.8881 36.1504 74.8881 35.9596 74.87 35.77V32.32C74.87 32 74.87 31.78 74.87 31.67C74.8803 31.5435 74.8803 31.4165 74.87 31.29C74.8547 31.1705 74.8547 31.0495 74.87 30.93C74.8696 30.8776 74.88 30.8256 74.9007 30.7775C74.9213 30.7293 74.9517 30.6859 74.99 30.65C75.0257 30.6157 75.0681 30.589 75.1145 30.5718C75.161 30.5546 75.2105 30.5472 75.26 30.55C75.3076 30.5459 75.3555 30.5516 75.4008 30.5667C75.4461 30.5818 75.4879 30.606 75.5235 30.6379C75.5591 30.6697 75.5878 30.7085 75.6078 30.7519C75.6278 30.7952 75.6388 30.8423 75.64 30.89C75.6777 31.1148 75.6977 31.3421 75.7 31.57C75.7 31.85 75.7 32.13 75.7 32.43C75.7 32.73 75.7 33 75.7 33.28V33.63C75.8794 33.3715 76.111 33.1534 76.38 32.99C76.614 32.8445 76.8844 32.7683 77.16 32.77C77.3337 32.7508 77.5094 32.7809 77.6668 32.857C77.8242 32.933 77.957 33.0519 78.05 33.2C78.1892 33.5143 78.2542 33.8565 78.24 34.2V34.94L78.31 35.75C78.3401 36.0226 78.3868 36.2931 78.45 36.56C78.4545 36.5965 78.4545 36.6335 78.45 36.67C78.4516 36.7211 78.4416 36.772 78.4208 36.8187C78.4001 36.8655 78.369 36.9069 78.33 36.94C78.2758 36.9958 78.2061 37.0341 78.13 37.05Z" fill="black"/>
<path d="M82.1 33.48H81.71L81.18 33.54L81.25 35.85V36.22C81.25 36.79 81.13 37.07 80.84 37.07C80.7406 37.0724 80.644 37.0366 80.57 36.97C80.5332 36.94 80.5041 36.9017 80.4849 36.8583C80.4658 36.8148 80.4573 36.7674 80.46 36.72C80.46 36.62 80.46 36.47 80.46 36.27C80.46 36.07 80.46 35.93 80.46 35.83L80.38 33.55L79.51 33.48C79.4613 33.479 79.4134 33.4677 79.3693 33.4471C79.3252 33.4265 79.2859 33.3968 79.2539 33.3601C79.2219 33.3234 79.1979 33.2804 79.1835 33.2339C79.169 33.1874 79.1645 33.1384 79.17 33.09C79.1651 32.9872 79.201 32.8865 79.27 32.81C79.3036 32.7722 79.3454 32.7427 79.3922 32.7236C79.439 32.7045 79.4896 32.6965 79.54 32.7L80.36 32.76C80.36 32.63 80.36 32.45 80.36 32.23C80.36 32.01 80.36 31.85 80.36 31.75C80.3577 31.6983 80.3663 31.6466 80.3853 31.5984C80.4042 31.5501 80.4331 31.5064 80.47 31.47C80.547 31.402 80.6473 31.3662 80.75 31.37C80.98 31.37 81.12 31.56 81.16 31.94C81.16 32.04 81.16 32.15 81.16 32.29V32.76L81.71 32.7C81.8863 32.6836 82.0637 32.6836 82.24 32.7C82.3164 32.7248 82.3819 32.7751 82.4256 32.8425C82.4693 32.9098 82.4885 32.9902 82.48 33.07C82.4814 33.1213 82.4726 33.1722 82.4542 33.2201C82.4358 33.2679 82.4082 33.3116 82.3729 33.3488C82.3376 33.3859 82.2954 33.4157 82.2485 33.4366C82.2017 33.4574 82.1512 33.4687 82.1 33.47V33.48Z" fill="black"/>
<path d="M85.87 33.4801H85.48L84.95 33.5401L85 35.8301V36.2001C85 36.7701 84.88 37.0501 84.59 37.0501C84.4906 37.0524 84.394 37.0166 84.32 36.9501C84.2832 36.9201 84.2541 36.8818 84.2349 36.8383C84.2158 36.7948 84.2073 36.7475 84.21 36.7001C84.21 36.6001 84.21 36.4501 84.21 36.2501C84.21 36.0501 84.21 35.9101 84.21 35.8101L84.13 33.5301L83.26 33.4601C83.2113 33.459 83.1634 33.4478 83.1193 33.4271C83.0752 33.4065 83.0359 33.3768 83.0039 33.3401C82.9719 33.3034 82.9479 33.2605 82.9335 33.2139C82.919 33.1674 82.9145 33.1184 82.92 33.0701C82.9151 32.9672 82.951 32.8665 83.02 32.7901C83.0536 32.7523 83.0954 32.7227 83.1422 32.7036C83.189 32.6846 83.2396 32.6765 83.29 32.6801L84.11 32.7401C84.11 32.6101 84.11 32.4301 84.11 32.2101C84.11 31.9901 84.11 31.8301 84.11 31.7301C84.1077 31.6783 84.1163 31.6266 84.1353 31.5784C84.1542 31.5301 84.1831 31.4864 84.22 31.4501C84.2965 31.3811 84.3972 31.3451 84.5 31.3501C84.73 31.3501 84.87 31.5401 84.91 31.9201C84.91 32.0201 84.91 32.1301 84.91 32.2701V32.7401L85.46 32.6801C85.6363 32.6636 85.8137 32.6636 85.99 32.6801C86.0664 32.7048 86.1319 32.7551 86.1756 32.8225C86.2193 32.8899 86.2385 32.9702 86.23 33.0501C86.2314 33.1013 86.2226 33.1523 86.2042 33.2001C86.1858 33.2479 86.1582 33.2916 86.1229 33.3288C86.0876 33.3659 86.0454 33.3958 85.9985 33.4166C85.9517 33.4374 85.9012 33.4488 85.85 33.4501L85.87 33.4801Z" fill="black"/>
<path d="M88.68 36.94C88.3927 36.936 88.1071 36.8957 87.83 36.82V38.68C87.8317 38.7317 87.8228 38.7832 87.8039 38.8314C87.785 38.8795 87.7564 38.9233 87.72 38.96C87.6849 38.9986 87.6414 39.0286 87.5928 39.0477C87.5443 39.0667 87.492 39.0744 87.44 39.07C87.3896 39.0736 87.339 39.0655 87.2922 39.0464C87.2454 39.0274 87.2036 38.9978 87.17 38.96C87.1336 38.9233 87.105 38.8795 87.0861 38.8314C87.0672 38.7832 87.0583 38.7317 87.06 38.68V35.56C87.06 34.9867 87.04 34.4667 87 34V33.21C86.9946 33.0475 87.029 32.8862 87.1 32.74C87.1276 32.6724 87.1747 32.6145 87.2352 32.5735C87.2957 32.5326 87.3669 32.5105 87.44 32.51C87.487 32.5101 87.5335 32.5199 87.5765 32.5388C87.6196 32.5577 87.6582 32.5854 87.69 32.62C87.7249 32.6537 87.7526 32.6941 87.7715 32.7388C87.7905 32.7835 87.8001 32.8315 87.8 32.88C87.8 32.88 87.8 32.95 87.8 33.01C87.7919 33.0831 87.7919 33.1569 87.8 33.23C88.0026 33.0916 88.2207 32.9775 88.45 32.89C88.6372 32.8128 88.8375 32.7721 89.04 32.77C89.2846 32.7598 89.5268 32.8216 89.7366 32.9479C89.9464 33.0741 90.1144 33.2591 90.22 33.48C90.4033 33.9644 90.4717 34.4847 90.42 35C90.4417 35.4883 90.2933 35.969 90 36.36C89.8418 36.5545 89.6395 36.7085 89.41 36.8094C89.1805 36.9102 88.9303 36.955 88.68 36.94ZM89 33.55C88.7767 33.5496 88.5568 33.6046 88.36 33.71C88.1681 33.8296 87.9903 33.9705 87.83 34.13C87.83 34.72 87.83 35.34 87.83 35.99C88.1005 36.0982 88.3886 36.1559 88.68 36.16C88.826 36.1663 88.9713 36.1357 89.1024 36.071C89.2334 36.0064 89.3461 35.9097 89.43 35.79C89.5883 35.5469 89.6653 35.2597 89.65 34.97C89.6731 34.6084 89.615 34.2463 89.48 33.91C89.4424 33.8107 89.3773 33.724 89.2923 33.6603C89.2073 33.5966 89.1059 33.5583 89 33.55Z" fill="black"/>
<path d="M93.94 33.8C93.8809 33.8065 93.8212 33.7957 93.768 33.7691C93.7148 33.7425 93.6704 33.7012 93.64 33.65C93.5805 33.5176 93.5465 33.3751 93.54 33.23L92.63 33.5C92.21 33.67 92 33.88 92 34.12L92.23 34.18C92.6992 34.2462 93.1529 34.3952 93.57 34.62C93.7707 34.7452 93.9347 34.9212 94.0453 35.1302C94.156 35.3392 94.2094 35.5737 94.2 35.81C94.2213 36.0129 94.18 36.2175 94.0817 36.3962C93.9834 36.575 93.8328 36.7194 93.65 36.81C93.2905 36.9747 92.8934 37.0403 92.5 37C92.1593 37.0019 91.8209 36.9444 91.5 36.83C91.1 36.68 90.9 36.48 90.9 36.22C90.9085 36.1378 90.9436 36.0605 91 36C91.0771 35.9309 91.1765 35.8918 91.28 35.89C91.4017 35.9106 91.5119 35.9745 91.59 36.07C91.7199 36.1525 91.8671 36.2038 92.02 36.22C92.1664 36.2321 92.3136 36.2321 92.46 36.22C92.6562 36.222 92.8517 36.195 93.04 36.14C93.28 36.0667 93.4 35.9467 93.4 35.78C93.4 35.43 93.15 35.19 92.66 35.06L92.29 35C92.0293 34.9602 91.7784 34.872 91.55 34.74C91.4472 34.6648 91.3649 34.565 91.3107 34.4497C91.2565 34.3343 91.2322 34.2072 91.24 34.08C91.2289 33.8301 91.2963 33.583 91.4325 33.3733C91.5688 33.1635 91.7672 33.0015 92 32.91C92.2452 32.8129 92.4956 32.7294 92.75 32.66C93.0023 32.5943 93.2496 32.5108 93.49 32.41C93.6015 32.3659 93.7201 32.3422 93.84 32.34C93.8925 32.3368 93.9451 32.3451 93.994 32.3643C94.043 32.3835 94.0871 32.4133 94.1233 32.4514C94.1596 32.4895 94.187 32.5351 94.2037 32.585C94.2204 32.6349 94.226 32.6878 94.22 32.74C94.2109 32.8499 94.2109 32.9602 94.22 33.07C94.2291 33.1799 94.2291 33.2902 94.22 33.4C94.2231 33.4534 94.2149 33.5068 94.196 33.5568C94.177 33.6068 94.1477 33.6522 94.11 33.69C94.0647 33.7418 94.0058 33.7799 93.94 33.8Z" fill="black"/>
<path d="M96.2 33.07C96.2031 33.1233 96.1949 33.1767 96.1759 33.2267C96.157 33.2767 96.1277 33.3221 96.09 33.36C96.0529 33.3959 96.0091 33.4242 95.961 33.4431C95.913 33.462 95.8616 33.4711 95.81 33.47C95.7568 33.4719 95.7037 33.4631 95.6539 33.4442C95.6041 33.4253 95.5586 33.3967 95.52 33.36C95.4805 33.323 95.4494 33.278 95.4287 33.228C95.408 33.1779 95.3982 33.1241 95.4 33.07C95.404 33.0234 95.404 32.9766 95.4 32.93C95.3925 32.8803 95.3925 32.8297 95.4 32.78C95.3996 32.7276 95.4101 32.6756 95.4307 32.6274C95.4514 32.5792 95.4818 32.5359 95.52 32.5C95.5571 32.464 95.6009 32.4358 95.649 32.4169C95.697 32.398 95.7484 32.3889 95.8 32.39C96.06 32.39 96.2 32.62 96.2 33.07ZM96.27 35.92C96.2719 35.9732 96.2631 36.0263 96.2443 36.0761C96.2254 36.1259 96.1967 36.1714 96.16 36.21C96.0798 36.2803 95.9767 36.3191 95.87 36.3191C95.7633 36.3191 95.6602 36.2803 95.58 36.21C95.5433 36.1714 95.5146 36.1259 95.4958 36.0761C95.4769 36.0263 95.4681 35.9732 95.47 35.92C95.4766 35.8468 95.4766 35.7732 95.47 35.7C95.47 35.61 95.47 35.54 95.47 35.49C95.4684 35.4389 95.4784 35.388 95.4991 35.3413C95.5199 35.2945 95.551 35.2531 95.59 35.22C95.6701 35.1493 95.7732 35.1102 95.88 35.11C96.12 35.11 96.27 35.38 96.27 35.92Z" fill="black"/>
<path d="M97.74 37.16C97.6441 37.1588 97.5519 37.1234 97.48 37.06C97.4466 37.0293 97.4196 36.9923 97.4007 36.9511C97.3818 36.9098 97.3714 36.8653 97.37 36.82C97.3606 36.7738 97.3606 36.7261 97.37 36.68C97.7014 35.8496 98.0855 35.0413 98.52 34.2599C98.9521 33.4774 99.3362 32.6692 99.67 31.84C100.01 30.91 100.27 30.45 100.44 30.45C100.537 30.4563 100.628 30.4951 100.7 30.5599C100.735 30.5889 100.764 30.6256 100.783 30.6672C100.802 30.7088 100.811 30.7542 100.81 30.7999C100.822 30.8695 100.822 30.9404 100.81 31.01L100.38 32.07C100.162 32.6406 99.912 33.1982 99.63 33.74L98.78 35.36L98.07 36.93C98.0466 36.9984 98.002 37.0576 97.9426 37.099C97.8833 37.1404 97.8123 37.1617 97.74 37.16Z" fill="black"/>
<path d="M101.83 37.16C101.737 37.1592 101.648 37.1235 101.58 37.06C101.545 37.031 101.516 36.9943 101.497 36.9527C101.478 36.9111 101.469 36.8657 101.47 36.82C101.46 36.7738 101.46 36.7261 101.47 36.68C101.806 35.8515 102.19 35.0435 102.62 34.2599C103.056 33.4795 103.44 32.6711 103.77 31.84C104.12 30.91 104.37 30.45 104.55 30.45C104.643 30.457 104.732 30.4958 104.8 30.5599C104.835 30.5889 104.864 30.6256 104.883 30.6672C104.902 30.7088 104.911 30.7542 104.91 30.7999C104.923 30.8694 104.923 30.9405 104.91 31.01L104.47 32.07C104.261 32.6441 104.01 33.2023 103.72 33.74L102.87 35.36L102.17 36.93C102.145 36.9992 102.098 37.0587 102.037 37.1C101.976 37.1413 101.904 37.1623 101.83 37.16Z" fill="black"/>
<path d="M108.78 35.57L108.6 37.07C108.54 37.5746 108.507 38.082 108.5 38.59C108.504 38.6928 108.468 38.793 108.4 38.87C108.363 38.9065 108.32 38.935 108.271 38.9539C108.223 38.9728 108.172 38.9817 108.12 38.98C107.88 38.98 107.75 38.84 107.74 38.58C107.726 38.437 107.726 38.293 107.74 38.15V37.71L107.81 36.85C107.657 36.8977 107.5 36.9279 107.34 36.94C106.856 36.9531 106.382 36.7975 106 36.5C105.812 36.3393 105.664 36.1375 105.567 35.9104C105.47 35.6832 105.427 35.4367 105.44 35.19C105.406 34.5199 105.636 33.8631 106.08 33.36C106.311 33.1186 106.591 32.9301 106.902 32.8075C107.213 32.6849 107.546 32.6312 107.88 32.65C107.944 32.6476 108.007 32.662 108.063 32.6918C108.119 32.7217 108.166 32.7659 108.2 32.82C108.278 32.7348 108.385 32.6814 108.5 32.67C108.552 32.6704 108.603 32.6822 108.65 32.7047C108.696 32.7272 108.737 32.7597 108.77 32.8C108.807 32.8364 108.836 32.8801 108.855 32.9284C108.874 32.9766 108.882 33.0283 108.88 33.08C108.889 33.9112 108.855 34.7422 108.78 35.57ZM107.63 33.33C107.406 33.3633 107.191 33.446 107.003 33.5723C106.814 33.6985 106.656 33.8652 106.54 34.06C106.341 34.4102 106.241 34.8076 106.25 35.21C106.243 35.3476 106.264 35.4852 106.312 35.6143C106.36 35.7433 106.434 35.8611 106.53 35.96C106.642 36.0683 106.776 36.1512 106.922 36.203C107.069 36.2547 107.225 36.2742 107.38 36.26C107.501 36.2568 107.619 36.2169 107.717 36.1455C107.815 36.0741 107.89 35.9745 107.93 35.86C108.081 35.3783 108.148 34.8744 108.13 34.37L108.18 33.37C108.091 33.3873 107.999 33.3873 107.91 33.37C107.819 33.3424 107.725 33.3289 107.63 33.33Z" fill="black"/>
<path d="M113.12 34.5201C113.12 34.7101 113.12 34.9901 113.12 35.3701V36.2101C113.12 36.2701 113.12 36.3601 113.12 36.4701C113.12 36.5801 113.12 36.6801 113.12 36.7301C113.121 36.7811 113.111 36.8317 113.09 36.8783C113.069 36.925 113.038 36.9665 113 37.0001C112.965 37.0357 112.923 37.0639 112.876 37.0828C112.83 37.1017 112.78 37.111 112.73 37.1101C112.53 37.1101 112.4 36.9801 112.34 36.7401C111.993 36.9139 111.608 36.9997 111.22 36.9901C110.92 36.9989 110.624 36.9189 110.37 36.7601C110.257 36.6681 110.165 36.5524 110.101 36.4211C110.037 36.2898 110.002 36.1461 110 36.0001C109.906 35.391 109.856 34.7762 109.85 34.1601C109.856 33.7512 109.893 33.3434 109.96 32.9401C109.961 32.8923 109.972 32.8453 109.992 32.8019C110.012 32.7586 110.041 32.7198 110.076 32.6879C110.112 32.6561 110.154 32.6318 110.199 32.6167C110.244 32.6016 110.292 32.5959 110.34 32.6001C110.444 32.5999 110.544 32.6392 110.62 32.7101C110.656 32.7453 110.684 32.7874 110.703 32.8338C110.722 32.8802 110.731 32.9299 110.73 32.9801C110.723 33.1745 110.703 33.3682 110.67 33.5601C110.66 33.7599 110.66 33.9602 110.67 34.1601C110.67 34.5901 110.67 34.9701 110.67 35.2801C110.688 35.5305 110.732 35.7784 110.8 36.0201C110.879 36.065 110.963 36.1019 111.05 36.1301C111.133 36.1389 111.217 36.1389 111.3 36.1301C111.673 36.1249 112.043 36.0677 112.4 35.9601V34.4901C112.398 33.9989 112.424 33.5081 112.48 33.0201C112.478 32.9706 112.487 32.9214 112.506 32.8757C112.525 32.8299 112.553 32.7887 112.589 32.7547C112.625 32.7207 112.668 32.6946 112.714 32.6783C112.761 32.662 112.811 32.6558 112.86 32.6601C112.964 32.6599 113.064 32.6992 113.14 32.7701C113.176 32.8069 113.203 32.851 113.22 32.8992C113.237 32.9475 113.244 32.999 113.24 33.0501L113.12 34.5201Z" fill="black"/>
<path d="M115 35.0001C115 35.1601 115 35.3901 115 35.7001C115 36.0101 115 36.2501 115 36.4001C115.004 36.4511 114.997 36.5023 114.979 36.5505C114.962 36.5987 114.935 36.6428 114.9 36.6801C114.865 36.7186 114.821 36.7486 114.773 36.7677C114.724 36.7868 114.672 36.7944 114.62 36.7901C114.57 36.7936 114.519 36.7856 114.472 36.7665C114.425 36.7474 114.384 36.7178 114.35 36.6801C114.311 36.6449 114.281 36.6014 114.262 36.5529C114.243 36.5043 114.236 36.452 114.24 36.4001C114.24 36.2501 114.24 36.0101 114.24 35.7001C114.24 35.3901 114.24 35.1601 114.24 35.0001C114.24 34.8401 114.24 34.4501 114.24 34.0801C114.24 33.7101 114.24 33.41 114.24 33.17C114.237 33.1167 114.245 33.0633 114.264 33.0133C114.283 32.9633 114.312 32.9179 114.35 32.8801C114.385 32.8444 114.427 32.8162 114.474 32.7973C114.52 32.7784 114.57 32.7691 114.62 32.7701C114.672 32.7689 114.723 32.7781 114.771 32.797C114.819 32.8159 114.863 32.8441 114.9 32.8801C114.97 32.9601 115.005 33.0641 115 33.17C115 33.41 115 33.7201 115 34.0801C115 34.4401 115 34.7901 115 35.0001ZM114.82 31.8301C114.701 31.8279 114.587 31.7816 114.5 31.7001C114.456 31.6587 114.422 31.6091 114.398 31.5542C114.374 31.4992 114.361 31.44 114.36 31.3801C114.359 31.3198 114.371 31.26 114.395 31.2048C114.419 31.1496 114.455 31.1002 114.5 31.0601C114.541 31.0166 114.591 30.9818 114.646 30.9577C114.701 30.9337 114.76 30.9209 114.82 30.9201C114.88 30.9197 114.94 30.932 114.995 30.9561C115.05 30.9802 115.099 31.0156 115.14 31.0601C115.185 31.1002 115.221 31.1496 115.245 31.2048C115.269 31.26 115.281 31.3198 115.28 31.3801C115.279 31.44 115.266 31.4992 115.242 31.5542C115.218 31.6091 115.183 31.6587 115.14 31.7001C115.064 31.7897 114.957 31.847 114.84 31.8601L114.82 31.8301Z" fill="black"/>
<path d="M118.1 37.05C117.612 37.0661 117.136 36.8943 116.77 36.57C116.583 36.402 116.435 36.1949 116.336 35.9633C116.238 35.7318 116.191 35.4815 116.2 35.23C116.219 34.6443 116.402 34.0758 116.73 33.59C116.848 33.3312 117.032 33.1081 117.264 32.9431C117.496 32.7781 117.767 32.677 118.05 32.65C118.345 32.6577 118.637 32.7187 118.91 32.83C119.31 32.99 119.5 33.17 119.5 33.39C119.501 33.4875 119.469 33.5825 119.41 33.66C119.378 33.6946 119.34 33.7223 119.297 33.7412C119.254 33.7602 119.207 33.77 119.16 33.77C119.125 33.7717 119.091 33.7663 119.058 33.7543C119.025 33.7423 118.995 33.7238 118.97 33.7L118.81 33.57C118.582 33.4317 118.316 33.3687 118.05 33.39C117.79 33.39 117.52 33.62 117.26 34.1C117.055 34.4433 116.935 34.8308 116.91 35.23C116.903 35.3828 116.93 35.5353 116.991 35.6757C117.052 35.8161 117.144 35.9408 117.26 36.04C117.498 36.2295 117.796 36.3287 118.1 36.32C118.274 36.3135 118.445 36.2691 118.6 36.19L119.06 35.95C119.108 35.9187 119.163 35.8983 119.22 35.89C119.267 35.8901 119.314 35.8999 119.357 35.9188C119.4 35.9377 119.438 35.9654 119.47 36C119.539 36.073 119.579 36.1694 119.58 36.27C119.58 36.46 119.38 36.64 118.98 36.82C118.704 36.9523 118.405 37.0304 118.1 37.05Z" fill="black"/>
<path d="M123.7 37C123.629 36.9997 123.561 36.9787 123.502 36.9396C123.443 36.9005 123.397 36.845 123.37 36.78C123.192 36.4486 122.985 36.134 122.75 35.84L122.06 34.9C121.91 35.02 121.68 35.19 121.36 35.41C121.36 35.81 121.36 36.2 121.36 36.59C121.361 36.6417 121.352 36.693 121.333 36.7411C121.314 36.7891 121.286 36.833 121.25 36.87C121.213 36.9065 121.169 36.935 121.121 36.9539C121.073 36.9728 121.022 36.9817 120.97 36.98C120.71 36.98 120.58 36.8 120.58 36.45C120.58 36.1 120.58 35.91 120.58 35.45C120.58 34.99 120.58 34.69 120.58 34.45C120.58 34.05 120.58 33.6 120.58 33.09C120.58 32.58 120.58 32.09 120.58 31.74C120.58 31.62 120.58 31.49 120.58 31.33C120.58 31.17 120.58 31.03 120.58 30.91C120.579 30.8584 120.588 30.8071 120.607 30.759C120.626 30.7109 120.654 30.6671 120.69 30.63C120.725 30.5944 120.767 30.5662 120.814 30.5473C120.86 30.5284 120.91 30.5191 120.96 30.52C121.012 30.5187 121.063 30.5278 121.111 30.5469C121.159 30.566 121.202 30.5947 121.239 30.6312C121.275 30.6677 121.304 30.7112 121.323 30.7592C121.342 30.8071 121.351 30.8584 121.35 30.91C121.35 31.03 121.35 31.17 121.35 31.34C121.359 31.4799 121.359 31.6202 121.35 31.76V33.02C121.35 33.47 121.35 33.93 121.35 34.38C121.7 34.1022 122.033 33.8051 122.35 33.49L123.21 32.6C123.245 32.5595 123.287 32.5269 123.336 32.5044C123.384 32.482 123.437 32.4703 123.49 32.47C123.541 32.4704 123.591 32.4813 123.637 32.5019C123.684 32.5226 123.726 32.5526 123.76 32.59C123.798 32.6259 123.829 32.6693 123.849 32.7175C123.87 32.7657 123.88 32.8176 123.88 32.87C123.88 32.9185 123.87 32.9666 123.852 33.0113C123.833 33.0559 123.805 33.0963 123.77 33.13C123.403 33.5583 123.009 33.9625 122.59 34.34L123.44 35.5C123.716 35.8049 123.92 36.1668 124.04 36.56C124.042 36.6122 124.031 36.6641 124.009 36.7112C123.986 36.7583 123.952 36.7991 123.91 36.83C123.864 36.9111 123.789 36.9719 123.7 37Z" fill="black"/>
<path d="M129.73 37.13C129.682 37.1341 129.634 37.1285 129.589 37.1134C129.544 37.0982 129.502 37.074 129.467 37.0422C129.431 37.0103 129.402 36.9715 129.382 36.9282C129.362 36.8848 129.351 36.8378 129.35 36.79C129.35 36.5 129.26 36.1 129.21 35.58L129.08 34.37C129.052 34.1899 129.009 34.0126 128.95 33.84C128.86 33.61 128.76 33.49 128.66 33.49C128.464 33.5292 128.28 33.6111 128.12 33.73C127.941 33.8307 127.776 33.9552 127.63 34.1C127.615 34.3431 127.615 34.5869 127.63 34.83L127.74 35.83C127.785 36.1617 127.812 36.4955 127.82 36.83C127.822 36.9372 127.782 37.0409 127.71 37.12C127.673 37.1565 127.629 37.185 127.581 37.2039C127.533 37.2228 127.482 37.2317 127.43 37.23C127.38 37.2309 127.33 37.2217 127.284 37.2027C127.237 37.1838 127.195 37.1557 127.16 37.12C127.088 37.0409 127.048 36.9372 127.05 36.83C127.05 36.52 127.05 36.05 126.96 35.44C126.902 34.9755 126.869 34.5081 126.86 34.04C126.871 33.8202 126.83 33.601 126.74 33.4C126.536 33.502 126.35 33.6371 126.19 33.8L125.73 34.32C125.668 34.4041 125.602 34.4843 125.53 34.56C125.53 34.72 125.53 34.95 125.53 35.26C125.53 35.57 125.53 35.79 125.53 35.93C125.519 36.0397 125.519 36.1503 125.53 36.26C125.53 36.4 125.53 36.5 125.53 36.56C125.532 36.6112 125.522 36.662 125.501 36.7088C125.48 36.7555 125.449 36.797 125.41 36.83C125.373 36.8665 125.329 36.895 125.281 36.9139C125.233 36.9328 125.182 36.9417 125.13 36.94C124.83 36.94 124.69 36.61 124.69 35.94C124.69 35.78 124.69 35.55 124.69 35.24C124.69 34.93 124.69 34.7 124.69 34.54C124.701 34.3335 124.701 34.1266 124.69 33.92C124.69 33.64 124.69 33.44 124.69 33.3C124.69 32.7 124.82 32.41 125.09 32.41C125.143 32.4109 125.196 32.4229 125.244 32.4453C125.292 32.4677 125.335 32.5 125.37 32.54C125.444 32.6187 125.487 32.7219 125.49 32.83C125.498 32.9065 125.498 32.9836 125.49 33.06C125.49 33.16 125.49 33.24 125.49 33.3V33.71C125.639 33.4203 125.843 33.1622 126.09 32.95C126.27 32.7686 126.506 32.6524 126.76 32.62C126.947 32.6105 127.132 32.6646 127.285 32.7736C127.437 32.8825 127.548 33.0399 127.6 33.22C127.736 33.0395 127.915 32.8953 128.12 32.8C128.331 32.6955 128.565 32.6441 128.8 32.65C129.007 32.6495 129.208 32.7196 129.37 32.8487C129.532 32.9777 129.645 33.1581 129.69 33.36C129.69 33.45 129.77 33.82 129.85 34.46C129.92 34.9 130.01 35.65 130.13 36.69C130.14 36.7487 130.134 36.8092 130.111 36.8642C130.088 36.9192 130.049 36.9663 130 37C129.93 37.0759 129.833 37.1223 129.73 37.13Z" fill="black"/>
<path d="M132.45 37C132.239 37.003 132.029 36.9618 131.834 36.8792C131.64 36.7965 131.465 36.6742 131.32 36.52C130.954 36.1266 130.753 35.6073 130.76 35.07C130.738 34.5182 130.896 33.9743 131.21 33.52C131.372 33.2665 131.598 33.0596 131.864 32.9194C132.131 32.7791 132.429 32.7104 132.73 32.72C132.975 32.7132 133.217 32.7776 133.427 32.9054C133.636 33.0332 133.804 33.2188 133.91 33.44C134.138 33.8664 134.245 34.3471 134.22 34.83C134.23 35.3585 134.073 35.8766 133.77 36.31C133.626 36.5266 133.429 36.7033 133.198 36.8239C132.968 36.9445 132.71 37.0051 132.45 37ZM132.68 33.52C132.496 33.5196 132.316 33.5698 132.159 33.665C132.002 33.7603 131.874 33.8969 131.79 34.06C131.617 34.3648 131.528 34.7096 131.53 35.06C131.513 35.3828 131.624 35.6993 131.84 35.94C131.916 36.0262 132.01 36.095 132.115 36.1416C132.221 36.1882 132.335 36.2115 132.45 36.21C132.714 36.2062 132.965 36.0984 133.15 35.91C133.375 35.668 133.5 35.3502 133.5 35.02C133.53 34.05 133.26 33.55 132.68 33.55V33.52Z" fill="black"/>
<path d="M137 37.05C136.512 37.0661 136.036 36.8943 135.67 36.57C135.484 36.4015 135.337 36.194 135.241 35.9624C135.144 35.7308 135.099 35.4808 135.11 35.23C135.125 34.6452 135.305 34.0764 135.63 33.59C135.748 33.3312 135.932 33.1081 136.164 32.9431C136.396 32.7781 136.667 32.677 136.95 32.65C137.245 32.6577 137.537 32.7187 137.81 32.83C138.21 32.99 138.41 33.17 138.41 33.39C138.407 33.4885 138.372 33.5834 138.31 33.66C138.279 33.6934 138.242 33.7204 138.201 33.7393C138.16 33.7582 138.115 33.7686 138.07 33.77C137.997 33.7728 137.925 33.7477 137.87 33.7L137.71 33.57C137.482 33.4317 137.216 33.3687 136.95 33.39C136.69 33.39 136.42 33.62 136.16 34.1C135.955 34.4433 135.835 34.8308 135.81 35.23C135.803 35.3828 135.83 35.5353 135.891 35.6757C135.952 35.8161 136.044 35.9408 136.16 36.04C136.398 36.2295 136.696 36.3287 137 36.32C137.174 36.3135 137.345 36.2691 137.5 36.19L137.96 35.95C138.012 35.9182 138.07 35.8978 138.13 35.89C138.224 35.8944 138.313 35.9336 138.38 36C138.447 36.074 138.482 36.1706 138.48 36.27C138.48 36.46 138.28 36.64 137.88 36.82C137.605 36.9535 137.306 37.0317 137 37.05Z" fill="black"/>
<path d="M142.55 37C142.479 36.9997 142.411 36.9786 142.352 36.9395C142.293 36.9004 142.247 36.8449 142.22 36.78C142.042 36.4506 141.838 36.1363 141.61 35.84L140.91 34.9C140.76 35.02 140.53 35.19 140.21 35.41C140.21 35.81 140.21 36.2 140.21 36.59C140.211 36.6416 140.202 36.6929 140.183 36.741C140.164 36.7891 140.136 36.8329 140.1 36.87C140.065 36.9056 140.023 36.9338 139.976 36.9527C139.93 36.9716 139.88 36.9809 139.83 36.98C139.56 36.98 139.43 36.8 139.43 36.45C139.43 36.1 139.43 35.91 139.48 35.45C139.53 34.99 139.48 34.69 139.48 34.45C139.48 34.05 139.48 33.6 139.48 33.09C139.48 32.58 139.48 32.09 139.48 31.74C139.48 31.62 139.48 31.49 139.48 31.33C139.48 31.17 139.48 31.03 139.48 30.91C139.479 30.8583 139.488 30.807 139.507 30.7589C139.526 30.7109 139.554 30.667 139.59 30.63C139.625 30.5943 139.667 30.5662 139.714 30.5473C139.76 30.5284 139.81 30.5191 139.86 30.52C139.912 30.5183 139.963 30.5272 140.011 30.5461C140.059 30.565 140.103 30.5935 140.14 30.63C140.176 30.667 140.204 30.7109 140.223 30.7589C140.242 30.807 140.251 30.8583 140.25 30.91C140.241 31.0532 140.241 31.1968 140.25 31.34C140.25 31.5 140.25 31.64 140.25 31.76V33.02C140.25 33.47 140.25 33.93 140.25 34.38C140.6 34.1022 140.933 33.805 141.25 33.49L142.11 32.6C142.145 32.5599 142.188 32.5277 142.236 32.5053C142.284 32.4829 142.337 32.4708 142.39 32.47C142.441 32.4704 142.491 32.4812 142.537 32.5019C142.584 32.5225 142.626 32.5525 142.66 32.59C142.7 32.6253 142.732 32.6684 142.754 32.7166C142.776 32.7647 142.789 32.8169 142.79 32.87C142.788 32.9191 142.777 32.9674 142.756 33.0121C142.736 33.0567 142.706 33.0968 142.67 33.13C142.303 33.5583 141.909 33.9625 141.49 34.34L142.34 35.5C142.616 35.8048 142.821 36.1668 142.94 36.56C142.942 36.6122 142.931 36.6641 142.909 36.7111C142.886 36.7582 142.852 36.799 142.81 36.83C142.782 36.8755 142.744 36.9142 142.699 36.9436C142.654 36.9729 142.603 36.9922 142.55 37Z" fill="black"/>
<path d="M144.12 37.17C144.055 37.1713 143.991 37.1596 143.931 37.1354C143.871 37.1113 143.816 37.0753 143.77 37.0295C143.725 36.9837 143.689 36.9291 143.665 36.8691C143.64 36.809 143.629 36.7447 143.63 36.68C143.631 36.5528 143.681 36.4308 143.77 36.34C143.864 36.2494 143.99 36.1992 144.12 36.2C144.247 36.2 144.369 36.2505 144.459 36.3405C144.549 36.4306 144.6 36.5527 144.6 36.68C144.601 36.8104 144.551 36.936 144.46 37.03C144.369 37.119 144.247 37.1692 144.12 37.17Z" fill="black"/>
<path d="M148.61 37.0801C148.38 37.0801 148.26 36.96 148.23 36.71L148.12 35.8601C148.081 35.575 148.061 35.2877 148.06 35C148.06 34.93 148.06 34.8101 148.06 34.6301C148.06 34.4501 148.06 34.33 148.06 34.26C148.06 33.7 147.96 33.42 147.75 33.42C147.579 33.4352 147.414 33.4902 147.268 33.5804C147.123 33.6707 147 33.7939 146.91 33.94C146.647 34.2961 146.457 34.7005 146.35 35.1301C146.35 35.2301 146.35 35.3601 146.35 35.5201C146.35 35.6801 146.35 35.77 146.35 35.89C146.35 36.01 146.35 36.09 146.35 36.25C146.357 36.3666 146.357 36.4835 146.35 36.6C146.351 36.6517 146.342 36.703 146.323 36.7511C146.304 36.7991 146.276 36.843 146.24 36.8801C146.211 36.9157 146.174 36.9449 146.133 36.9655C146.091 36.9862 146.046 36.998 146 37C145.948 37.0044 145.896 36.9968 145.847 36.9777C145.799 36.9586 145.755 36.9286 145.72 36.89C145.684 36.853 145.656 36.8091 145.637 36.7611C145.618 36.713 145.609 36.6617 145.61 36.6101C145.61 36.5301 145.61 36.41 145.61 36.26C145.603 36.1401 145.603 36.02 145.61 35.9001C145.61 35.6401 145.61 35.2601 145.67 34.7901C145.73 34.3201 145.67 33.94 145.67 33.67C145.67 33.59 145.67 33.47 145.67 33.3C145.67 33.13 145.67 33.02 145.67 32.93C145.67 32.8293 145.71 32.7326 145.781 32.6614C145.853 32.5901 145.949 32.55 146.05 32.55C146.29 32.55 146.43 32.7201 146.45 33.0601V33.51C146.592 33.2699 146.788 33.0662 147.022 32.9151C147.256 32.7641 147.523 32.6699 147.8 32.64C147.985 32.6272 148.169 32.6737 148.325 32.7726C148.482 32.8715 148.602 33.0177 148.67 33.19C148.799 33.5386 148.86 33.9086 148.85 34.28V35C148.857 35.2816 148.884 35.5622 148.93 35.84C148.984 36.117 149.014 36.398 149.02 36.68C149.02 36.7308 149.01 36.781 148.99 36.8278C148.97 36.8746 148.942 36.9169 148.905 36.9523C148.869 36.9878 148.826 37.0155 148.779 37.034C148.731 37.0525 148.681 37.0614 148.63 37.0601L148.61 37.0801Z" fill="black"/>
<path d="M151.62 37C151.106 37.0267 150.6 36.8708 150.19 36.56C149.991 36.3961 149.832 36.1876 149.728 35.9514C149.624 35.7152 149.577 35.4579 149.59 35.2C149.57 34.5913 149.745 33.9923 150.09 33.49C150.245 33.2537 150.457 33.0607 150.708 32.9295C150.958 32.7982 151.238 32.733 151.52 32.74C151.886 32.7299 152.249 32.8052 152.58 32.96C152.723 33.0282 152.845 33.1343 152.933 33.2668C153.02 33.3994 153.07 33.5533 153.076 33.7119C153.082 33.8705 153.045 34.0278 152.968 34.1667C152.891 34.3057 152.778 34.4209 152.64 34.5C152.373 34.6647 152.096 34.8117 151.81 34.94L150.32 35.64C150.451 35.8501 150.638 36.0198 150.86 36.13C151.096 36.2458 151.357 36.3041 151.62 36.3C151.833 36.2916 152.045 36.2581 152.25 36.2C152.484 36.1614 152.697 36.0409 152.85 35.86C152.94 35.72 153.03 35.65 153.13 35.65C153.176 35.6494 153.222 35.6579 153.265 35.675C153.308 35.6922 153.347 35.7177 153.38 35.75C153.413 35.7807 153.44 35.8177 153.459 35.8589C153.478 35.9001 153.489 35.9447 153.49 35.99C153.49 36.28 153.25 36.53 152.79 36.74C152.423 36.9095 152.024 36.9982 151.62 37ZM151.52 33.45C151.368 33.4453 151.217 33.4753 151.078 33.5376C150.94 33.6 150.817 33.6932 150.72 33.81C150.473 34.1389 150.312 34.5236 150.25 34.93L151.45 34.36C151.805 34.1982 152.14 33.9969 152.45 33.76C152.194 33.5348 151.861 33.4167 151.52 33.43V33.45Z" fill="black"/>
<path d="M156.79 33.48H156.41L155.88 33.54L155.95 35.85V36.22C155.95 36.79 155.82 37.07 155.54 37.07C155.491 37.0728 155.441 37.0654 155.395 37.0482C155.348 37.031 155.306 37.0044 155.27 36.97C155.231 36.9411 155.2 36.9033 155.179 36.8597C155.159 36.8162 155.148 36.7683 155.15 36.72C155.15 36.62 155.15 36.47 155.15 36.27C155.15 36.07 155.15 35.93 155.15 35.83L155.08 33.55L154.21 33.48C154.161 33.4788 154.113 33.4676 154.068 33.4471C154.024 33.4266 153.984 33.3971 153.951 33.3606C153.918 33.3241 153.893 33.2812 153.877 33.2347C153.862 33.1882 153.856 33.1389 153.86 33.09C153.859 33.0384 153.868 32.9871 153.887 32.939C153.906 32.8909 153.934 32.8471 153.97 32.81C154.004 32.7722 154.045 32.7427 154.092 32.7236C154.139 32.7045 154.19 32.6965 154.24 32.7L155.06 32.76C155.06 32.63 155.06 32.45 155.06 32.23C155.06 32.01 155.06 31.85 155.06 31.75C155.06 31.6461 155.099 31.5461 155.17 31.47C155.247 31.402 155.347 31.3662 155.45 31.37C155.69 31.37 155.82 31.56 155.86 31.94C155.86 32.04 155.86 32.15 155.86 32.29V32.76L156.42 32.7C156.596 32.684 156.774 32.684 156.95 32.7C157.026 32.7248 157.092 32.7751 157.136 32.8425C157.179 32.9098 157.199 32.9902 157.19 33.07C157.192 33.1217 157.183 33.1732 157.164 33.2214C157.145 33.2695 157.116 33.3133 157.08 33.35C157.045 33.393 157.001 33.4273 156.951 33.4498C156.9 33.4724 156.845 33.4828 156.79 33.48Z" fill="black"/>
</svg>
