<svg xmlns="http://www.w3.org/2000/svg" viewBox="0 0 619.28 359"><defs><style>.cls-1 { fill: rgb(217, 217, 217); }.cls-10, .cls-2 { fill: none; }.cls-10, .cls-2, .cls-3, .cls-4, .cls-5 { stroke: rgb(0, 0, 0); }.cls-3 { fill: rgb(255, 6, 6); }.cls-4 { fill: rgb(235, 251, 59); }.cls-5 { fill: rgb(20, 156, 34); }.cls-6 { mask: url("#mask"); }.cls-7 { fill: rgb(28, 27, 31); }.cls-8 { mask: url("#mask-2"); }.cls-9 { mask: url("#mask-3"); }.cls-10 { stroke-miterlimit: 10; }</style><mask id="mask" x="9.71" y="34.11" width="9.58" height="9.79" maskUnits="userSpaceOnUse"><rect class="cls-1" x="9.71" y="34.11" width="9.58" height="9.79" id="mask0_143_4" data-name="mask0 143 4"/></mask><mask id="mask-2" x="28.23" y="34.1" width="9.58" height="9.79" maskUnits="userSpaceOnUse"><rect class="cls-1" x="28.23" y="34.1" width="9.58" height="9.79" id="mask1_143_4" data-name="mask1 143 4"/></mask><mask id="mask-3" x="46.8" y="34.1" width="9.58" height="9.79" maskUnits="userSpaceOnUse"><rect class="cls-1" x="46.8" y="34.1" width="9.58" height="9.79" id="mask2_143_4" data-name="mask2 143 4"/></mask></defs><g id="Capa_2" data-name="Capa 2"><g id="Capa_1-2" data-name="Capa 1"><rect class="cls-2" x=".5" y=".5" width="618.28" height="358" rx="9.5"/><path class="cls-3" d="M15.06 11.18A3.09 3.09 0 1 1 12 8a3.13 3.13 0 0 1 3.06 3.18z"/><path class="cls-4" d="M27.83 11.18A3.09 3.09 0 1 1 24.74 8a3.13 3.13 0 0 1 3.09 3.18z"/><path class="cls-5" d="M40.6 11.18A3.09 3.09 0 1 1 37.51 8a3.13 3.13 0 0 1 3.09 3.18z"/><line class="cls-2" y1="58.41" x2="619.28" y2="58.41"/><rect class="cls-2" x="67.54" y="31.67" width="538.47" height="14.5" rx="7.25"/><path d="M78 42.43a.36.36 0 0 1-.36-.3 7.22 7.22 0 0 1-.16-.93 7.43 7.43 0 0 1-.07-1v-.63c0-.49-.13-.74-.37-.74a1.14 1.14 0 0 0-.88.45 5.15 5.15 0 0 0-.55.9 7.18 7.18 0 0 1-.12 1.8.38.38 0 0 1-.62.13.35.35 0 0 1-.13-.27 1 1 0 0 1 0-.17 3.78 3.78 0 0 0 0-.59V36.9a1.58 1.58 0 0 0 0-.38 2.34 2.34 0 0 1 0-.38.37.37 0 0 1 .11-.27.38.38 0 0 1 .28-.12.35.35 0 0 1 .37.35 4.73 4.73 0 0 1 .07.7V39a2.63 2.63 0 0 1 .68-.66 1.59 1.59 0 0 1 .78-.22.93.93 0 0 1 .89.44 2.35 2.35 0 0 1 .19 1v.76l.08.82c0 .32.08.59.13.83a.23.23 0 0 1 0 .11.34.34 0 0 1-.12.27.36.36 0 0 1-.2.08z"/><path d="M82 38.79h-.4l-.53.06.07 2.35v.38c0 .58-.13.87-.41.87a.36.36 0 0 1-.27-.1.34.34 0 0 1-.12-.26V41.18l-.08-2.33c-.19 0-.48 0-.87-.06a.36.36 0 0 1-.34-.4.41.41 0 0 1 .1-.29.33.33 0 0 1 .27-.11l.82.06v-1.03a.36.36 0 0 1 .12-.28.37.37 0 0 1 .27-.11c.24 0 .37.2.41.59V38h.56a2.92 2.92 0 0 1 .53 0 .36.36 0 0 1 .23.38.38.38 0 0 1-.11.29.37.37 0 0 1-.25.12z"/><path d="M85.75 38.79h-.39l-.53.06.07 2.35v.38c0 .58-.12.87-.41.87a.39.39 0 0 1-.27-.1.33.33 0 0 1-.11-.26V41.18l-.08-2.33c-.19 0-.48 0-.86-.06a.37.37 0 0 1-.35-.4.42.42 0 0 1 .11-.29.33.33 0 0 1 .26-.11L84 38v-1.03a.39.39 0 0 1 .11-.28.41.41 0 0 1 .28-.11c.23 0 .37.2.41.59V38l.55-.06a2.85 2.85 0 0 1 .53 0 .36.36 0 0 1 .24.38.42.42 0 0 1-.11.29.37.37 0 0 1-.26.18z"/><path d="M88.56 42.33a3.52 3.52 0 0 1-.86-.13v1.9a.36.36 0 0 1-.38.4.37.37 0 0 1-.27-.11.4.4 0 0 1-.11-.29v-3.18c0-.58 0-1.11-.06-1.59v-.81a1 1 0 0 1 .1-.48.36.36 0 0 1 .34-.23.34.34 0 0 1 .25.11.36.36 0 0 1 .1.27.85.85 0 0 1 0 .13 2 2 0 0 0 0 .22 3.14 3.14 0 0 1 .64-.35 1.69 1.69 0 0 1 .6-.12 1.25 1.25 0 0 1 1.09.73 3.43 3.43 0 0 1 .29 1.52 2.21 2.21 0 0 1-.45 1.42 1.58 1.58 0 0 1-1.28.59zm.27-3.46a1.39 1.39 0 0 0-.65.16 2.68 2.68 0 0 0-.52.43v1.9a2.34 2.34 0 0 0 .85.17.85.85 0 0 0 .74-.38 1.41 1.41 0 0 0 .23-.83 2.53 2.53 0 0 0-.18-1.09.55.55 0 0 0-.47-.36z"/><path d="M93.8 39.12a.32.32 0 0 1-.3-.15 1.8 1.8 0 0 1-.1-.43c-.19.05-.49.14-.9.28s-.63.38-.63.63l.23.06a3.71 3.71 0 0 1 1.33.45 1.36 1.36 0 0 1 .64 1.21 1.06 1.06 0 0 1-.55 1 2.13 2.13 0 0 1-1.15.28 2.7 2.7 0 0 1-1-.18c-.4-.15-.6-.36-.6-.62a.38.38 0 0 1 .12-.28.41.41 0 0 1 .28-.12.53.53 0 0 1 .32.19.87.87 0 0 0 .42.15 2.69 2.69 0 0 0 .44 0 2 2 0 0 0 .57-.08c.24-.08.37-.2.37-.37 0-.36-.25-.6-.74-.73l-.41-.09a2.32 2.32 0 0 1-.74-.27.76.76 0 0 1-.31-.67 1.2 1.2 0 0 1 .77-1.19 5.73 5.73 0 0 1 .74-.26 5.51 5.51 0 0 0 .74-.25.81.81 0 0 1 .35-.07.33.33 0 0 1 .27.11.4.4 0 0 1 .11.29 1.31 1.31 0 0 0 0 .34 2 2 0 0 1 0 .34.42.42 0 0 1-.11.29.38.38 0 0 1-.16.14z"/><path d="M96.13 41.29a.38.38 0 0 1-.11.29.37.37 0 0 1-.29.12.36.36 0 0 1-.28-.12.38.38 0 0 1-.11-.29 1.12 1.12 0 0 0 0-.22 1 1 0 0 1 0-.22.36.36 0 0 1 .12-.28.39.39 0 0 1 .29-.11c.25 0 .38.27.38.83zm-.06-2.91a.4.4 0 0 1-.11.29.41.41 0 0 1-.58 0 .4.4 0 0 1-.11-.29s0-.08 0-.15a1 1 0 0 1 0-.15.36.36 0 0 1 .12-.28.44.44 0 0 1 .29-.11c.25 0 .39.23.39.69z"/><path d="M97.6 42.55a.42.42 0 0 1-.26-.1.34.34 0 0 1-.11-.25.39.39 0 0 1 0-.14 20.91 20.91 0 0 1 1.15-2.46 22.63 22.63 0 0 0 1.15-2.48c.34-.95.59-1.42.77-1.41a.36.36 0 0 1 .25.11.3.3 0 0 1 .11.24.69.69 0 0 1 0 .22l-.44 1.08a14.67 14.67 0 0 1-.74 1.7l-.85 1.65-.71 1.6a.33.33 0 0 1-.32.24z"/><path d="M101.68 42.55a.37.37 0 0 1-.25-.1.31.31 0 0 1-.11-.25.78.78 0 0 1 0-.14 22.72 22.72 0 0 1 1.15-2.46 22.63 22.63 0 0 0 1.15-2.48c.34-.95.6-1.42.77-1.41a.34.34 0 0 1 .25.11.28.28 0 0 1 .11.24.69.69 0 0 1 0 .22l-.44 1.08a14.67 14.67 0 0 1-.74 1.7l-.85 1.65-.7 1.6a.35.35 0 0 1-.34.24z"/><path d="M109.82 42.37a2.19 2.19 0 0 1-1.43-.45 1.73 1.73 0 0 1-.59-1.39 2.93 2.93 0 0 1 .49-1.74 1.65 1.65 0 0 1 1.42-.77 2.16 2.16 0 0 1 1.06.23.88.88 0 0 1 .5.84.9.9 0 0 1-.44.73 6.75 6.75 0 0 1-.82.44l-1.49.72a1.36 1.36 0 0 0 .54.5 1.67 1.67 0 0 0 .76.17 2.71 2.71 0 0 0 .63-.1 1 1 0 0 0 .59-.35.37.37 0 0 1 .29-.21.33.33 0 0 1 .24.1.34.34 0 0 1 .11.25c0 .29-.23.55-.7.76a2.8 2.8 0 0 1-1.16.27zm-.11-3.63a1 1 0 0 0-.79.38 2.65 2.65 0 0 0-.47 1.13l1.2-.58a5.51 5.51 0 0 0 1-.61 1.3 1.3 0 0 0-.94-.32z"/><path d="m116 38.77-.57.54-.69.71 1.27 1.7a.38.38 0 0 1 .1.25.37.37 0 0 1-.12.27.37.37 0 0 1-.26.12.34.34 0 0 1-.27-.15c-.24-.28-.66-.83-1.27-1.64l-.76.8-.67.66a.33.33 0 0 1-.26.14.4.4 0 0 1-.27-.11.43.43 0 0 1-.11-.28.38.38 0 0 1 .1-.25 2.45 2.45 0 0 1 .33-.36l.36-.33.83-.89-.51-.75a4.34 4.34 0 0 0-.54-.66.4.4 0 0 1-.15-.29.46.46 0 0 1 .11-.29.35.35 0 0 1 .26-.12c.15 0 .38.2.69.61l.68 1 .76-.72a4.68 4.68 0 0 0 .64-.72.39.39 0 0 1 .3-.19.41.41 0 0 1 .39.39c-.05.1-.18.3-.37.56z"/><path d="M120.13 42.45s-.14-.06-.27-.18a1.33 1.33 0 0 1-.26-.29 3.76 3.76 0 0 1-.66.31 1.24 1.24 0 0 1-.47.11 1.6 1.6 0 0 1-1.33-.52 2.44 2.44 0 0 1-.4-1.52 2.34 2.34 0 0 1 .65-1.65 2.08 2.08 0 0 1 1.55-.68 1.94 1.94 0 0 1 .76.18c.35.14.53.32.53.53a.26.26 0 0 1-.08.2c0 .1 0 .26-.06.49s0 .53 0 .89a4 4 0 0 0 .06.78 6.57 6.57 0 0 0 .25.7l.09.22v.06a.36.36 0 0 1-.36.37zm-.81-2.77v-.37a3.49 3.49 0 0 1 .07-.43 1.6 1.6 0 0 0-.25-.11.45.45 0 0 0-.17 0 1.33 1.33 0 0 0-1 .51 1.71 1.71 0 0 0-.44 1.16 1.75 1.75 0 0 0 .23 1 .75.75 0 0 0 .68.32 1.36 1.36 0 0 0 .63-.13 3 3 0 0 0 .39-.31 15.28 15.28 0 0 1-.14-1.64z"/><path d="M126.12 42.52a.35.35 0 0 1-.37-.35q-.07-.44-.15-1.23l-.13-1.24a2.65 2.65 0 0 0-.13-.54c-.09-.24-.18-.36-.29-.36a1.47 1.47 0 0 0-.54.26 1.94 1.94 0 0 0-.49.37v.74l.12 1.07a8.86 8.86 0 0 1 .07 1 .38.38 0 0 1-.11.29.37.37 0 0 1-.27.11.36.36 0 0 1-.38-.4 13.51 13.51 0 0 0-.1-1.42c-.06-.63-.09-1.11-.09-1.43a1.5 1.5 0 0 0-.12-.66 2.18 2.18 0 0 0-.55.42l-.46.52a1.66 1.66 0 0 1-.2.25v1.4a2.86 2.86 0 0 0 0 .33 1.7 1.7 0 0 1 0 .31.38.38 0 0 1-.12.28.41.41 0 0 1-.28.11c-.29 0-.44-.34-.44-1V38.65c0-.6.13-.91.4-.91a.4.4 0 0 1 .28.14.44.44 0 0 1 .12.29v.24a1.25 1.25 0 0 0 0 .24v.42a2.55 2.55 0 0 1 .6-.77 1.11 1.11 0 0 1 .67-.34.83.83 0 0 1 .84.62 1.34 1.34 0 0 1 .51-.44 1.51 1.51 0 0 1 .68-.15.9.9 0 0 1 .89.72c0 .1.08.47.16 1.12.07.46.16 1.22.28 2.28a.34.34 0 0 1-.11.28.39.39 0 0 1-.29.13z"/><path d="M129 42.33a3.52 3.52 0 0 1-.86-.13v1.9a.36.36 0 0 1-.38.4.37.37 0 0 1-.27-.11.4.4 0 0 1-.11-.29v-3.18q0-.87-.06-1.59v-.81a1 1 0 0 1 .1-.48.37.37 0 0 1 .34-.23.34.34 0 0 1 .25.11.36.36 0 0 1 .1.27.85.85 0 0 1 0 .13 2 2 0 0 0 0 .22 3.14 3.14 0 0 1 .64-.35 1.69 1.69 0 0 1 .6-.12 1.25 1.25 0 0 1 1.17.73 3.43 3.43 0 0 1 .29 1.52 2.21 2.21 0 0 1-.45 1.42 1.58 1.58 0 0 1-1.36.59zm.27-3.46a1.39 1.39 0 0 0-.65.16 2.68 2.68 0 0 0-.52.43c0 .6.05 1.23.05 1.9a2.34 2.34 0 0 0 .85.17.85.85 0 0 0 .74-.38 1.41 1.41 0 0 0 .23-.83 2.53 2.53 0 0 0-.18-1.09.55.55 0 0 0-.49-.36z"/><path d="M132.63 39.06v2.92c0 .41-.15.4-.38.4s-.38-.14-.38-.41v-1.44c0-.64.05-1.13.05-1.45v-2.89c0-.26.12-.39.38-.39a.34.34 0 0 1 .38.39v1.45c0 .55-.05 1-.05 1.42z"/><path d="M135.65 42.37a2.16 2.16 0 0 1-1.42-.45 1.71 1.71 0 0 1-.6-1.39 3 3 0 0 1 .49-1.74 1.67 1.67 0 0 1 1.43-.77 2.22 2.22 0 0 1 1.06.23.9.9 0 0 1 .5.84.93.93 0 0 1-.44.73 7.16 7.16 0 0 1-.83.44l-1.49.72a1.51 1.51 0 0 0 .54.5 1.7 1.7 0 0 0 .76.17 2.87 2.87 0 0 0 .64-.1 1 1 0 0 0 .59-.35c.09-.14.18-.21.28-.21a.33.33 0 0 1 .24.1.31.31 0 0 1 .11.25c0 .29-.23.55-.69.76a2.84 2.84 0 0 1-1.17.27zm-.1-3.63a1 1 0 0 0-.79.38 2.53 2.53 0 0 0-.47 1.13l1.19-.58a5.67 5.67 0 0 0 1-.61 1.34 1.34 0 0 0-.93-.32z"/><path d="M138.71 42.56a.47.47 0 0 1-.35-.15.48.48 0 0 1-.14-.35.48.48 0 0 1 .14-.34.47.47 0 0 1 .35-.15.43.43 0 0 1 .33.15.45.45 0 0 1 .15.34.45.45 0 0 1-.15.35.43.43 0 0 1-.33.15z"/><path d="M142 42.44a1.9 1.9 0 0 1-1.34-.5 1.77 1.77 0 0 1-.56-1.36 3.2 3.2 0 0 1 .53-1.67 1.62 1.62 0 0 1 1.31-1 2.45 2.45 0 0 1 .86.18c.4.16.59.35.59.58a.44.44 0 0 1-.09.27.3.3 0 0 1-.24.11.32.32 0 0 1-.2-.06l-.16-.14a1.2 1.2 0 0 0-.76-.19c-.26 0-.52.24-.78.73a2.48 2.48 0 0 0-.36 1.15 1.06 1.06 0 0 0 .35.83 1.3 1.3 0 0 0 .85.28 1.06 1.06 0 0 0 .49-.13l.46-.25a.4.4 0 0 1 .16-.06.32.32 0 0 1 .25.12.4.4 0 0 1 .11.27c0 .19-.2.38-.6.56a2.2 2.2 0 0 1-.87.28z"/><path d="M145.75 42.42a1.49 1.49 0 0 1-1.12-.49 2.12 2.12 0 0 1-.55-1.48 2.62 2.62 0 0 1 .44-1.59 1.73 1.73 0 0 1 1.52-.81 1.29 1.29 0 0 1 1.18.73 2.89 2.89 0 0 1 .31 1.42 2.64 2.64 0 0 1-.45 1.51 1.55 1.55 0 0 1-1.33.71zm.24-3.56a1 1 0 0 0-.89.56 2 2 0 0 0-.26 1 1.29 1.29 0 0 0 .31.9.8.8 0 0 0 .6.27.91.91 0 0 0 .7-.31 1.27 1.27 0 0 0 .35-.9c.04-1-.23-1.51-.8-1.52z"/><path d="M153.44 42.52a.35.35 0 0 1-.37-.35c0-.29-.1-.7-.14-1.23l-.13-1.24a2.69 2.69 0 0 0-.14-.54c-.09-.24-.18-.36-.29-.36a1.39 1.39 0 0 0-.53.26 1.76 1.76 0 0 0-.49.37 6.1 6.1 0 0 0 0 .74l.11 1.07a9.18 9.18 0 0 1 .08 1 .42.42 0 0 1-.11.29.38.38 0 0 1-.28.11.37.37 0 0 1-.27-.11.42.42 0 0 1-.11-.29c0-.32 0-.8-.09-1.42a13.84 13.84 0 0 1-.1-1.43 1.67 1.67 0 0 0-.11-.66 2 2 0 0 0-.56.42l-.46.52a1.66 1.66 0 0 1-.2.25v1.4a2.48 2.48 0 0 0 0 .33 1.7 1.7 0 0 1 0 .31.38.38 0 0 1-.12.28.41.41 0 0 1-.28.11c-.29 0-.44-.34-.44-1 0-.16 0-.4.05-.72s0-.55 0-.71a6.13 6.13 0 0 0 0-.63v-.64c0-.6.13-.91.39-.91a.38.38 0 0 1 .28.14.41.41 0 0 1 .13.29v.9a2.37 2.37 0 0 1 .59-.77 1.14 1.14 0 0 1 .67-.34.85.85 0 0 1 .85.62 1.34 1.34 0 0 1 .51-.44 1.44 1.44 0 0 1 .67-.15.9.9 0 0 1 .89.72 9.7 9.7 0 0 1 .16 1.12c.07.46.17 1.22.28 2.28a.36.36 0 0 1-.1.28.44.44 0 0 1-.34.13z"/><g class="cls-6"><path class="cls-7" d="M13.7 41.45 11.3 39l2.4-2.44.56.59-1.42 1.45h4.85v.81h-4.85l1.42 1.45z"/></g><g class="cls-8"><path class="cls-7" d="m33.82 41.45-.56-.59 1.42-1.45h-4.85v-.82h4.85l-1.42-1.45.56-.59L36.21 39z"/></g><g class="cls-9"><path class="cls-7" d="M51.59 42.26a3.06 3.06 0 0 1-2.27-.94A3.24 3.24 0 0 1 48.4 39a3.2 3.2 0 0 1 .92-2.31 3.17 3.17 0 0 1 3.59-.69 3.07 3.07 0 0 1 1.07.83v-1.09h.8v2.85H52v-.81h1.67a2.35 2.35 0 0 0-.87-.9 2.31 2.31 0 0 0-1.2-.33 2.28 2.28 0 0 0-1.7.72 2.49 2.49 0 0 0 0 3.46 2.37 2.37 0 0 0 4-.91h.84a3.18 3.18 0 0 1-1.14 1.76 3 3 0 0 1-2.01.68z"/></g><path class="cls-10" d="M618.78 30.57v27.85H.5V30.57a9.5 9.5 0 0 1 9.5-9.5h40.35v-7.79a7.81 7.81 0 0 1 7.81-7.8h44.53a7.8 7.8 0 0 1 7.81 7.8v7.79h498.78a9.5 9.5 0 0 1 9.5 9.5z"/></g></g></svg>