<svg xmlns="http://www.w3.org/2000/svg" viewBox="0 0 543.02 221.86"><defs><style>.cls-1{fill:#ffb600;}.cls-2{fill:#2a9d8f;}.cls-3{fill:none;stroke:#7bccff;}</style></defs><g id="Capa_2" data-name="Capa 2"><g id="Capa_1-2" data-name="Capa 1"><g id="Capa_1-2-2" data-name="Capa 1-2"><path class="cls-1" d="M95.12,82.62a43.32,43.32,0,1,0-57,65C45.72,153.6,49.6,158.21,49.6,167a3.5,3.5,0,0,0,3.5,3.5H76.3A3.58,3.58,0,0,0,79.8,167c0-8.67,3.92-13.34,11.63-19.4a43.32,43.32,0,0,0,3.68-64.92Zm-4.21,56L66.83,113.05a3.5,3.5,0,0,0-5.1,4.8l23.91,25.36C78.4,149.12,73.89,154.73,73,163.53H56.42c-1-9.4-6.17-15.28-14-21.41A36.32,36.32,0,1,1,101,113.46,35.55,35.55,0,0,1,90.9,138.59Z"/><path class="cls-1" d="M64.7,88.07a27,27,0,0,0,0,53.94,3.5,3.5,0,0,0,0-7,20,20,0,1,1,20-20,3.5,3.5,0,0,0,7,0A27,27,0,0,0,64.7,88.07Z"/><path class="cls-2" d="M75.1,181.18H53.69a3.5,3.5,0,0,1,0-7H75.1a3.5,3.5,0,0,1,0,7Z"/><path class="cls-2" d="M75.1,190.88H53.69a3.5,3.5,0,0,1,0-7H75.1a3.5,3.5,0,1,1,0,7Z"/><path class="cls-2" d="M69.05,200.61h-9.3a3.5,3.5,0,0,1,0-7h9.3a3.5,3.5,0,1,1,0,7Z"/><path class="cls-1" d="M119,121.42V98.62a4,4,0,0,1,4.07-4,3.94,3.94,0,0,1,4,4v22.47c0,8.54,4.4,13.08,11.63,13.08s11.56-4.27,11.56-12.75V98.62a4,4,0,0,1,4.07-4,3.94,3.94,0,0,1,4,4V121c0,13.73-7.75,20.63-19.78,20.63S119,134.76,119,121.42Z"/><path class="cls-1" d="M175.19,98.62a4,4,0,0,1,4.07-4,3.94,3.94,0,0,1,4,4v38.63a4,4,0,0,1-4,4,4,4,0,0,1-4.07-4Z"/><path class="cls-1" d="M198.77,118.07v-.13c0-13.08,9.79-23.78,23.72-23.78a24.11,24.11,0,0,1,15.77,5.19,4.05,4.05,0,0,1,1.58,3.22,4,4,0,0,1-6.44,3.15,16.68,16.68,0,0,0-11-4.14c-8.74,0-15.18,7.23-15.18,16.23v.13c0,9,6.37,16.29,15.18,16.29a16.51,16.51,0,0,0,11.5-4.4,3.66,3.66,0,0,1,2.43-.92,3.84,3.84,0,0,1,3.81,3.75,3.89,3.89,0,0,1-1.31,2.89,23.5,23.5,0,0,1-16.69,6.18c-13.4,0-23.39-10.45-23.39-23.65Z"/><path class="cls-1" d="M254.56,98.62a4,4,0,0,1,4.07-4,3.94,3.94,0,0,1,4,4v19.45l21.81-21.95a4.24,4.24,0,0,1,3.35-1.51,3.71,3.71,0,0,1,3.75,3.75,3.92,3.92,0,0,1-1.45,3l-14.32,13.8,15.51,19.25a4.35,4.35,0,0,1,1.12,2.89,3.94,3.94,0,0,1-4.07,3.94,4.1,4.1,0,0,1-3.42-1.91l-14.78-18.86-7.49,7.23v9.53a4,4,0,0,1-4,4,4,4,0,0,1-4.07-4V98.62Z"/><path class="cls-1" d="M306.66,98.75a4,4,0,0,1,4.07-4.07h.85a4.27,4.27,0,0,1,3.75,2.17l13.93,21.81,14-21.88a4.06,4.06,0,0,1,3.68-2.1h.85a4,4,0,0,1,4.07,4.07v38.5a4,4,0,0,1-4.07,4,4.07,4.07,0,0,1-4-4v-27.6l-11.24,16.89a4,4,0,0,1-3.42,2.1,3.84,3.84,0,0,1-3.35-2.1L314.6,109.79v27.53a3.93,3.93,0,0,1-4,3.94,3.87,3.87,0,0,1-3.94-3.94V98.75Z"/><path class="cls-1" d="M366.91,118.07v-.13c0-12.94,10-23.78,24.11-23.78s24,10.71,24,23.65v.13c0,12.94-10,23.79-24.11,23.79s-24-10.71-24-23.65Zm39.62,0v-.13c0-8.94-6.5-16.36-15.64-16.36s-15.51,7.29-15.51,16.23v.13c0,8.94,6.5,16.29,15.64,16.29S406.53,127,406.53,118.07Z"/><path class="cls-1" d="M428,118.07v-.13c0-13.08,9.79-23.78,23.72-23.78a24.11,24.11,0,0,1,15.77,5.19,4.05,4.05,0,0,1,1.58,3.22,4,4,0,0,1-6.44,3.15,16.68,16.68,0,0,0-11-4.14c-8.74,0-15.18,7.23-15.18,16.23v.13c0,9,6.37,16.29,15.18,16.29a16.51,16.51,0,0,0,11.5-4.4,3.66,3.66,0,0,1,2.43-.92,3.84,3.84,0,0,1,3.81,3.75,3.89,3.89,0,0,1-1.31,2.89,23.5,23.5,0,0,1-16.69,6.18c-13.4,0-23.39-10.45-23.39-23.65Z"/><path class="cls-1" d="M483.79,98.62a4,4,0,0,1,4.07-4,3.94,3.94,0,0,1,4,4v19.45l21.81-21.95A4.24,4.24,0,0,1,517,94.61a3.71,3.71,0,0,1,3.75,3.75,3.92,3.92,0,0,1-1.45,3L505,115.18l15.51,19.25a4.35,4.35,0,0,1,1.12,2.89,3.94,3.94,0,0,1-4.07,3.94,4.1,4.1,0,0,1-3.42-1.91l-14.78-18.86-7.49,7.23v9.53a4,4,0,0,1-4,4,4,4,0,0,1-4.07-4V98.62Z"/></g><rect class="cls-3" x="263.51" y="0.5" width="16" height="16"/><line class="cls-3" x1="271.51" y1="16.5" x2="271.51" y2="55.32"/><rect class="cls-3" x="0.5" y="47.32" width="16" height="16"/><rect class="cls-3" x="0.5" y="205.36" width="16" height="16"/><rect class="cls-3" x="526.52" y="205.36" width="16" height="16"/><rect class="cls-3" x="526.52" y="47.32" width="16" height="16"/><polygon class="cls-3" points="534.52 63.32 534.52 205.36 526.52 205.36 526.52 213.36 16.5 213.36 16.5 205.36 8.5 205.36 8.5 63.32 16.5 63.32 16.5 55.32 526.52 55.32 526.52 63.32 534.52 63.32"/></g></g></svg>