<svg width="100" height="50" viewBox="0 0 100 50" fill="none" xmlns="http://www.w3.org/2000/svg">
  <rect x="41" y="20" width="40" height="20" rx="10" fill="#A9A9A9" stroke="black" stroke-width="2"/>
  <path d="M71 40C76.5228 40 81 35.5228 81 30C81 24.4772 76.5228 20 71 20C65.4772 20 61 24.4772 61 30C61 35.5228 65.4772 40 71 40Z" fill="#A9A9A9" stroke="black" stroke-width="2"/>
  <path d="M70.854 34.9868C72.1084 35.076 73.3529 34.7097 74.359 33.9551H74.3572C75.0696 33.4165 75.6337 32.7059 75.9965 31.8898C75.054 32.0614 74.084 32.0018 73.1696 31.7163C72.2551 31.4308 71.4236 30.9277 70.7462 30.2503C70.0688 29.573 69.5658 28.7414 69.2802 27.827C68.9947 26.9125 68.9352 25.9425 69.1068 25C68.2917 25.3638 67.5823 25.9284 67.0449 26.641C66.2903 27.6471 65.924 28.8916 66.0132 30.146C66.1023 31.4004 66.6409 32.5806 67.5302 33.4698C68.4194 34.3591 69.5996 34.8977 70.854 34.9868Z" fill="white"/>
  <rect x="19" y="10" width="40" height="20" rx="10" fill="white" stroke="black" stroke-width="2"/>
  <path d="M29 30C34.5228 30 39 25.5228 39 20C39 14.4772 34.5228 10 29 10C23.4772 10 19 14.4772 19 20C19 25.5228 23.4772 30 29 30Z" fill="white" stroke="black" stroke-width="2"/>
  <path d="M28.7059 15.6863V15.2941C28.7059 15.2161 28.7369 15.1413 28.792 15.0861C28.8472 15.031 28.922 15 29 15C29.078 15 29.1528 15.031 29.208 15.0861C29.2631 15.1413 29.2941 15.2161 29.2941 15.2941V15.6863C29.2941 15.7643 29.2631 15.8391 29.208 15.8942C29.1528 15.9494 29.078 15.9804 29 15.9804C28.922 15.9804 28.8472 15.9494 28.792 15.8942C28.7369 15.8391 28.7059 15.7643 28.7059 15.6863ZM32.0392 20C32.0392 20.6011 31.861 21.1887 31.527 21.6885C31.1931 22.1883 30.7184 22.5778 30.1631 22.8079C29.6077 23.0379 28.9966 23.0981 28.4071 22.9808C27.8175 22.8635 27.276 22.5741 26.851 22.1491C26.4259 21.724 26.1365 21.1825 26.0192 20.5929C25.9019 20.0034 25.9621 19.3923 26.1921 18.8369C26.4222 18.2816 26.8117 17.8069 27.3115 17.473C27.8113 17.139 28.3989 16.9608 29 16.9608C29.8058 16.9617 30.5783 17.2822 31.148 17.852C31.7178 18.4217 32.0383 19.1942 32.0392 20ZM31.451 20C31.451 19.5152 31.3072 19.0414 31.0379 18.6383C30.7686 18.2352 30.3858 17.9211 29.9379 17.7356C29.4901 17.5501 28.9973 17.5015 28.5218 17.5961C28.0464 17.6907 27.6097 17.9241 27.2669 18.2669C26.9241 18.6097 26.6907 19.0464 26.5961 19.5218C26.5015 19.9973 26.5501 20.4901 26.7356 20.9379C26.9211 21.3858 27.2352 21.7686 27.6383 22.0379C28.0414 22.3072 28.5152 22.451 29 22.451C29.6498 22.4502 30.2728 22.1917 30.7322 21.7322C31.1917 21.2728 31.4502 20.6498 31.451 20ZM25.6549 17.0706C25.6818 17.0995 25.7143 17.1227 25.7504 17.1387C25.7865 17.1548 25.8254 17.1635 25.8649 17.1642C25.9044 17.1649 25.9436 17.1576 25.9802 17.1428C26.0169 17.128 26.0501 17.106 26.0781 17.0781C26.106 17.0501 26.128 17.0169 26.1428 16.9802C26.1576 16.9436 26.1649 16.9044 26.1642 16.8649C26.1635 16.8254 26.1548 16.7865 26.1387 16.7504C26.1227 16.7143 26.0995 16.6818 26.0706 16.6549L25.6784 16.2627C25.6227 16.2108 25.5489 16.1825 25.4727 16.1839C25.3965 16.1852 25.3238 16.2161 25.27 16.27C25.2161 16.3238 25.1852 16.3965 25.1839 16.4727C25.1825 16.5489 25.2108 16.6227 25.2627 16.6784L25.6549 17.0706ZM25.6549 22.9294L25.2627 23.3216C25.2338 23.3485 25.2107 23.381 25.1946 23.417C25.1785 23.4531 25.1699 23.4921 25.1692 23.5316C25.1685 23.5711 25.1757 23.6103 25.1905 23.6469C25.2053 23.6835 25.2274 23.7168 25.2553 23.7447C25.2832 23.7726 25.3165 23.7947 25.3531 23.8095C25.3897 23.8243 25.4289 23.8315 25.4684 23.8308C25.5079 23.8301 25.5469 23.8215 25.583 23.8054C25.619 23.7893 25.6515 23.7662 25.6784 23.7373L26.0706 23.3451C26.0995 23.3182 26.1227 23.2857 26.1387 23.2496C26.1548 23.2135 26.1635 23.1746 26.1642 23.1351C26.1649 23.0956 26.1576 23.0564 26.1428 23.0198C26.128 22.9831 26.106 22.9499 26.0781 22.9219C26.0501 22.894 26.0169 22.872 25.9802 22.8572C25.9436 22.8424 25.9044 22.8352 25.8649 22.8358C25.8254 22.8365 25.7865 22.8452 25.7504 22.8613C25.7143 22.8773 25.6818 22.9005 25.6549 22.9294ZM32.3216 16.2627L31.9294 16.6549C31.9005 16.6818 31.8773 16.7143 31.8613 16.7504C31.8452 16.7865 31.8365 16.8254 31.8358 16.8649C31.8352 16.9044 31.8424 16.9436 31.8572 16.9802C31.872 17.0169 31.894 17.0501 31.9219 17.0781C31.9499 17.106 31.9831 17.128 32.0198 17.1428C32.0564 17.1576 32.0956 17.1649 32.1351 17.1642C32.1746 17.1635 32.2135 17.1548 32.2496 17.1387C32.2857 17.1227 32.3182 17.0995 32.3451 17.0706L32.7373 16.6784C32.7892 16.6227 32.8175 16.5489 32.8161 16.4727C32.8148 16.3965 32.7839 16.3238 32.73 16.27C32.6762 16.2161 32.6035 16.1852 32.5273 16.1839C32.4511 16.1825 32.3773 16.2108 32.3216 16.2627ZM32.3451 22.9294C32.2893 22.8775 32.2156 22.8492 32.1394 22.8505C32.0632 22.8519 31.9905 22.8827 31.9366 22.9366C31.8827 22.9905 31.8519 23.0632 31.8505 23.1394C31.8492 23.2156 31.8775 23.2893 31.9294 23.3451L32.3216 23.7373C32.3773 23.7892 32.4511 23.8175 32.5273 23.8161C32.6035 23.8148 32.6762 23.7839 32.73 23.73C32.7839 23.6762 32.8148 23.6035 32.8161 23.5273C32.8175 23.4511 32.7892 23.3773 32.7373 23.3216L32.3451 22.9294ZM24.6863 19.7059H24.2941C24.2161 19.7059 24.1413 19.7369 24.0861 19.792C24.031 19.8472 24 19.922 24 20C24 20.078 24.031 20.1528 24.0861 20.208C24.1413 20.2631 24.2161 20.2941 24.2941 20.2941H24.6863C24.7643 20.2941 24.8391 20.2631 24.8942 20.208C24.9494 20.1528 24.9804 20.078 24.9804 20C24.9804 19.922 24.9494 19.8472 24.8942 19.792C24.8391 19.7369 24.7643 19.7059 24.6863 19.7059ZM29 24.0196C28.922 24.0196 28.8472 24.0506 28.792 24.1058C28.7369 24.1609 28.7059 24.2357 28.7059 24.3137V24.7059C28.7059 24.7839 28.7369 24.8587 28.792 24.9139C28.8472 24.969 28.922 25 29 25C29.078 25 29.1528 24.969 29.208 24.9139C29.2631 24.8587 29.2941 24.7839 29.2941 24.7059V24.3137C29.2941 24.2357 29.2631 24.1609 29.208 24.1058C29.1528 24.0506 29.078 24.0196 29 24.0196ZM33.7059 19.7059H33.3137C33.2357 19.7059 33.1609 19.7369 33.1058 19.792C33.0506 19.8472 33.0196 19.922 33.0196 20C33.0196 20.078 33.0506 20.1528 33.1058 20.208C33.1609 20.2631 33.2357 20.2941 33.3137 20.2941H33.7059C33.7839 20.2941 33.8587 20.2631 33.9139 20.208C33.969 20.1528 34 20.078 34 20C34 19.922 33.969 19.8472 33.9139 19.792C33.8587 19.7369 33.7839 19.7059 33.7059 19.7059Z" fill="black"/>
</svg>
