<svg version="1.0" xmlns="http://www.w3.org/2000/svg"
 width="276.000000pt" height="120.000000pt" viewBox="0 0 276.000000 120.000000"
 preserveAspectRatio="xMidYMid meet">

<g transform="translate(0.000000,120.000000) scale(0.100000,-0.100000)"
fill="#000000" stroke="none">
<path d="M370 935 c0 -54 1 -55 29 -55 16 0 35 8 42 18 11 14 11 15 -1 5 -8
-7 -24 -13 -37 -13 -21 0 -23 5 -23 45 0 40 2 45 23 45 13 0 29 -6 37 -12 12
-11 12 -10 1 5 -7 9 -26 17 -42 17 -28 0 -29 -1 -29 -55z"/>
<path d="M568 970 c-5 -17 3 -90 11 -90 3 0 5 21 4 46 -1 46 -8 65 -15 44z"/>
<path d="M486 952 c-3 -5 6 -7 19 -4 33 6 32 -14 -1 -22 -35 -9 -29 -41 9 -42
26 -1 28 1 25 35 -2 28 -8 37 -25 39 -11 2 -24 -1 -27 -6z m44 -42 c0 -12 -28
-25 -36 -17 -9 9 6 27 22 27 8 0 14 -5 14 -10z"/>
<path d="M612 948 c-25 -25 -6 -68 29 -68 10 0 20 4 23 8 2 4 -7 8 -21 7 -14
0 -28 6 -30 13 -3 8 6 12 26 12 17 0 31 4 31 8 0 12 -22 32 -35 32 -6 0 -16
-5 -23 -12z m43 -8 c4 -6 -5 -10 -20 -10 -15 0 -24 4 -20 10 3 6 12 10 20 10
8 0 17 -4 20 -10z"/>
<path d="M209 931 c-24 -19 -24 -20 -27 -278 -2 -142 0 -272 3 -290 12 -68
-78 -63 1140 -63 l1104 0 15 22 c14 19 16 65 16 304 l0 283 -26 20 c-27 21
-32 21 -870 21 -744 0 -844 -2 -844 -15 0 -13 101 -15 850 -15 l850 0 10 -26
c6 -14 10 -138 10 -277 0 -212 -2 -256 -16 -275 l-15 -22 -1080 0 c-726 0
-1087 3 -1100 10 -18 10 -19 24 -19 288 0 203 3 281 12 290 7 7 31 12 55 12
32 0 43 4 43 15 0 23 -82 20 -111 -4z"/>
<path d="M451 934 c0 -11 3 -14 6 -6 3 7 2 16 -1 19 -3 4 -6 -2 -5 -13z"/>
<path d="M2236 721 c-5 -8 -25 -12 -50 -10 -80 4 -76 9 -76 -91 l0 -91 88 3
87 3 3 88 c3 81 1 87 -17 87 -11 0 -21 5 -23 12 -3 9 -6 9 -12 -1z m44 -37 c0
-11 -18 -14 -80 -14 -62 0 -80 3 -80 14 0 11 18 14 80 14 62 0 80 -3 80 -14z
m-5 -84 l0 -55 -77 -3 -78 -3 0 61 0 61 78 -3 77 -3 0 -55z"/>
<path d="M2190 620 c0 -5 5 -10 11 -10 5 0 7 5 4 10 -3 6 -8 10 -11 10 -2 0
-4 -4 -4 -10z"/>
<path d="M2235 620 c-3 -5 -1 -10 4 -10 6 0 11 5 11 10 0 6 -2 10 -4 10 -3 0
-8 -4 -11 -10z"/>
<path d="M2190 580 c0 -5 5 -10 11 -10 5 0 7 5 4 10 -3 6 -8 10 -11 10 -2 0
-4 -4 -4 -10z"/>
<path d="M2230 580 c0 -5 5 -10 10 -10 6 0 10 5 10 10 0 6 -4 10 -10 10 -5 0
-10 -4 -10 -10z"/>
<path d="M410 676 c0 -21 -5 -24 -27 -23 -20 2 -31 -5 -42 -25 -14 -25 -14
-31 -1 -55 12 -22 24 -28 53 -30 l37 -1 0 79 c0 46 -4 79 -10 79 -5 0 -10 -11
-10 -24z m-2 -69 c5 -38 -14 -60 -39 -46 -19 10 -27 58 -12 73 17 17 48 0 51
-27z"/>
<path d="M530 676 c0 -19 -4 -23 -20 -19 -30 8 -50 -15 -50 -57 0 -45 16 -60
58 -57 l32 2 0 78 c0 45 -4 77 -10 77 -5 0 -10 -11 -10 -24z m3 -57 c12 -46
-19 -81 -48 -53 -20 20 -19 61 2 72 22 13 40 5 46 -19z"/>
<path d="M591 624 c-12 -42 -20 -78 -17 -81 2 -2 11 19 19 49 23 79 30 108 25
108 -3 0 -15 -34 -27 -76z"/>
<path d="M1035 688 c-17 -45 -42 -148 -36 -148 4 0 16 36 28 80 12 44 19 80
17 80 -3 0 -7 -6 -9 -12z"/>
<path d="M652 595 l1 -60 6 50 c5 42 10 51 29 53 20 3 22 0 22 -47 0 -28 5
-51 10 -51 6 0 10 22 10 49 0 32 5 51 13 54 24 9 36 -7 40 -58 l3 -50 2 58 c2
63 -10 77 -47 58 -12 -7 -22 -7 -26 -1 -3 5 -19 8 -35 7 -30 -2 -30 -2 -28
-62z"/>
<path d="M832 595 c1 -56 2 -57 5 -13 3 33 10 51 22 58 25 13 31 4 31 -52 0
-62 18 -63 22 0 3 40 6 47 26 50 20 3 22 0 22 -47 0 -28 5 -51 10 -51 15 0 12
97 -2 107 -7 4 -41 8 -75 8 l-63 0 2 -60z"/>
<path d="M1060 656 c0 -2 10 -30 22 -61 21 -56 21 -58 3 -71 -10 -8 -15 -17
-12 -21 4 -4 14 0 22 8 18 18 68 149 56 149 -5 0 -15 -20 -22 -45 -7 -25 -16
-45 -20 -45 -3 0 -12 20 -19 45 -7 25 -17 45 -21 45 -5 0 -9 -2 -9 -4z"/>
<path d="M1170 655 c0 -6 9 -34 20 -63 21 -56 20 -72 -8 -72 -12 0 -13 -3 -4
-12 17 -17 34 4 60 75 29 76 27 96 -2 32 l-23 -50 -13 40 c-12 40 -30 68 -30
50z"/>
<path d="M1280 655 c0 -6 9 -34 20 -63 21 -56 20 -72 -8 -72 -12 0 -13 -3 -4
-12 17 -17 34 4 60 75 29 76 27 96 -2 32 l-23 -50 -13 40 c-12 40 -30 68 -30
50z"/>
<path d="M1390 655 c0 -6 9 -34 20 -63 21 -56 20 -72 -8 -72 -12 0 -13 -3 -4
-12 17 -17 34 4 60 75 29 76 27 96 -2 32 l-23 -50 -13 40 c-12 40 -30 68 -30
50z"/>
</g>
</svg>
