<svg width="200" height="200" xmlns="http://www.w3.org/2000/svg">
  <g transform="translate(-1, 30)">
    <!-- Line 1 -->
    <path d="
      M 4,40 C 10,25 16,55 22,40 C 28,30 34,50 40,40 C 46,22 52,58 58,40
      M 74,40 C 81,28 87,56 93,40 C 98,26 104,51 110,40 C 117,23 123,54 128,40
      M 144,40 C 149,54 155,27 162,40 C 169,51 175,25 181,40 C 185,56 191,28 198,40
    "
    fill="none" stroke="black" stroke-width="2"/>

    <!-- Line 2 -->
    <path d="
      M 4,70 C 11,58 17,86 23,70 C 28,56 34,81 40,70 C 47,53 53,84 58,70
      M 74,70 C 79,84 85,57 92,70 C 99,81 105,55 111,70 C 115,86 121,58 128,70
      M 144,70 C 150,55 156,85 162,70 C 168,60 174,80 180,70 C 186,52 192,88 198,70
    "
    fill="none" stroke="black" stroke-width="2"/>

    <!-- Line 3 -->
    <path d="
      M 4,100 C 9,114 15,87 22,100 C 29,111 35,85 41,100 C 45,116 51,88 58,100
      M 74,100 C 80,85 86,115 92,100 C 98,90 104,110 110,100 C 116,82 122,118 128,100
      M 144,100 C 151,88 157,116 163,100 C 168,86 174,111 180,100 C 187,83 193,114 198,100
    "
    fill="none" stroke="black" stroke-width="2"/>
  </g>
</svg>